%TF.GenerationSoftware,KiCad,Pcbnew,7.0.8*%
%TF.CreationDate,2024-01-29T21:48:56+01:00*%
%TF.ProjectId,cube-batteryboard,63756265-2d62-4617-9474-657279626f61,rev?*%
%TF.SameCoordinates,Original*%
%TF.FileFunction,Legend,Bot*%
%TF.FilePolarity,Positive*%
%FSLAX46Y46*%
G04 Gerber Fmt 4.6, Leading zero omitted, Abs format (unit mm)*
G04 Created by KiCad (PCBNEW 7.0.8) date 2024-01-29 21:48:56*
%MOMM*%
%LPD*%
G01*
G04 APERTURE LIST*
G04 Aperture macros list*
%AMRoundRect*
0 Rectangle with rounded corners*
0 $1 Rounding radius*
0 $2 $3 $4 $5 $6 $7 $8 $9 X,Y pos of 4 corners*
0 Add a 4 corners polygon primitive as box body*
4,1,4,$2,$3,$4,$5,$6,$7,$8,$9,$2,$3,0*
0 Add four circle primitives for the rounded corners*
1,1,$1+$1,$2,$3*
1,1,$1+$1,$4,$5*
1,1,$1+$1,$6,$7*
1,1,$1+$1,$8,$9*
0 Add four rect primitives between the rounded corners*
20,1,$1+$1,$2,$3,$4,$5,0*
20,1,$1+$1,$4,$5,$6,$7,0*
20,1,$1+$1,$6,$7,$8,$9,0*
20,1,$1+$1,$8,$9,$2,$3,0*%
G04 Aperture macros list end*
%ADD10C,0.100000*%
%ADD11C,0.120000*%
%ADD12C,5.600000*%
%ADD13RoundRect,1.500000X1.500000X-1.500000X1.500000X1.500000X-1.500000X1.500000X-1.500000X-1.500000X0*%
%ADD14C,6.000000*%
%ADD15C,3.000000*%
G04 APERTURE END LIST*
D10*
X66166667Y-25590200D02*
X66309524Y-25542580D01*
X66309524Y-25542580D02*
X66547619Y-25542580D01*
X66547619Y-25542580D02*
X66642857Y-25590200D01*
X66642857Y-25590200D02*
X66690476Y-25637819D01*
X66690476Y-25637819D02*
X66738095Y-25733057D01*
X66738095Y-25733057D02*
X66738095Y-25828295D01*
X66738095Y-25828295D02*
X66690476Y-25923533D01*
X66690476Y-25923533D02*
X66642857Y-25971152D01*
X66642857Y-25971152D02*
X66547619Y-26018771D01*
X66547619Y-26018771D02*
X66357143Y-26066390D01*
X66357143Y-26066390D02*
X66261905Y-26114009D01*
X66261905Y-26114009D02*
X66214286Y-26161628D01*
X66214286Y-26161628D02*
X66166667Y-26256866D01*
X66166667Y-26256866D02*
X66166667Y-26352104D01*
X66166667Y-26352104D02*
X66214286Y-26447342D01*
X66214286Y-26447342D02*
X66261905Y-26494961D01*
X66261905Y-26494961D02*
X66357143Y-26542580D01*
X66357143Y-26542580D02*
X66595238Y-26542580D01*
X66595238Y-26542580D02*
X66738095Y-26494961D01*
X67071429Y-26542580D02*
X67309524Y-25542580D01*
X67309524Y-25542580D02*
X67500000Y-26256866D01*
X67500000Y-26256866D02*
X67690476Y-25542580D01*
X67690476Y-25542580D02*
X67928572Y-26542580D01*
X68833333Y-25542580D02*
X68261905Y-25542580D01*
X68547619Y-25542580D02*
X68547619Y-26542580D01*
X68547619Y-26542580D02*
X68452381Y-26399723D01*
X68452381Y-26399723D02*
X68357143Y-26304485D01*
X68357143Y-26304485D02*
X68261905Y-26256866D01*
X66166667Y-37590200D02*
X66309524Y-37542580D01*
X66309524Y-37542580D02*
X66547619Y-37542580D01*
X66547619Y-37542580D02*
X66642857Y-37590200D01*
X66642857Y-37590200D02*
X66690476Y-37637819D01*
X66690476Y-37637819D02*
X66738095Y-37733057D01*
X66738095Y-37733057D02*
X66738095Y-37828295D01*
X66738095Y-37828295D02*
X66690476Y-37923533D01*
X66690476Y-37923533D02*
X66642857Y-37971152D01*
X66642857Y-37971152D02*
X66547619Y-38018771D01*
X66547619Y-38018771D02*
X66357143Y-38066390D01*
X66357143Y-38066390D02*
X66261905Y-38114009D01*
X66261905Y-38114009D02*
X66214286Y-38161628D01*
X66214286Y-38161628D02*
X66166667Y-38256866D01*
X66166667Y-38256866D02*
X66166667Y-38352104D01*
X66166667Y-38352104D02*
X66214286Y-38447342D01*
X66214286Y-38447342D02*
X66261905Y-38494961D01*
X66261905Y-38494961D02*
X66357143Y-38542580D01*
X66357143Y-38542580D02*
X66595238Y-38542580D01*
X66595238Y-38542580D02*
X66738095Y-38494961D01*
X67071429Y-38542580D02*
X67309524Y-37542580D01*
X67309524Y-37542580D02*
X67500000Y-38256866D01*
X67500000Y-38256866D02*
X67690476Y-37542580D01*
X67690476Y-37542580D02*
X67928572Y-38542580D01*
X68261905Y-38447342D02*
X68309524Y-38494961D01*
X68309524Y-38494961D02*
X68404762Y-38542580D01*
X68404762Y-38542580D02*
X68642857Y-38542580D01*
X68642857Y-38542580D02*
X68738095Y-38494961D01*
X68738095Y-38494961D02*
X68785714Y-38447342D01*
X68785714Y-38447342D02*
X68833333Y-38352104D01*
X68833333Y-38352104D02*
X68833333Y-38256866D01*
X68833333Y-38256866D02*
X68785714Y-38114009D01*
X68785714Y-38114009D02*
X68214286Y-37542580D01*
X68214286Y-37542580D02*
X68833333Y-37542580D01*
%TO.C,kibuzzard-656351D2*%
G36*
X54957764Y-33844873D02*
G01*
X55152431Y-33857375D01*
X55478663Y-33924050D01*
X55697738Y-34064544D01*
X55778700Y-34307431D01*
X55697738Y-34550319D01*
X55476281Y-34690812D01*
X55150050Y-34757487D01*
X54957169Y-34769989D01*
X54750000Y-34774156D01*
X54542236Y-34769989D01*
X54347569Y-34757487D01*
X54021338Y-34690812D01*
X53802263Y-34550319D01*
X53721300Y-34307431D01*
X53802263Y-34066925D01*
X54023719Y-33924050D01*
X54349950Y-33857375D01*
X54542831Y-33844873D01*
X54750000Y-33840706D01*
X54957764Y-33844873D01*
G37*
G36*
X54998030Y-25120054D02*
G01*
X55243671Y-25156491D01*
X55484558Y-25216830D01*
X55718371Y-25300490D01*
X55942858Y-25406664D01*
X56155857Y-25534331D01*
X56355316Y-25682260D01*
X56539316Y-25849028D01*
X56706084Y-26033027D01*
X56854013Y-26232487D01*
X56981680Y-26445486D01*
X57087854Y-26669973D01*
X57171514Y-26903786D01*
X57231853Y-27144673D01*
X57268290Y-27390314D01*
X57280475Y-27638344D01*
X57280475Y-28630531D01*
X57280475Y-35369469D01*
X57280475Y-36361656D01*
X57268290Y-36609686D01*
X57231853Y-36855327D01*
X57171514Y-37096214D01*
X57087854Y-37330027D01*
X56981680Y-37554514D01*
X56854013Y-37767513D01*
X56706084Y-37966973D01*
X56539316Y-38150972D01*
X56355316Y-38317740D01*
X56155857Y-38465669D01*
X55942858Y-38593336D01*
X55718371Y-38699510D01*
X55484558Y-38783170D01*
X55243671Y-38843509D01*
X54998030Y-38879946D01*
X54750000Y-38892131D01*
X54501970Y-38879946D01*
X54256329Y-38843509D01*
X54015442Y-38783170D01*
X53781629Y-38699510D01*
X53557142Y-38593336D01*
X53344143Y-38465669D01*
X53144684Y-38317740D01*
X52960684Y-38150972D01*
X52793916Y-37966973D01*
X52645987Y-37767513D01*
X52518320Y-37554514D01*
X52412146Y-37330027D01*
X52328486Y-37096214D01*
X52268147Y-36855327D01*
X52231710Y-36609686D01*
X52219525Y-36361656D01*
X52219525Y-35369469D01*
X52219525Y-34302669D01*
X53211713Y-34302669D01*
X53254840Y-34621492D01*
X53384221Y-34885810D01*
X53599856Y-35095625D01*
X53817294Y-35215432D01*
X54081464Y-35301008D01*
X54392366Y-35352354D01*
X54750000Y-35369469D01*
X55107634Y-35351907D01*
X55418536Y-35299222D01*
X55682706Y-35211413D01*
X55900144Y-35088481D01*
X56115779Y-34876815D01*
X56245160Y-34616465D01*
X56288288Y-34307431D01*
X56245160Y-33988873D01*
X56115779Y-33725348D01*
X55900144Y-33516856D01*
X55682706Y-33398091D01*
X55418536Y-33313259D01*
X55107634Y-33262360D01*
X54750000Y-33245394D01*
X54392366Y-33262658D01*
X54081464Y-33314450D01*
X53817294Y-33400770D01*
X53599856Y-33521619D01*
X53384221Y-33731169D01*
X53254840Y-33991519D01*
X53211713Y-34302669D01*
X52219525Y-34302669D01*
X52219525Y-32816769D01*
X53273625Y-32816769D01*
X56221613Y-32816769D01*
X56221613Y-31011781D01*
X55735838Y-31011781D01*
X55735838Y-32230981D01*
X55021463Y-32230981D01*
X55021463Y-31164181D01*
X54535688Y-31164181D01*
X54535688Y-32230981D01*
X53273625Y-32230981D01*
X53273625Y-32816769D01*
X52219525Y-32816769D01*
X52219525Y-30435519D01*
X53273625Y-30435519D01*
X56221613Y-30435519D01*
X56221613Y-28630531D01*
X55735838Y-28630531D01*
X55735838Y-29849731D01*
X55021463Y-29849731D01*
X55021463Y-28782931D01*
X54535688Y-28782931D01*
X54535688Y-29849731D01*
X53273625Y-29849731D01*
X53273625Y-30435519D01*
X52219525Y-30435519D01*
X52219525Y-28630531D01*
X52219525Y-27638344D01*
X52231710Y-27390314D01*
X52268147Y-27144673D01*
X52328486Y-26903786D01*
X52412146Y-26669973D01*
X52518320Y-26445486D01*
X52645987Y-26232487D01*
X52793916Y-26033027D01*
X52960684Y-25849028D01*
X53144684Y-25682260D01*
X53344143Y-25534331D01*
X53557142Y-25406664D01*
X53781629Y-25300490D01*
X54015442Y-25216830D01*
X54256329Y-25156491D01*
X54501970Y-25120054D01*
X54750000Y-25107869D01*
X54998030Y-25120054D01*
G37*
D11*
%TO.C,J2*%
X45950000Y-39850000D02*
X43350000Y-37000000D01*
X49100000Y-39850000D02*
X45950000Y-39850000D01*
X43350000Y-37000000D02*
X43350000Y-24150000D01*
X51650000Y-37000000D02*
X49100000Y-39850000D01*
X43350000Y-24150000D02*
X51650000Y-24150000D01*
X51650000Y-24150000D02*
X51650000Y-37000000D01*
%TO.C,kibuzzard-656351E7*%
G36*
X80457764Y-32682823D02*
G01*
X80652431Y-32695325D01*
X80978663Y-32762000D01*
X81197738Y-32902494D01*
X81278700Y-33145381D01*
X81197738Y-33388269D01*
X80976281Y-33528762D01*
X80650050Y-33595437D01*
X80457169Y-33607939D01*
X80250000Y-33612106D01*
X80042236Y-33607939D01*
X79847569Y-33595437D01*
X79521338Y-33528762D01*
X79302263Y-33388269D01*
X79221300Y-33145381D01*
X79302263Y-32904875D01*
X79523719Y-32762000D01*
X79849950Y-32695325D01*
X80042831Y-32682823D01*
X80250000Y-32678656D01*
X80457764Y-32682823D01*
G37*
G36*
X80498030Y-26282104D02*
G01*
X80743671Y-26318541D01*
X80984558Y-26378880D01*
X81218371Y-26462540D01*
X81442858Y-26568714D01*
X81655857Y-26696381D01*
X81855316Y-26844310D01*
X82039316Y-27011078D01*
X82206084Y-27195077D01*
X82354013Y-27394537D01*
X82481680Y-27607536D01*
X82587854Y-27832023D01*
X82671514Y-28065836D01*
X82731853Y-28306723D01*
X82768290Y-28552364D01*
X82780475Y-28800394D01*
X82780475Y-29792581D01*
X82780475Y-34207419D01*
X82780475Y-35199606D01*
X82768290Y-35447636D01*
X82731853Y-35693277D01*
X82671514Y-35934164D01*
X82587854Y-36167977D01*
X82481680Y-36392464D01*
X82354013Y-36605463D01*
X82206084Y-36804923D01*
X82039316Y-36988922D01*
X81855316Y-37155690D01*
X81655857Y-37303619D01*
X81442858Y-37431286D01*
X81218371Y-37537460D01*
X80984558Y-37621120D01*
X80743671Y-37681459D01*
X80498030Y-37717896D01*
X80250000Y-37730081D01*
X80001970Y-37717896D01*
X79756329Y-37681459D01*
X79515442Y-37621120D01*
X79281629Y-37537460D01*
X79057142Y-37431286D01*
X78844143Y-37303619D01*
X78644684Y-37155690D01*
X78460684Y-36988922D01*
X78293916Y-36804923D01*
X78145987Y-36605463D01*
X78018320Y-36392464D01*
X77912146Y-36167977D01*
X77828486Y-35934164D01*
X77768147Y-35693277D01*
X77731710Y-35447636D01*
X77719525Y-35199606D01*
X77719525Y-34207419D01*
X77719525Y-33140619D01*
X78711713Y-33140619D01*
X78754840Y-33459442D01*
X78884221Y-33723760D01*
X79099856Y-33933575D01*
X79317294Y-34053382D01*
X79581464Y-34138958D01*
X79892366Y-34190303D01*
X80250000Y-34207419D01*
X80607634Y-34189857D01*
X80918536Y-34137172D01*
X81182706Y-34049363D01*
X81400144Y-33926431D01*
X81615779Y-33714765D01*
X81745160Y-33454415D01*
X81788288Y-33145381D01*
X81745160Y-32826823D01*
X81615779Y-32563298D01*
X81400144Y-32354806D01*
X81182706Y-32236041D01*
X80918536Y-32151209D01*
X80607634Y-32100310D01*
X80250000Y-32083344D01*
X79892366Y-32100608D01*
X79581464Y-32152400D01*
X79317294Y-32238720D01*
X79099856Y-32359569D01*
X78884221Y-32569119D01*
X78754840Y-32829469D01*
X78711713Y-33140619D01*
X77719525Y-33140619D01*
X77719525Y-30264069D01*
X78773625Y-30264069D01*
X79100385Y-30401387D01*
X79426617Y-30546644D01*
X79752319Y-30699837D01*
X80078021Y-30860969D01*
X80404252Y-31030037D01*
X80731013Y-31207044D01*
X78773625Y-31207044D01*
X78773625Y-31735681D01*
X81721613Y-31735681D01*
X81721613Y-31264194D01*
X81503133Y-31130844D01*
X81266794Y-30997494D01*
X81022120Y-30865930D01*
X80778638Y-30737937D01*
X80539322Y-30616494D01*
X80307150Y-30504575D01*
X80092838Y-30405158D01*
X79907100Y-30321219D01*
X81721613Y-30321219D01*
X81721613Y-29792581D01*
X78773625Y-29792581D01*
X78773625Y-30264069D01*
X77719525Y-30264069D01*
X77719525Y-29792581D01*
X77719525Y-28800394D01*
X77731710Y-28552364D01*
X77768147Y-28306723D01*
X77828486Y-28065836D01*
X77912146Y-27832023D01*
X78018320Y-27607536D01*
X78145987Y-27394537D01*
X78293916Y-27195077D01*
X78460684Y-27011078D01*
X78644684Y-26844310D01*
X78844143Y-26696381D01*
X79057142Y-26568714D01*
X79281629Y-26462540D01*
X79515442Y-26378880D01*
X79756329Y-26318541D01*
X80001970Y-26282104D01*
X80250000Y-26269919D01*
X80498030Y-26282104D01*
G37*
%TO.C,kibuzzard-65635119*%
G36*
X70157475Y-66628462D02*
G01*
X70302731Y-66640369D01*
X70302731Y-67592869D01*
X70064606Y-67592869D01*
X69818147Y-67564889D01*
X69640744Y-67480950D01*
X69533587Y-67329145D01*
X69497869Y-67097569D01*
X69532992Y-66877898D01*
X69638363Y-66733237D01*
X69802073Y-66652870D01*
X70012219Y-66626081D01*
X70157475Y-66628462D01*
G37*
G36*
X63039919Y-67716694D02*
G01*
X63197081Y-67769081D01*
X63204225Y-67854806D01*
X63206606Y-67945294D01*
X63187556Y-68209613D01*
X63120881Y-68435831D01*
X62989913Y-68595375D01*
X62782744Y-68654906D01*
X62611294Y-68607281D01*
X62494612Y-68488219D01*
X62427937Y-68331056D01*
X62406506Y-68164369D01*
X62506519Y-67819088D01*
X62643441Y-67728005D01*
X62854181Y-67697644D01*
X63039919Y-67716694D01*
G37*
G36*
X67769677Y-67357720D02*
G01*
X67914338Y-67495237D01*
X68001848Y-67707764D01*
X68031019Y-67978631D01*
X68004230Y-68250094D01*
X67923863Y-68464406D01*
X67783964Y-68603709D01*
X67578581Y-68650144D01*
X67377961Y-68603709D01*
X67233300Y-68464406D01*
X67145789Y-68250094D01*
X67116619Y-67978631D01*
X67143408Y-67707764D01*
X67223775Y-67495237D01*
X67363673Y-67357720D01*
X67569056Y-67311881D01*
X67769677Y-67357720D01*
G37*
G36*
X76822177Y-64860851D02*
G01*
X77079607Y-64899037D01*
X77332055Y-64962272D01*
X77577089Y-65049947D01*
X77812350Y-65161216D01*
X78035571Y-65295010D01*
X78244603Y-65450039D01*
X78437433Y-65624810D01*
X78612205Y-65817641D01*
X78767234Y-66026673D01*
X78901027Y-66249894D01*
X79012297Y-66485155D01*
X79099972Y-66730189D01*
X79163207Y-66982636D01*
X79201393Y-67240067D01*
X79214162Y-67500000D01*
X79201393Y-67759933D01*
X79163207Y-68017364D01*
X79099972Y-68269811D01*
X79012297Y-68514845D01*
X78901027Y-68750106D01*
X78767234Y-68973327D01*
X78612205Y-69182359D01*
X78437433Y-69375190D01*
X78244603Y-69549961D01*
X78035571Y-69704990D01*
X77812350Y-69838784D01*
X77577089Y-69950053D01*
X77332055Y-70037728D01*
X77079607Y-70100963D01*
X76822177Y-70139149D01*
X76562244Y-70151919D01*
X75570056Y-70151919D01*
X73717444Y-70151919D01*
X71936269Y-70151919D01*
X70302731Y-70151919D01*
X67569056Y-70151919D01*
X62768456Y-70151919D01*
X60515794Y-70151919D01*
X59429944Y-70151919D01*
X58437756Y-70151919D01*
X58177823Y-70139149D01*
X57920393Y-70100963D01*
X57667945Y-70037728D01*
X57422911Y-69950053D01*
X57187650Y-69838784D01*
X56964429Y-69704990D01*
X56755397Y-69549961D01*
X56562567Y-69375190D01*
X56387795Y-69182359D01*
X56232766Y-68973327D01*
X56098973Y-68750106D01*
X55987703Y-68514845D01*
X55908309Y-68292956D01*
X59429944Y-68292956D01*
X59497214Y-68660264D01*
X59699025Y-68933513D01*
X59909369Y-69059190D01*
X60181625Y-69134596D01*
X60515794Y-69159731D01*
X60845597Y-69140086D01*
X61101581Y-69081150D01*
X61430194Y-68935894D01*
X61258744Y-68459644D01*
X60951563Y-68602519D01*
X60753323Y-68652525D01*
X60515794Y-68669194D01*
X60270525Y-68638238D01*
X60115744Y-68552512D01*
X60037162Y-68428687D01*
X60015731Y-68288194D01*
X60058874Y-68154844D01*
X61835006Y-68154844D01*
X61889775Y-68502506D01*
X62058844Y-68826356D01*
X62349356Y-69066863D01*
X62542238Y-69136514D01*
X62768456Y-69159731D01*
X63072462Y-69125600D01*
X63324081Y-69023206D01*
X63523313Y-68852550D01*
X63667510Y-68609398D01*
X63754029Y-68289517D01*
X63776982Y-67973869D01*
X66516544Y-67973869D01*
X66535594Y-68228067D01*
X66592744Y-68457262D01*
X66684422Y-68659073D01*
X66807056Y-68831119D01*
X66958861Y-68970422D01*
X67138050Y-69074006D01*
X67342242Y-69138300D01*
X67569056Y-69159731D01*
X67795870Y-69138300D01*
X68000063Y-69074006D01*
X68179847Y-68970422D01*
X68333438Y-68831119D01*
X68457858Y-68659073D01*
X68550131Y-68457262D01*
X68607281Y-68228067D01*
X68626331Y-67973869D01*
X68606686Y-67723242D01*
X68547750Y-67495237D01*
X68453691Y-67294022D01*
X68328675Y-67123762D01*
X68304542Y-67102331D01*
X68897794Y-67102331D01*
X68932454Y-67422212D01*
X69036435Y-67677006D01*
X69209738Y-67866712D01*
X69446540Y-67997681D01*
X69741021Y-68076262D01*
X70093181Y-68102456D01*
X70302731Y-68102456D01*
X70302731Y-69097819D01*
X70888519Y-69097819D01*
X70888519Y-69002569D01*
X71302856Y-69002569D01*
X71643375Y-69119250D01*
X71936269Y-69150206D01*
X72146414Y-69133537D01*
X72270152Y-69097819D01*
X73717444Y-69097819D01*
X75570056Y-69097819D01*
X75570056Y-66149831D01*
X74979506Y-66149831D01*
X74979506Y-68612044D01*
X73717444Y-68612044D01*
X73717444Y-69097819D01*
X72270152Y-69097819D01*
X72319650Y-69083531D01*
X72567300Y-68890650D01*
X72698269Y-68583469D01*
X72726844Y-68389397D01*
X72736369Y-68169131D01*
X72736369Y-67345219D01*
X73355494Y-67345219D01*
X73355494Y-66859444D01*
X72545869Y-66859444D01*
X72150581Y-66859444D01*
X72150581Y-68245331D01*
X72076763Y-68542988D01*
X71831494Y-68640619D01*
X71636231Y-68619188D01*
X71379056Y-68531081D01*
X71302856Y-69002569D01*
X70888519Y-69002569D01*
X70888519Y-66216506D01*
X72174394Y-66216506D01*
X72283931Y-66487969D01*
X72545869Y-66587981D01*
X72805425Y-66487969D01*
X72912581Y-66216506D01*
X72805425Y-65940281D01*
X72545869Y-65840269D01*
X72283931Y-65940281D01*
X72174394Y-66216506D01*
X70888519Y-66216506D01*
X70888519Y-66187931D01*
X70695637Y-66154594D01*
X70478944Y-66133162D01*
X70264631Y-66121256D01*
X70078894Y-66116494D01*
X69732290Y-66142158D01*
X69441777Y-66219152D01*
X69207356Y-66347475D01*
X69035377Y-66534006D01*
X68932190Y-66785625D01*
X68897794Y-67102331D01*
X68304542Y-67102331D01*
X68174489Y-66986841D01*
X67992919Y-66885637D01*
X67789322Y-66823130D01*
X67569056Y-66802294D01*
X67345814Y-66823130D01*
X67142813Y-66885637D01*
X66963028Y-66986841D01*
X66809437Y-67123762D01*
X66685017Y-67294022D01*
X66592744Y-67495237D01*
X66535594Y-67723242D01*
X66516544Y-67973869D01*
X63776982Y-67973869D01*
X63782869Y-67892906D01*
X63751317Y-67489284D01*
X63656662Y-67135669D01*
X63503667Y-66833250D01*
X63297094Y-66583219D01*
X63039919Y-66386766D01*
X62735119Y-66245081D01*
X62388647Y-66159356D01*
X62006456Y-66130781D01*
X61973119Y-66630844D01*
X62344594Y-66668944D01*
X62677969Y-66780862D01*
X62942287Y-66983269D01*
X63106594Y-67292831D01*
X62930381Y-67233300D01*
X62777981Y-67211869D01*
X62540452Y-67230919D01*
X62342212Y-67288069D01*
X62049319Y-67492856D01*
X61885012Y-67792894D01*
X61835006Y-68154844D01*
X60058874Y-68154844D01*
X60068119Y-68126269D01*
X60201469Y-68000062D01*
X60382444Y-67900050D01*
X60582469Y-67816706D01*
X60858694Y-67707169D01*
X61118250Y-67550006D01*
X61311131Y-67314263D01*
X61387331Y-66964219D01*
X61320061Y-66595125D01*
X61118250Y-66316519D01*
X60916373Y-66186873D01*
X60669517Y-66109085D01*
X60377681Y-66083156D01*
X60123483Y-66098634D01*
X59903812Y-66145069D01*
X59563294Y-66283181D01*
X59734744Y-66735619D01*
X59999063Y-66621319D01*
X60334819Y-66573694D01*
X60594110Y-66611265D01*
X60749685Y-66723977D01*
X60801544Y-66911831D01*
X60753919Y-67061850D01*
X60632475Y-67176150D01*
X60465788Y-67264256D01*
X60282431Y-67335694D01*
X59994300Y-67452375D01*
X59718075Y-67623825D01*
X59510906Y-67890525D01*
X59450184Y-68070905D01*
X59429944Y-68292956D01*
X55908309Y-68292956D01*
X55900028Y-68269811D01*
X55836793Y-68017364D01*
X55798607Y-67759933D01*
X55785837Y-67500000D01*
X55798607Y-67240067D01*
X55836793Y-66982636D01*
X55900028Y-66730189D01*
X55987703Y-66485155D01*
X56098973Y-66249894D01*
X56232766Y-66026673D01*
X56387795Y-65817641D01*
X56562567Y-65624810D01*
X56755397Y-65450039D01*
X56964429Y-65295010D01*
X57187650Y-65161216D01*
X57422911Y-65049947D01*
X57667945Y-64962272D01*
X57920393Y-64899037D01*
X58177823Y-64860851D01*
X58437756Y-64848081D01*
X59429944Y-64848081D01*
X75570056Y-64848081D01*
X76562244Y-64848081D01*
X76822177Y-64860851D01*
G37*
%TO.C,kibuzzard-65634FCA*%
G36*
X97966181Y-33671638D02*
G01*
X97966181Y-34143125D01*
X97966181Y-35135313D01*
X97954306Y-35377041D01*
X97918794Y-35616441D01*
X97859988Y-35851207D01*
X97778454Y-36079079D01*
X97674978Y-36297862D01*
X97550555Y-36505449D01*
X97406384Y-36699841D01*
X97243853Y-36879166D01*
X97064529Y-37041696D01*
X96870137Y-37185867D01*
X96662550Y-37310290D01*
X96443767Y-37413767D01*
X96215895Y-37495301D01*
X95981128Y-37554107D01*
X95741728Y-37589618D01*
X95500000Y-37601494D01*
X95258272Y-37589618D01*
X95018872Y-37554107D01*
X94784105Y-37495301D01*
X94556233Y-37413767D01*
X94337450Y-37310290D01*
X94129863Y-37185867D01*
X93935471Y-37041696D01*
X93756147Y-36879166D01*
X93593616Y-36699841D01*
X93449445Y-36505449D01*
X93325022Y-36297862D01*
X93221546Y-36079079D01*
X93140012Y-35851207D01*
X93081206Y-35616441D01*
X93045694Y-35377041D01*
X93033819Y-35135313D01*
X93033819Y-34143125D01*
X94026006Y-34143125D01*
X96973994Y-34143125D01*
X96973994Y-33671638D01*
X96647233Y-33534319D01*
X96321002Y-33389063D01*
X95995300Y-33235869D01*
X95669598Y-33074738D01*
X95343367Y-32905669D01*
X95016606Y-32728663D01*
X96973994Y-32728663D01*
X96973994Y-32200025D01*
X94026006Y-32200025D01*
X94026006Y-32671513D01*
X94244486Y-32804863D01*
X94480825Y-32938213D01*
X94725498Y-33069777D01*
X94968981Y-33197769D01*
X95208297Y-33319213D01*
X95440469Y-33431131D01*
X95654781Y-33530548D01*
X95840519Y-33614488D01*
X94026006Y-33614488D01*
X94026006Y-34143125D01*
X93033819Y-34143125D01*
X93033819Y-31728538D01*
X94026006Y-31728538D01*
X94511781Y-31728538D01*
X94511781Y-31090363D01*
X96488219Y-31090363D01*
X96488219Y-31728538D01*
X96973994Y-31728538D01*
X96973994Y-29856875D01*
X96488219Y-29856875D01*
X96488219Y-30499813D01*
X94511781Y-30499813D01*
X94511781Y-29856875D01*
X94026006Y-29856875D01*
X94026006Y-31728538D01*
X93033819Y-31728538D01*
X93033819Y-29856875D01*
X93033819Y-28864688D01*
X93045694Y-28622960D01*
X93081206Y-28383559D01*
X93140012Y-28148793D01*
X93221546Y-27920921D01*
X93325022Y-27702138D01*
X93449445Y-27494551D01*
X93593616Y-27300159D01*
X93756147Y-27120834D01*
X93935471Y-26958304D01*
X94129863Y-26814133D01*
X94337450Y-26689710D01*
X94556233Y-26586233D01*
X94784105Y-26504699D01*
X95018872Y-26445893D01*
X95258272Y-26410382D01*
X95500000Y-26398506D01*
X95741728Y-26410382D01*
X95981128Y-26445893D01*
X96215895Y-26504699D01*
X96443767Y-26586233D01*
X96662550Y-26689710D01*
X96870137Y-26814133D01*
X97064529Y-26958304D01*
X97243853Y-27120834D01*
X97406384Y-27300159D01*
X97550555Y-27494551D01*
X97674978Y-27702138D01*
X97778454Y-27920921D01*
X97859988Y-28148793D01*
X97918794Y-28383559D01*
X97954306Y-28622960D01*
X97966181Y-28864688D01*
X97966181Y-29856875D01*
X97966181Y-33671638D01*
G37*
D10*
%TO.C,SW1*%
X57900000Y-20600000D02*
X77000000Y-20600000D01*
X77000000Y-20600000D02*
X77000000Y-31400000D01*
X77000000Y-31400000D02*
X57900000Y-31400000D01*
X57900000Y-31400000D02*
X57900000Y-20600000D01*
D11*
%TO.C,J1*%
X85950000Y-39850000D02*
X83350000Y-37000000D01*
X89100000Y-39850000D02*
X85950000Y-39850000D01*
X83350000Y-37000000D02*
X83350000Y-24150000D01*
X91650000Y-37000000D02*
X89100000Y-39850000D01*
X83350000Y-24150000D02*
X91650000Y-24150000D01*
X91650000Y-24150000D02*
X91650000Y-37000000D01*
D10*
%TO.C,SW2*%
X57900000Y-32600000D02*
X77000000Y-32600000D01*
X77000000Y-32600000D02*
X77000000Y-43400000D01*
X77000000Y-43400000D02*
X57900000Y-43400000D01*
X57900000Y-43400000D02*
X57900000Y-32600000D01*
%TO.C,kibuzzard-656351C1*%
G36*
X39957764Y-29151430D02*
G01*
X40152431Y-29163931D01*
X40478662Y-29230606D01*
X40697737Y-29371100D01*
X40778700Y-29613988D01*
X40697737Y-29854494D01*
X40476281Y-29997369D01*
X40150050Y-30064044D01*
X39957169Y-30076545D01*
X39750000Y-30080713D01*
X39542236Y-30076545D01*
X39347569Y-30064044D01*
X39021337Y-29997369D01*
X38802262Y-29856875D01*
X38721300Y-29613988D01*
X38802262Y-29371100D01*
X39023719Y-29230606D01*
X39349950Y-29163931D01*
X39542831Y-29151430D01*
X39750000Y-29147263D01*
X39957764Y-29151430D01*
G37*
G36*
X42280475Y-31985713D02*
G01*
X42280475Y-34671763D01*
X42280475Y-35448050D01*
X42280475Y-36440237D01*
X42268290Y-36688267D01*
X42231853Y-36933909D01*
X42171514Y-37174796D01*
X42087854Y-37408608D01*
X41981680Y-37633095D01*
X41854013Y-37846094D01*
X41706084Y-38045554D01*
X41539316Y-38229554D01*
X41355316Y-38396321D01*
X41155857Y-38544251D01*
X40942858Y-38671917D01*
X40718371Y-38778092D01*
X40484558Y-38861751D01*
X40243671Y-38922090D01*
X39998030Y-38958528D01*
X39750000Y-38970713D01*
X39501970Y-38958528D01*
X39256329Y-38922090D01*
X39015442Y-38861751D01*
X38781629Y-38778092D01*
X38557142Y-38671917D01*
X38344143Y-38544251D01*
X38144684Y-38396321D01*
X37960684Y-38229554D01*
X37793916Y-38045554D01*
X37645987Y-37846094D01*
X37518320Y-37633095D01*
X37412146Y-37408608D01*
X37328486Y-37174796D01*
X37268147Y-36933909D01*
X37231710Y-36688267D01*
X37219525Y-36440237D01*
X37219525Y-35448050D01*
X38278387Y-35448050D01*
X38764162Y-35448050D01*
X38764162Y-34671763D01*
X41226375Y-34671763D01*
X41226375Y-34081213D01*
X38764162Y-34081213D01*
X38764162Y-33304925D01*
X38278387Y-33304925D01*
X38278387Y-35448050D01*
X37219525Y-35448050D01*
X37219525Y-33000125D01*
X38278387Y-33000125D01*
X40159575Y-33000125D01*
X40404844Y-32988219D01*
X40626300Y-32952500D01*
X40820372Y-32887016D01*
X40983487Y-32785813D01*
X41113861Y-32647700D01*
X41209706Y-32471488D01*
X41268642Y-32252413D01*
X41288287Y-31985713D01*
X41268642Y-31723180D01*
X41209706Y-31507081D01*
X40983487Y-31199900D01*
X40820372Y-31102269D01*
X40626300Y-31037975D01*
X40404844Y-31002256D01*
X40159575Y-30990350D01*
X38278387Y-30990350D01*
X38278387Y-31580900D01*
X40121475Y-31580900D01*
X40433419Y-31599950D01*
X40635825Y-31664244D01*
X40745362Y-31790450D01*
X40778700Y-31995238D01*
X40745362Y-32200025D01*
X40633444Y-32328613D01*
X40428656Y-32395288D01*
X40116712Y-32414338D01*
X38278387Y-32414338D01*
X38278387Y-33000125D01*
X37219525Y-33000125D01*
X37219525Y-29613988D01*
X38211712Y-29613988D01*
X38254840Y-29932546D01*
X38384221Y-30196071D01*
X38599856Y-30404563D01*
X38817294Y-30523327D01*
X39081464Y-30608159D01*
X39392366Y-30659059D01*
X39750000Y-30676025D01*
X40107634Y-30658761D01*
X40418536Y-30606969D01*
X40682706Y-30520648D01*
X40900144Y-30399800D01*
X41115779Y-30190250D01*
X41245160Y-29929900D01*
X41288287Y-29618750D01*
X41245160Y-29299927D01*
X41115779Y-29035608D01*
X40900144Y-28825794D01*
X40682706Y-28705987D01*
X40418536Y-28620411D01*
X40107634Y-28569065D01*
X39750000Y-28551950D01*
X39392366Y-28569512D01*
X39081464Y-28622197D01*
X38817294Y-28710005D01*
X38599856Y-28832938D01*
X38384221Y-29044604D01*
X38254840Y-29304954D01*
X38211712Y-29613988D01*
X37219525Y-29613988D01*
X37219525Y-28551950D01*
X37219525Y-27559763D01*
X37231710Y-27311733D01*
X37268147Y-27066091D01*
X37328486Y-26825204D01*
X37412146Y-26591392D01*
X37518320Y-26366905D01*
X37645987Y-26153906D01*
X37793916Y-25954446D01*
X37960684Y-25770446D01*
X38144684Y-25603679D01*
X38344143Y-25455749D01*
X38557142Y-25328083D01*
X38781629Y-25221908D01*
X39015442Y-25138249D01*
X39256329Y-25077910D01*
X39501970Y-25041472D01*
X39750000Y-25029288D01*
X39998030Y-25041472D01*
X40243671Y-25077910D01*
X40484558Y-25138249D01*
X40718371Y-25221908D01*
X40942858Y-25328083D01*
X41155857Y-25455749D01*
X41355316Y-25603679D01*
X41539316Y-25770446D01*
X41706084Y-25954446D01*
X41854013Y-26153906D01*
X41981680Y-26366905D01*
X42087854Y-26591392D01*
X42171514Y-26825204D01*
X42231853Y-27066091D01*
X42268290Y-27311733D01*
X42280475Y-27559763D01*
X42280475Y-28551950D01*
X42280475Y-29618750D01*
X42280475Y-31985713D01*
G37*
%TD*%
%LPC*%
D12*
%TO.C,H2*%
X110000000Y-25000000D03*
%TD*%
%TO.C,H1*%
X25000000Y-25000000D03*
%TD*%
%TO.C,H3*%
X25000000Y-110000000D03*
%TD*%
%TO.C,H4*%
X110000000Y-110000000D03*
%TD*%
D13*
%TO.C,J2*%
X47500000Y-35600000D03*
D14*
X47500000Y-28400000D03*
%TD*%
D15*
%TO.C,SW1*%
X62900000Y-28850000D03*
X67500000Y-28850000D03*
X62900000Y-23150000D03*
X67500000Y-23150000D03*
%TD*%
D13*
%TO.C,J1*%
X87500000Y-35600000D03*
D14*
X87500000Y-28400000D03*
%TD*%
D15*
%TO.C,SW2*%
X62900000Y-40850000D03*
X67500000Y-40850000D03*
X62900000Y-35150000D03*
X67500000Y-35150000D03*
%TD*%
%LPD*%
M02*
