%TF.GenerationSoftware,KiCad,Pcbnew,7.0.8*%
%TF.CreationDate,2024-01-29T21:48:59+01:00*%
%TF.ProjectId,cube-batteryboard,63756265-2d62-4617-9474-657279626f61,rev?*%
%TF.SameCoordinates,Original*%
%TF.FileFunction,Drillmap*%
%TF.FilePolarity,Positive*%
%FSLAX45Y45*%
G04 Gerber Fmt 4.5, Leading zero omitted, Abs format (unit mm)*
G04 Created by KiCad (PCBNEW 7.0.8) date 2024-01-29 21:48:59*
%MOMM*%
%LPD*%
G01*
G04 APERTURE LIST*
%ADD10C,0.100000*%
%ADD11C,0.200000*%
%ADD12C,0.165000*%
%ADD13C,0.320000*%
%ADD14C,0.450000*%
G04 APERTURE END LIST*
D10*
X5400000Y-4550000D02*
G75*
G03*
X5400000Y-4250000I0J150000D01*
G01*
X5400000Y-4250000D02*
X3150000Y-4250000D01*
X10350000Y-4550000D02*
X8100000Y-4550000D01*
X8100000Y-8950000D02*
G75*
G03*
X8100000Y-9250000I0J-150000D01*
G01*
X2000000Y-2000000D02*
X11500000Y-2000000D01*
X11500000Y-11500000D01*
X2000000Y-11500000D01*
X2000000Y-2000000D01*
X8100000Y-4250000D02*
G75*
G03*
X8100000Y-4550000I0J-150000D01*
G01*
X10350000Y-4250000D02*
X8100000Y-4250000D01*
X5400000Y-8950000D02*
X3150000Y-8950000D01*
X3150000Y-4250000D02*
G75*
G03*
X3150000Y-4550000I0J-150000D01*
G01*
X10350000Y-9250000D02*
G75*
G03*
X10350000Y-8950000I0J150000D01*
G01*
X10350000Y-9250000D02*
X8100000Y-9250000D01*
X5400000Y-9250000D02*
X3150000Y-9250000D01*
X3150000Y-8950000D02*
G75*
G03*
X3150000Y-9250000I0J-150000D01*
G01*
X10350000Y-4550000D02*
G75*
G03*
X10350000Y-4250000I0J150000D01*
G01*
X10350000Y-8950000D02*
X8100000Y-8950000D01*
X5400000Y-9250000D02*
G75*
G03*
X5400000Y-8950000I0J150000D01*
G01*
X5400000Y-4550000D02*
X3150000Y-4550000D01*
D11*
D12*
X6207500Y-2232500D02*
X6372500Y-2397500D01*
X6372500Y-2232500D02*
X6207500Y-2397500D01*
X6207500Y-2802500D02*
X6372500Y-2967500D01*
X6372500Y-2802500D02*
X6207500Y-2967500D01*
X6207500Y-3432500D02*
X6372500Y-3597500D01*
X6372500Y-3432500D02*
X6207500Y-3597500D01*
X6207500Y-4002500D02*
X6372500Y-4167500D01*
X6372500Y-4002500D02*
X6207500Y-4167500D01*
X6667500Y-2232500D02*
X6832500Y-2397500D01*
X6832500Y-2232500D02*
X6667500Y-2397500D01*
X6667500Y-2802500D02*
X6832500Y-2967500D01*
X6832500Y-2802500D02*
X6667500Y-2967500D01*
X6667500Y-3432500D02*
X6832500Y-3597500D01*
X6832500Y-3432500D02*
X6667500Y-3597500D01*
X6667500Y-4002500D02*
X6832500Y-4167500D01*
X6832500Y-4002500D02*
X6667500Y-4167500D01*
D13*
X2660000Y-2500000D02*
G75*
G03*
X2660000Y-2500000I-160000J0D01*
G01*
X2660000Y-11000000D02*
G75*
G03*
X2660000Y-11000000I-160000J0D01*
G01*
X11160000Y-2500000D02*
G75*
G03*
X11160000Y-2500000I-160000J0D01*
G01*
X11160000Y-11000000D02*
G75*
G03*
X11160000Y-11000000I-160000J0D01*
G01*
D14*
X4750000Y-2615000D02*
X4750000Y-3065000D01*
X4525000Y-2840000D02*
X4975000Y-2840000D01*
X4750000Y-3335000D02*
X4750000Y-3785000D01*
X4525000Y-3560000D02*
X4975000Y-3560000D01*
X8750000Y-2615000D02*
X8750000Y-3065000D01*
X8525000Y-2840000D02*
X8975000Y-2840000D01*
X8750000Y-3335000D02*
X8750000Y-3785000D01*
X8525000Y-3560000D02*
X8975000Y-3560000D01*
D11*
X2255777Y-11816484D02*
X2255777Y-11616484D01*
X2255777Y-11616484D02*
X2303396Y-11616484D01*
X2303396Y-11616484D02*
X2331967Y-11626008D01*
X2331967Y-11626008D02*
X2351015Y-11645055D01*
X2351015Y-11645055D02*
X2360539Y-11664103D01*
X2360539Y-11664103D02*
X2370063Y-11702198D01*
X2370063Y-11702198D02*
X2370063Y-11730769D01*
X2370063Y-11730769D02*
X2360539Y-11768865D01*
X2360539Y-11768865D02*
X2351015Y-11787912D01*
X2351015Y-11787912D02*
X2331967Y-11806960D01*
X2331967Y-11806960D02*
X2303396Y-11816484D01*
X2303396Y-11816484D02*
X2255777Y-11816484D01*
X2455777Y-11816484D02*
X2455777Y-11683150D01*
X2455777Y-11721246D02*
X2465301Y-11702198D01*
X2465301Y-11702198D02*
X2474824Y-11692674D01*
X2474824Y-11692674D02*
X2493872Y-11683150D01*
X2493872Y-11683150D02*
X2512920Y-11683150D01*
X2579586Y-11816484D02*
X2579586Y-11683150D01*
X2579586Y-11616484D02*
X2570063Y-11626008D01*
X2570063Y-11626008D02*
X2579586Y-11635531D01*
X2579586Y-11635531D02*
X2589110Y-11626008D01*
X2589110Y-11626008D02*
X2579586Y-11616484D01*
X2579586Y-11616484D02*
X2579586Y-11635531D01*
X2703396Y-11816484D02*
X2684348Y-11806960D01*
X2684348Y-11806960D02*
X2674824Y-11787912D01*
X2674824Y-11787912D02*
X2674824Y-11616484D01*
X2808158Y-11816484D02*
X2789110Y-11806960D01*
X2789110Y-11806960D02*
X2779586Y-11787912D01*
X2779586Y-11787912D02*
X2779586Y-11616484D01*
X3036729Y-11816484D02*
X3036729Y-11616484D01*
X3036729Y-11616484D02*
X3103396Y-11759341D01*
X3103396Y-11759341D02*
X3170062Y-11616484D01*
X3170062Y-11616484D02*
X3170062Y-11816484D01*
X3351015Y-11816484D02*
X3351015Y-11711722D01*
X3351015Y-11711722D02*
X3341491Y-11692674D01*
X3341491Y-11692674D02*
X3322443Y-11683150D01*
X3322443Y-11683150D02*
X3284348Y-11683150D01*
X3284348Y-11683150D02*
X3265301Y-11692674D01*
X3351015Y-11806960D02*
X3331967Y-11816484D01*
X3331967Y-11816484D02*
X3284348Y-11816484D01*
X3284348Y-11816484D02*
X3265301Y-11806960D01*
X3265301Y-11806960D02*
X3255777Y-11787912D01*
X3255777Y-11787912D02*
X3255777Y-11768865D01*
X3255777Y-11768865D02*
X3265301Y-11749817D01*
X3265301Y-11749817D02*
X3284348Y-11740293D01*
X3284348Y-11740293D02*
X3331967Y-11740293D01*
X3331967Y-11740293D02*
X3351015Y-11730769D01*
X3446253Y-11683150D02*
X3446253Y-11883150D01*
X3446253Y-11692674D02*
X3465301Y-11683150D01*
X3465301Y-11683150D02*
X3503396Y-11683150D01*
X3503396Y-11683150D02*
X3522443Y-11692674D01*
X3522443Y-11692674D02*
X3531967Y-11702198D01*
X3531967Y-11702198D02*
X3541491Y-11721246D01*
X3541491Y-11721246D02*
X3541491Y-11778388D01*
X3541491Y-11778388D02*
X3531967Y-11797436D01*
X3531967Y-11797436D02*
X3522443Y-11806960D01*
X3522443Y-11806960D02*
X3503396Y-11816484D01*
X3503396Y-11816484D02*
X3465301Y-11816484D01*
X3465301Y-11816484D02*
X3446253Y-11806960D01*
X3627205Y-11797436D02*
X3636729Y-11806960D01*
X3636729Y-11806960D02*
X3627205Y-11816484D01*
X3627205Y-11816484D02*
X3617682Y-11806960D01*
X3617682Y-11806960D02*
X3627205Y-11797436D01*
X3627205Y-11797436D02*
X3627205Y-11816484D01*
X3627205Y-11692674D02*
X3636729Y-11702198D01*
X3636729Y-11702198D02*
X3627205Y-11711722D01*
X3627205Y-11711722D02*
X3617682Y-11702198D01*
X3617682Y-11702198D02*
X3627205Y-11692674D01*
X3627205Y-11692674D02*
X3627205Y-11711722D01*
D12*
X1830000Y-12062500D02*
X1995000Y-12227500D01*
X1995000Y-12062500D02*
X1830000Y-12227500D01*
D11*
X2360539Y-12236484D02*
X2246253Y-12236484D01*
X2303396Y-12236484D02*
X2303396Y-12036484D01*
X2303396Y-12036484D02*
X2284348Y-12065055D01*
X2284348Y-12065055D02*
X2265301Y-12084103D01*
X2265301Y-12084103D02*
X2246253Y-12093627D01*
X2446253Y-12217436D02*
X2455777Y-12226960D01*
X2455777Y-12226960D02*
X2446253Y-12236484D01*
X2446253Y-12236484D02*
X2436729Y-12226960D01*
X2436729Y-12226960D02*
X2446253Y-12217436D01*
X2446253Y-12217436D02*
X2446253Y-12236484D01*
X2627205Y-12036484D02*
X2589110Y-12036484D01*
X2589110Y-12036484D02*
X2570063Y-12046008D01*
X2570063Y-12046008D02*
X2560539Y-12055531D01*
X2560539Y-12055531D02*
X2541491Y-12084103D01*
X2541491Y-12084103D02*
X2531967Y-12122198D01*
X2531967Y-12122198D02*
X2531967Y-12198388D01*
X2531967Y-12198388D02*
X2541491Y-12217436D01*
X2541491Y-12217436D02*
X2551015Y-12226960D01*
X2551015Y-12226960D02*
X2570063Y-12236484D01*
X2570063Y-12236484D02*
X2608158Y-12236484D01*
X2608158Y-12236484D02*
X2627205Y-12226960D01*
X2627205Y-12226960D02*
X2636729Y-12217436D01*
X2636729Y-12217436D02*
X2646253Y-12198388D01*
X2646253Y-12198388D02*
X2646253Y-12150769D01*
X2646253Y-12150769D02*
X2636729Y-12131722D01*
X2636729Y-12131722D02*
X2627205Y-12122198D01*
X2627205Y-12122198D02*
X2608158Y-12112674D01*
X2608158Y-12112674D02*
X2570063Y-12112674D01*
X2570063Y-12112674D02*
X2551015Y-12122198D01*
X2551015Y-12122198D02*
X2541491Y-12131722D01*
X2541491Y-12131722D02*
X2531967Y-12150769D01*
X2827205Y-12036484D02*
X2731967Y-12036484D01*
X2731967Y-12036484D02*
X2722444Y-12131722D01*
X2722444Y-12131722D02*
X2731967Y-12122198D01*
X2731967Y-12122198D02*
X2751015Y-12112674D01*
X2751015Y-12112674D02*
X2798634Y-12112674D01*
X2798634Y-12112674D02*
X2817682Y-12122198D01*
X2817682Y-12122198D02*
X2827205Y-12131722D01*
X2827205Y-12131722D02*
X2836729Y-12150769D01*
X2836729Y-12150769D02*
X2836729Y-12198388D01*
X2836729Y-12198388D02*
X2827205Y-12217436D01*
X2827205Y-12217436D02*
X2817682Y-12226960D01*
X2817682Y-12226960D02*
X2798634Y-12236484D01*
X2798634Y-12236484D02*
X2751015Y-12236484D01*
X2751015Y-12236484D02*
X2731967Y-12226960D01*
X2731967Y-12226960D02*
X2722444Y-12217436D01*
X2960539Y-12036484D02*
X2979586Y-12036484D01*
X2979586Y-12036484D02*
X2998634Y-12046008D01*
X2998634Y-12046008D02*
X3008158Y-12055531D01*
X3008158Y-12055531D02*
X3017682Y-12074579D01*
X3017682Y-12074579D02*
X3027205Y-12112674D01*
X3027205Y-12112674D02*
X3027205Y-12160293D01*
X3027205Y-12160293D02*
X3017682Y-12198388D01*
X3017682Y-12198388D02*
X3008158Y-12217436D01*
X3008158Y-12217436D02*
X2998634Y-12226960D01*
X2998634Y-12226960D02*
X2979586Y-12236484D01*
X2979586Y-12236484D02*
X2960539Y-12236484D01*
X2960539Y-12236484D02*
X2941491Y-12226960D01*
X2941491Y-12226960D02*
X2931967Y-12217436D01*
X2931967Y-12217436D02*
X2922443Y-12198388D01*
X2922443Y-12198388D02*
X2912920Y-12160293D01*
X2912920Y-12160293D02*
X2912920Y-12112674D01*
X2912920Y-12112674D02*
X2922443Y-12074579D01*
X2922443Y-12074579D02*
X2931967Y-12055531D01*
X2931967Y-12055531D02*
X2941491Y-12046008D01*
X2941491Y-12046008D02*
X2960539Y-12036484D01*
X3112920Y-12236484D02*
X3112920Y-12103150D01*
X3112920Y-12122198D02*
X3122443Y-12112674D01*
X3122443Y-12112674D02*
X3141491Y-12103150D01*
X3141491Y-12103150D02*
X3170063Y-12103150D01*
X3170063Y-12103150D02*
X3189110Y-12112674D01*
X3189110Y-12112674D02*
X3198634Y-12131722D01*
X3198634Y-12131722D02*
X3198634Y-12236484D01*
X3198634Y-12131722D02*
X3208158Y-12112674D01*
X3208158Y-12112674D02*
X3227205Y-12103150D01*
X3227205Y-12103150D02*
X3255777Y-12103150D01*
X3255777Y-12103150D02*
X3274824Y-12112674D01*
X3274824Y-12112674D02*
X3284348Y-12131722D01*
X3284348Y-12131722D02*
X3284348Y-12236484D01*
X3379586Y-12236484D02*
X3379586Y-12103150D01*
X3379586Y-12122198D02*
X3389110Y-12112674D01*
X3389110Y-12112674D02*
X3408158Y-12103150D01*
X3408158Y-12103150D02*
X3436729Y-12103150D01*
X3436729Y-12103150D02*
X3455777Y-12112674D01*
X3455777Y-12112674D02*
X3465301Y-12131722D01*
X3465301Y-12131722D02*
X3465301Y-12236484D01*
X3465301Y-12131722D02*
X3474824Y-12112674D01*
X3474824Y-12112674D02*
X3493872Y-12103150D01*
X3493872Y-12103150D02*
X3522443Y-12103150D01*
X3522443Y-12103150D02*
X3541491Y-12112674D01*
X3541491Y-12112674D02*
X3551015Y-12131722D01*
X3551015Y-12131722D02*
X3551015Y-12236484D01*
X3941491Y-12026960D02*
X3770063Y-12284103D01*
X4198634Y-12036484D02*
X4217682Y-12036484D01*
X4217682Y-12036484D02*
X4236729Y-12046008D01*
X4236729Y-12046008D02*
X4246253Y-12055531D01*
X4246253Y-12055531D02*
X4255777Y-12074579D01*
X4255777Y-12074579D02*
X4265301Y-12112674D01*
X4265301Y-12112674D02*
X4265301Y-12160293D01*
X4265301Y-12160293D02*
X4255777Y-12198388D01*
X4255777Y-12198388D02*
X4246253Y-12217436D01*
X4246253Y-12217436D02*
X4236729Y-12226960D01*
X4236729Y-12226960D02*
X4217682Y-12236484D01*
X4217682Y-12236484D02*
X4198634Y-12236484D01*
X4198634Y-12236484D02*
X4179586Y-12226960D01*
X4179586Y-12226960D02*
X4170063Y-12217436D01*
X4170063Y-12217436D02*
X4160539Y-12198388D01*
X4160539Y-12198388D02*
X4151015Y-12160293D01*
X4151015Y-12160293D02*
X4151015Y-12112674D01*
X4151015Y-12112674D02*
X4160539Y-12074579D01*
X4160539Y-12074579D02*
X4170063Y-12055531D01*
X4170063Y-12055531D02*
X4179586Y-12046008D01*
X4179586Y-12046008D02*
X4198634Y-12036484D01*
X4351015Y-12217436D02*
X4360539Y-12226960D01*
X4360539Y-12226960D02*
X4351015Y-12236484D01*
X4351015Y-12236484D02*
X4341491Y-12226960D01*
X4341491Y-12226960D02*
X4351015Y-12217436D01*
X4351015Y-12217436D02*
X4351015Y-12236484D01*
X4484348Y-12036484D02*
X4503396Y-12036484D01*
X4503396Y-12036484D02*
X4522444Y-12046008D01*
X4522444Y-12046008D02*
X4531968Y-12055531D01*
X4531968Y-12055531D02*
X4541491Y-12074579D01*
X4541491Y-12074579D02*
X4551015Y-12112674D01*
X4551015Y-12112674D02*
X4551015Y-12160293D01*
X4551015Y-12160293D02*
X4541491Y-12198388D01*
X4541491Y-12198388D02*
X4531968Y-12217436D01*
X4531968Y-12217436D02*
X4522444Y-12226960D01*
X4522444Y-12226960D02*
X4503396Y-12236484D01*
X4503396Y-12236484D02*
X4484348Y-12236484D01*
X4484348Y-12236484D02*
X4465301Y-12226960D01*
X4465301Y-12226960D02*
X4455777Y-12217436D01*
X4455777Y-12217436D02*
X4446253Y-12198388D01*
X4446253Y-12198388D02*
X4436729Y-12160293D01*
X4436729Y-12160293D02*
X4436729Y-12112674D01*
X4436729Y-12112674D02*
X4446253Y-12074579D01*
X4446253Y-12074579D02*
X4455777Y-12055531D01*
X4455777Y-12055531D02*
X4465301Y-12046008D01*
X4465301Y-12046008D02*
X4484348Y-12036484D01*
X4722444Y-12036484D02*
X4684348Y-12036484D01*
X4684348Y-12036484D02*
X4665301Y-12046008D01*
X4665301Y-12046008D02*
X4655777Y-12055531D01*
X4655777Y-12055531D02*
X4636729Y-12084103D01*
X4636729Y-12084103D02*
X4627206Y-12122198D01*
X4627206Y-12122198D02*
X4627206Y-12198388D01*
X4627206Y-12198388D02*
X4636729Y-12217436D01*
X4636729Y-12217436D02*
X4646253Y-12226960D01*
X4646253Y-12226960D02*
X4665301Y-12236484D01*
X4665301Y-12236484D02*
X4703396Y-12236484D01*
X4703396Y-12236484D02*
X4722444Y-12226960D01*
X4722444Y-12226960D02*
X4731968Y-12217436D01*
X4731968Y-12217436D02*
X4741491Y-12198388D01*
X4741491Y-12198388D02*
X4741491Y-12150769D01*
X4741491Y-12150769D02*
X4731968Y-12131722D01*
X4731968Y-12131722D02*
X4722444Y-12122198D01*
X4722444Y-12122198D02*
X4703396Y-12112674D01*
X4703396Y-12112674D02*
X4665301Y-12112674D01*
X4665301Y-12112674D02*
X4646253Y-12122198D01*
X4646253Y-12122198D02*
X4636729Y-12131722D01*
X4636729Y-12131722D02*
X4627206Y-12150769D01*
X4922444Y-12036484D02*
X4827206Y-12036484D01*
X4827206Y-12036484D02*
X4817682Y-12131722D01*
X4817682Y-12131722D02*
X4827206Y-12122198D01*
X4827206Y-12122198D02*
X4846253Y-12112674D01*
X4846253Y-12112674D02*
X4893872Y-12112674D01*
X4893872Y-12112674D02*
X4912920Y-12122198D01*
X4912920Y-12122198D02*
X4922444Y-12131722D01*
X4922444Y-12131722D02*
X4931968Y-12150769D01*
X4931968Y-12150769D02*
X4931968Y-12198388D01*
X4931968Y-12198388D02*
X4922444Y-12217436D01*
X4922444Y-12217436D02*
X4912920Y-12226960D01*
X4912920Y-12226960D02*
X4893872Y-12236484D01*
X4893872Y-12236484D02*
X4846253Y-12236484D01*
X4846253Y-12236484D02*
X4827206Y-12226960D01*
X4827206Y-12226960D02*
X4817682Y-12217436D01*
X5055777Y-12036484D02*
X5074825Y-12036484D01*
X5074825Y-12036484D02*
X5093872Y-12046008D01*
X5093872Y-12046008D02*
X5103396Y-12055531D01*
X5103396Y-12055531D02*
X5112920Y-12074579D01*
X5112920Y-12074579D02*
X5122444Y-12112674D01*
X5122444Y-12112674D02*
X5122444Y-12160293D01*
X5122444Y-12160293D02*
X5112920Y-12198388D01*
X5112920Y-12198388D02*
X5103396Y-12217436D01*
X5103396Y-12217436D02*
X5093872Y-12226960D01*
X5093872Y-12226960D02*
X5074825Y-12236484D01*
X5074825Y-12236484D02*
X5055777Y-12236484D01*
X5055777Y-12236484D02*
X5036729Y-12226960D01*
X5036729Y-12226960D02*
X5027206Y-12217436D01*
X5027206Y-12217436D02*
X5017682Y-12198388D01*
X5017682Y-12198388D02*
X5008158Y-12160293D01*
X5008158Y-12160293D02*
X5008158Y-12112674D01*
X5008158Y-12112674D02*
X5017682Y-12074579D01*
X5017682Y-12074579D02*
X5027206Y-12055531D01*
X5027206Y-12055531D02*
X5036729Y-12046008D01*
X5036729Y-12046008D02*
X5055777Y-12036484D01*
X5198634Y-12036484D02*
X5198634Y-12074579D01*
X5274825Y-12036484D02*
X5274825Y-12074579D01*
X5570063Y-12312674D02*
X5560539Y-12303150D01*
X5560539Y-12303150D02*
X5541491Y-12274579D01*
X5541491Y-12274579D02*
X5531968Y-12255531D01*
X5531968Y-12255531D02*
X5522444Y-12226960D01*
X5522444Y-12226960D02*
X5512920Y-12179341D01*
X5512920Y-12179341D02*
X5512920Y-12141246D01*
X5512920Y-12141246D02*
X5522444Y-12093627D01*
X5522444Y-12093627D02*
X5531968Y-12065055D01*
X5531968Y-12065055D02*
X5541491Y-12046008D01*
X5541491Y-12046008D02*
X5560539Y-12017436D01*
X5560539Y-12017436D02*
X5570063Y-12007912D01*
X5674825Y-12122198D02*
X5655777Y-12112674D01*
X5655777Y-12112674D02*
X5646253Y-12103150D01*
X5646253Y-12103150D02*
X5636729Y-12084103D01*
X5636729Y-12084103D02*
X5636729Y-12074579D01*
X5636729Y-12074579D02*
X5646253Y-12055531D01*
X5646253Y-12055531D02*
X5655777Y-12046008D01*
X5655777Y-12046008D02*
X5674825Y-12036484D01*
X5674825Y-12036484D02*
X5712920Y-12036484D01*
X5712920Y-12036484D02*
X5731968Y-12046008D01*
X5731968Y-12046008D02*
X5741491Y-12055531D01*
X5741491Y-12055531D02*
X5751015Y-12074579D01*
X5751015Y-12074579D02*
X5751015Y-12084103D01*
X5751015Y-12084103D02*
X5741491Y-12103150D01*
X5741491Y-12103150D02*
X5731968Y-12112674D01*
X5731968Y-12112674D02*
X5712920Y-12122198D01*
X5712920Y-12122198D02*
X5674825Y-12122198D01*
X5674825Y-12122198D02*
X5655777Y-12131722D01*
X5655777Y-12131722D02*
X5646253Y-12141246D01*
X5646253Y-12141246D02*
X5636729Y-12160293D01*
X5636729Y-12160293D02*
X5636729Y-12198388D01*
X5636729Y-12198388D02*
X5646253Y-12217436D01*
X5646253Y-12217436D02*
X5655777Y-12226960D01*
X5655777Y-12226960D02*
X5674825Y-12236484D01*
X5674825Y-12236484D02*
X5712920Y-12236484D01*
X5712920Y-12236484D02*
X5731968Y-12226960D01*
X5731968Y-12226960D02*
X5741491Y-12217436D01*
X5741491Y-12217436D02*
X5751015Y-12198388D01*
X5751015Y-12198388D02*
X5751015Y-12160293D01*
X5751015Y-12160293D02*
X5741491Y-12141246D01*
X5741491Y-12141246D02*
X5731968Y-12131722D01*
X5731968Y-12131722D02*
X5712920Y-12122198D01*
X5989110Y-12236484D02*
X5989110Y-12036484D01*
X6074825Y-12236484D02*
X6074825Y-12131722D01*
X6074825Y-12131722D02*
X6065301Y-12112674D01*
X6065301Y-12112674D02*
X6046253Y-12103150D01*
X6046253Y-12103150D02*
X6017682Y-12103150D01*
X6017682Y-12103150D02*
X5998634Y-12112674D01*
X5998634Y-12112674D02*
X5989110Y-12122198D01*
X6198634Y-12236484D02*
X6179587Y-12226960D01*
X6179587Y-12226960D02*
X6170063Y-12217436D01*
X6170063Y-12217436D02*
X6160539Y-12198388D01*
X6160539Y-12198388D02*
X6160539Y-12141246D01*
X6160539Y-12141246D02*
X6170063Y-12122198D01*
X6170063Y-12122198D02*
X6179587Y-12112674D01*
X6179587Y-12112674D02*
X6198634Y-12103150D01*
X6198634Y-12103150D02*
X6227206Y-12103150D01*
X6227206Y-12103150D02*
X6246253Y-12112674D01*
X6246253Y-12112674D02*
X6255777Y-12122198D01*
X6255777Y-12122198D02*
X6265301Y-12141246D01*
X6265301Y-12141246D02*
X6265301Y-12198388D01*
X6265301Y-12198388D02*
X6255777Y-12217436D01*
X6255777Y-12217436D02*
X6246253Y-12226960D01*
X6246253Y-12226960D02*
X6227206Y-12236484D01*
X6227206Y-12236484D02*
X6198634Y-12236484D01*
X6379587Y-12236484D02*
X6360539Y-12226960D01*
X6360539Y-12226960D02*
X6351015Y-12207912D01*
X6351015Y-12207912D02*
X6351015Y-12036484D01*
X6531968Y-12226960D02*
X6512920Y-12236484D01*
X6512920Y-12236484D02*
X6474825Y-12236484D01*
X6474825Y-12236484D02*
X6455777Y-12226960D01*
X6455777Y-12226960D02*
X6446253Y-12207912D01*
X6446253Y-12207912D02*
X6446253Y-12131722D01*
X6446253Y-12131722D02*
X6455777Y-12112674D01*
X6455777Y-12112674D02*
X6474825Y-12103150D01*
X6474825Y-12103150D02*
X6512920Y-12103150D01*
X6512920Y-12103150D02*
X6531968Y-12112674D01*
X6531968Y-12112674D02*
X6541491Y-12131722D01*
X6541491Y-12131722D02*
X6541491Y-12150769D01*
X6541491Y-12150769D02*
X6446253Y-12169817D01*
X6617682Y-12226960D02*
X6636730Y-12236484D01*
X6636730Y-12236484D02*
X6674825Y-12236484D01*
X6674825Y-12236484D02*
X6693872Y-12226960D01*
X6693872Y-12226960D02*
X6703396Y-12207912D01*
X6703396Y-12207912D02*
X6703396Y-12198388D01*
X6703396Y-12198388D02*
X6693872Y-12179341D01*
X6693872Y-12179341D02*
X6674825Y-12169817D01*
X6674825Y-12169817D02*
X6646253Y-12169817D01*
X6646253Y-12169817D02*
X6627206Y-12160293D01*
X6627206Y-12160293D02*
X6617682Y-12141246D01*
X6617682Y-12141246D02*
X6617682Y-12131722D01*
X6617682Y-12131722D02*
X6627206Y-12112674D01*
X6627206Y-12112674D02*
X6646253Y-12103150D01*
X6646253Y-12103150D02*
X6674825Y-12103150D01*
X6674825Y-12103150D02*
X6693872Y-12112674D01*
X6770063Y-12312674D02*
X6779587Y-12303150D01*
X6779587Y-12303150D02*
X6798634Y-12274579D01*
X6798634Y-12274579D02*
X6808158Y-12255531D01*
X6808158Y-12255531D02*
X6817682Y-12226960D01*
X6817682Y-12226960D02*
X6827206Y-12179341D01*
X6827206Y-12179341D02*
X6827206Y-12141246D01*
X6827206Y-12141246D02*
X6817682Y-12093627D01*
X6817682Y-12093627D02*
X6808158Y-12065055D01*
X6808158Y-12065055D02*
X6798634Y-12046008D01*
X6798634Y-12046008D02*
X6779587Y-12017436D01*
X6779587Y-12017436D02*
X6770063Y-12007912D01*
X1995000Y-12430000D02*
G75*
G03*
X1995000Y-12430000I-100000J0D01*
G01*
X2236729Y-12321484D02*
X2360539Y-12321484D01*
X2360539Y-12321484D02*
X2293872Y-12397674D01*
X2293872Y-12397674D02*
X2322444Y-12397674D01*
X2322444Y-12397674D02*
X2341491Y-12407198D01*
X2341491Y-12407198D02*
X2351015Y-12416722D01*
X2351015Y-12416722D02*
X2360539Y-12435769D01*
X2360539Y-12435769D02*
X2360539Y-12483388D01*
X2360539Y-12483388D02*
X2351015Y-12502436D01*
X2351015Y-12502436D02*
X2341491Y-12511960D01*
X2341491Y-12511960D02*
X2322444Y-12521484D01*
X2322444Y-12521484D02*
X2265301Y-12521484D01*
X2265301Y-12521484D02*
X2246253Y-12511960D01*
X2246253Y-12511960D02*
X2236729Y-12502436D01*
X2446253Y-12502436D02*
X2455777Y-12511960D01*
X2455777Y-12511960D02*
X2446253Y-12521484D01*
X2446253Y-12521484D02*
X2436729Y-12511960D01*
X2436729Y-12511960D02*
X2446253Y-12502436D01*
X2446253Y-12502436D02*
X2446253Y-12521484D01*
X2531967Y-12340531D02*
X2541491Y-12331008D01*
X2541491Y-12331008D02*
X2560539Y-12321484D01*
X2560539Y-12321484D02*
X2608158Y-12321484D01*
X2608158Y-12321484D02*
X2627205Y-12331008D01*
X2627205Y-12331008D02*
X2636729Y-12340531D01*
X2636729Y-12340531D02*
X2646253Y-12359579D01*
X2646253Y-12359579D02*
X2646253Y-12378627D01*
X2646253Y-12378627D02*
X2636729Y-12407198D01*
X2636729Y-12407198D02*
X2522444Y-12521484D01*
X2522444Y-12521484D02*
X2646253Y-12521484D01*
X2770063Y-12321484D02*
X2789110Y-12321484D01*
X2789110Y-12321484D02*
X2808158Y-12331008D01*
X2808158Y-12331008D02*
X2817682Y-12340531D01*
X2817682Y-12340531D02*
X2827205Y-12359579D01*
X2827205Y-12359579D02*
X2836729Y-12397674D01*
X2836729Y-12397674D02*
X2836729Y-12445293D01*
X2836729Y-12445293D02*
X2827205Y-12483388D01*
X2827205Y-12483388D02*
X2817682Y-12502436D01*
X2817682Y-12502436D02*
X2808158Y-12511960D01*
X2808158Y-12511960D02*
X2789110Y-12521484D01*
X2789110Y-12521484D02*
X2770063Y-12521484D01*
X2770063Y-12521484D02*
X2751015Y-12511960D01*
X2751015Y-12511960D02*
X2741491Y-12502436D01*
X2741491Y-12502436D02*
X2731967Y-12483388D01*
X2731967Y-12483388D02*
X2722444Y-12445293D01*
X2722444Y-12445293D02*
X2722444Y-12397674D01*
X2722444Y-12397674D02*
X2731967Y-12359579D01*
X2731967Y-12359579D02*
X2741491Y-12340531D01*
X2741491Y-12340531D02*
X2751015Y-12331008D01*
X2751015Y-12331008D02*
X2770063Y-12321484D01*
X2960539Y-12321484D02*
X2979586Y-12321484D01*
X2979586Y-12321484D02*
X2998634Y-12331008D01*
X2998634Y-12331008D02*
X3008158Y-12340531D01*
X3008158Y-12340531D02*
X3017682Y-12359579D01*
X3017682Y-12359579D02*
X3027205Y-12397674D01*
X3027205Y-12397674D02*
X3027205Y-12445293D01*
X3027205Y-12445293D02*
X3017682Y-12483388D01*
X3017682Y-12483388D02*
X3008158Y-12502436D01*
X3008158Y-12502436D02*
X2998634Y-12511960D01*
X2998634Y-12511960D02*
X2979586Y-12521484D01*
X2979586Y-12521484D02*
X2960539Y-12521484D01*
X2960539Y-12521484D02*
X2941491Y-12511960D01*
X2941491Y-12511960D02*
X2931967Y-12502436D01*
X2931967Y-12502436D02*
X2922443Y-12483388D01*
X2922443Y-12483388D02*
X2912920Y-12445293D01*
X2912920Y-12445293D02*
X2912920Y-12397674D01*
X2912920Y-12397674D02*
X2922443Y-12359579D01*
X2922443Y-12359579D02*
X2931967Y-12340531D01*
X2931967Y-12340531D02*
X2941491Y-12331008D01*
X2941491Y-12331008D02*
X2960539Y-12321484D01*
X3112920Y-12521484D02*
X3112920Y-12388150D01*
X3112920Y-12407198D02*
X3122443Y-12397674D01*
X3122443Y-12397674D02*
X3141491Y-12388150D01*
X3141491Y-12388150D02*
X3170063Y-12388150D01*
X3170063Y-12388150D02*
X3189110Y-12397674D01*
X3189110Y-12397674D02*
X3198634Y-12416722D01*
X3198634Y-12416722D02*
X3198634Y-12521484D01*
X3198634Y-12416722D02*
X3208158Y-12397674D01*
X3208158Y-12397674D02*
X3227205Y-12388150D01*
X3227205Y-12388150D02*
X3255777Y-12388150D01*
X3255777Y-12388150D02*
X3274824Y-12397674D01*
X3274824Y-12397674D02*
X3284348Y-12416722D01*
X3284348Y-12416722D02*
X3284348Y-12521484D01*
X3379586Y-12521484D02*
X3379586Y-12388150D01*
X3379586Y-12407198D02*
X3389110Y-12397674D01*
X3389110Y-12397674D02*
X3408158Y-12388150D01*
X3408158Y-12388150D02*
X3436729Y-12388150D01*
X3436729Y-12388150D02*
X3455777Y-12397674D01*
X3455777Y-12397674D02*
X3465301Y-12416722D01*
X3465301Y-12416722D02*
X3465301Y-12521484D01*
X3465301Y-12416722D02*
X3474824Y-12397674D01*
X3474824Y-12397674D02*
X3493872Y-12388150D01*
X3493872Y-12388150D02*
X3522443Y-12388150D01*
X3522443Y-12388150D02*
X3541491Y-12397674D01*
X3541491Y-12397674D02*
X3551015Y-12416722D01*
X3551015Y-12416722D02*
X3551015Y-12521484D01*
X3941491Y-12311960D02*
X3770063Y-12569103D01*
X4198634Y-12321484D02*
X4217682Y-12321484D01*
X4217682Y-12321484D02*
X4236729Y-12331008D01*
X4236729Y-12331008D02*
X4246253Y-12340531D01*
X4246253Y-12340531D02*
X4255777Y-12359579D01*
X4255777Y-12359579D02*
X4265301Y-12397674D01*
X4265301Y-12397674D02*
X4265301Y-12445293D01*
X4265301Y-12445293D02*
X4255777Y-12483388D01*
X4255777Y-12483388D02*
X4246253Y-12502436D01*
X4246253Y-12502436D02*
X4236729Y-12511960D01*
X4236729Y-12511960D02*
X4217682Y-12521484D01*
X4217682Y-12521484D02*
X4198634Y-12521484D01*
X4198634Y-12521484D02*
X4179586Y-12511960D01*
X4179586Y-12511960D02*
X4170063Y-12502436D01*
X4170063Y-12502436D02*
X4160539Y-12483388D01*
X4160539Y-12483388D02*
X4151015Y-12445293D01*
X4151015Y-12445293D02*
X4151015Y-12397674D01*
X4151015Y-12397674D02*
X4160539Y-12359579D01*
X4160539Y-12359579D02*
X4170063Y-12340531D01*
X4170063Y-12340531D02*
X4179586Y-12331008D01*
X4179586Y-12331008D02*
X4198634Y-12321484D01*
X4351015Y-12502436D02*
X4360539Y-12511960D01*
X4360539Y-12511960D02*
X4351015Y-12521484D01*
X4351015Y-12521484D02*
X4341491Y-12511960D01*
X4341491Y-12511960D02*
X4351015Y-12502436D01*
X4351015Y-12502436D02*
X4351015Y-12521484D01*
X4551015Y-12521484D02*
X4436729Y-12521484D01*
X4493872Y-12521484D02*
X4493872Y-12321484D01*
X4493872Y-12321484D02*
X4474825Y-12350055D01*
X4474825Y-12350055D02*
X4455777Y-12369103D01*
X4455777Y-12369103D02*
X4436729Y-12378627D01*
X4627206Y-12340531D02*
X4636729Y-12331008D01*
X4636729Y-12331008D02*
X4655777Y-12321484D01*
X4655777Y-12321484D02*
X4703396Y-12321484D01*
X4703396Y-12321484D02*
X4722444Y-12331008D01*
X4722444Y-12331008D02*
X4731968Y-12340531D01*
X4731968Y-12340531D02*
X4741491Y-12359579D01*
X4741491Y-12359579D02*
X4741491Y-12378627D01*
X4741491Y-12378627D02*
X4731968Y-12407198D01*
X4731968Y-12407198D02*
X4617682Y-12521484D01*
X4617682Y-12521484D02*
X4741491Y-12521484D01*
X4912920Y-12321484D02*
X4874825Y-12321484D01*
X4874825Y-12321484D02*
X4855777Y-12331008D01*
X4855777Y-12331008D02*
X4846253Y-12340531D01*
X4846253Y-12340531D02*
X4827206Y-12369103D01*
X4827206Y-12369103D02*
X4817682Y-12407198D01*
X4817682Y-12407198D02*
X4817682Y-12483388D01*
X4817682Y-12483388D02*
X4827206Y-12502436D01*
X4827206Y-12502436D02*
X4836729Y-12511960D01*
X4836729Y-12511960D02*
X4855777Y-12521484D01*
X4855777Y-12521484D02*
X4893872Y-12521484D01*
X4893872Y-12521484D02*
X4912920Y-12511960D01*
X4912920Y-12511960D02*
X4922444Y-12502436D01*
X4922444Y-12502436D02*
X4931968Y-12483388D01*
X4931968Y-12483388D02*
X4931968Y-12435769D01*
X4931968Y-12435769D02*
X4922444Y-12416722D01*
X4922444Y-12416722D02*
X4912920Y-12407198D01*
X4912920Y-12407198D02*
X4893872Y-12397674D01*
X4893872Y-12397674D02*
X4855777Y-12397674D01*
X4855777Y-12397674D02*
X4836729Y-12407198D01*
X4836729Y-12407198D02*
X4827206Y-12416722D01*
X4827206Y-12416722D02*
X4817682Y-12435769D01*
X5055777Y-12321484D02*
X5074825Y-12321484D01*
X5074825Y-12321484D02*
X5093872Y-12331008D01*
X5093872Y-12331008D02*
X5103396Y-12340531D01*
X5103396Y-12340531D02*
X5112920Y-12359579D01*
X5112920Y-12359579D02*
X5122444Y-12397674D01*
X5122444Y-12397674D02*
X5122444Y-12445293D01*
X5122444Y-12445293D02*
X5112920Y-12483388D01*
X5112920Y-12483388D02*
X5103396Y-12502436D01*
X5103396Y-12502436D02*
X5093872Y-12511960D01*
X5093872Y-12511960D02*
X5074825Y-12521484D01*
X5074825Y-12521484D02*
X5055777Y-12521484D01*
X5055777Y-12521484D02*
X5036729Y-12511960D01*
X5036729Y-12511960D02*
X5027206Y-12502436D01*
X5027206Y-12502436D02*
X5017682Y-12483388D01*
X5017682Y-12483388D02*
X5008158Y-12445293D01*
X5008158Y-12445293D02*
X5008158Y-12397674D01*
X5008158Y-12397674D02*
X5017682Y-12359579D01*
X5017682Y-12359579D02*
X5027206Y-12340531D01*
X5027206Y-12340531D02*
X5036729Y-12331008D01*
X5036729Y-12331008D02*
X5055777Y-12321484D01*
X5198634Y-12321484D02*
X5198634Y-12359579D01*
X5274825Y-12321484D02*
X5274825Y-12359579D01*
X5570063Y-12597674D02*
X5560539Y-12588150D01*
X5560539Y-12588150D02*
X5541491Y-12559579D01*
X5541491Y-12559579D02*
X5531968Y-12540531D01*
X5531968Y-12540531D02*
X5522444Y-12511960D01*
X5522444Y-12511960D02*
X5512920Y-12464341D01*
X5512920Y-12464341D02*
X5512920Y-12426246D01*
X5512920Y-12426246D02*
X5522444Y-12378627D01*
X5522444Y-12378627D02*
X5531968Y-12350055D01*
X5531968Y-12350055D02*
X5541491Y-12331008D01*
X5541491Y-12331008D02*
X5560539Y-12302436D01*
X5560539Y-12302436D02*
X5570063Y-12292912D01*
X5731968Y-12388150D02*
X5731968Y-12521484D01*
X5684348Y-12311960D02*
X5636729Y-12454817D01*
X5636729Y-12454817D02*
X5760539Y-12454817D01*
X5989110Y-12521484D02*
X5989110Y-12321484D01*
X6074825Y-12521484D02*
X6074825Y-12416722D01*
X6074825Y-12416722D02*
X6065301Y-12397674D01*
X6065301Y-12397674D02*
X6046253Y-12388150D01*
X6046253Y-12388150D02*
X6017682Y-12388150D01*
X6017682Y-12388150D02*
X5998634Y-12397674D01*
X5998634Y-12397674D02*
X5989110Y-12407198D01*
X6198634Y-12521484D02*
X6179587Y-12511960D01*
X6179587Y-12511960D02*
X6170063Y-12502436D01*
X6170063Y-12502436D02*
X6160539Y-12483388D01*
X6160539Y-12483388D02*
X6160539Y-12426246D01*
X6160539Y-12426246D02*
X6170063Y-12407198D01*
X6170063Y-12407198D02*
X6179587Y-12397674D01*
X6179587Y-12397674D02*
X6198634Y-12388150D01*
X6198634Y-12388150D02*
X6227206Y-12388150D01*
X6227206Y-12388150D02*
X6246253Y-12397674D01*
X6246253Y-12397674D02*
X6255777Y-12407198D01*
X6255777Y-12407198D02*
X6265301Y-12426246D01*
X6265301Y-12426246D02*
X6265301Y-12483388D01*
X6265301Y-12483388D02*
X6255777Y-12502436D01*
X6255777Y-12502436D02*
X6246253Y-12511960D01*
X6246253Y-12511960D02*
X6227206Y-12521484D01*
X6227206Y-12521484D02*
X6198634Y-12521484D01*
X6379587Y-12521484D02*
X6360539Y-12511960D01*
X6360539Y-12511960D02*
X6351015Y-12492912D01*
X6351015Y-12492912D02*
X6351015Y-12321484D01*
X6531968Y-12511960D02*
X6512920Y-12521484D01*
X6512920Y-12521484D02*
X6474825Y-12521484D01*
X6474825Y-12521484D02*
X6455777Y-12511960D01*
X6455777Y-12511960D02*
X6446253Y-12492912D01*
X6446253Y-12492912D02*
X6446253Y-12416722D01*
X6446253Y-12416722D02*
X6455777Y-12397674D01*
X6455777Y-12397674D02*
X6474825Y-12388150D01*
X6474825Y-12388150D02*
X6512920Y-12388150D01*
X6512920Y-12388150D02*
X6531968Y-12397674D01*
X6531968Y-12397674D02*
X6541491Y-12416722D01*
X6541491Y-12416722D02*
X6541491Y-12435769D01*
X6541491Y-12435769D02*
X6446253Y-12454817D01*
X6617682Y-12511960D02*
X6636730Y-12521484D01*
X6636730Y-12521484D02*
X6674825Y-12521484D01*
X6674825Y-12521484D02*
X6693872Y-12511960D01*
X6693872Y-12511960D02*
X6703396Y-12492912D01*
X6703396Y-12492912D02*
X6703396Y-12483388D01*
X6703396Y-12483388D02*
X6693872Y-12464341D01*
X6693872Y-12464341D02*
X6674825Y-12454817D01*
X6674825Y-12454817D02*
X6646253Y-12454817D01*
X6646253Y-12454817D02*
X6627206Y-12445293D01*
X6627206Y-12445293D02*
X6617682Y-12426246D01*
X6617682Y-12426246D02*
X6617682Y-12416722D01*
X6617682Y-12416722D02*
X6627206Y-12397674D01*
X6627206Y-12397674D02*
X6646253Y-12388150D01*
X6646253Y-12388150D02*
X6674825Y-12388150D01*
X6674825Y-12388150D02*
X6693872Y-12397674D01*
X6770063Y-12597674D02*
X6779587Y-12588150D01*
X6779587Y-12588150D02*
X6798634Y-12559579D01*
X6798634Y-12559579D02*
X6808158Y-12540531D01*
X6808158Y-12540531D02*
X6817682Y-12511960D01*
X6817682Y-12511960D02*
X6827206Y-12464341D01*
X6827206Y-12464341D02*
X6827206Y-12426246D01*
X6827206Y-12426246D02*
X6817682Y-12378627D01*
X6817682Y-12378627D02*
X6808158Y-12350055D01*
X6808158Y-12350055D02*
X6798634Y-12331008D01*
X6798634Y-12331008D02*
X6779587Y-12302436D01*
X6779587Y-12302436D02*
X6770063Y-12292912D01*
X1895000Y-12650000D02*
X1895000Y-12850000D01*
X1795000Y-12750000D02*
X1995000Y-12750000D01*
X2341491Y-12708150D02*
X2341491Y-12841484D01*
X2293872Y-12631960D02*
X2246253Y-12774817D01*
X2246253Y-12774817D02*
X2370063Y-12774817D01*
X2446253Y-12822436D02*
X2455777Y-12831960D01*
X2455777Y-12831960D02*
X2446253Y-12841484D01*
X2446253Y-12841484D02*
X2436729Y-12831960D01*
X2436729Y-12831960D02*
X2446253Y-12822436D01*
X2446253Y-12822436D02*
X2446253Y-12841484D01*
X2636729Y-12641484D02*
X2541491Y-12641484D01*
X2541491Y-12641484D02*
X2531967Y-12736722D01*
X2531967Y-12736722D02*
X2541491Y-12727198D01*
X2541491Y-12727198D02*
X2560539Y-12717674D01*
X2560539Y-12717674D02*
X2608158Y-12717674D01*
X2608158Y-12717674D02*
X2627205Y-12727198D01*
X2627205Y-12727198D02*
X2636729Y-12736722D01*
X2636729Y-12736722D02*
X2646253Y-12755769D01*
X2646253Y-12755769D02*
X2646253Y-12803388D01*
X2646253Y-12803388D02*
X2636729Y-12822436D01*
X2636729Y-12822436D02*
X2627205Y-12831960D01*
X2627205Y-12831960D02*
X2608158Y-12841484D01*
X2608158Y-12841484D02*
X2560539Y-12841484D01*
X2560539Y-12841484D02*
X2541491Y-12831960D01*
X2541491Y-12831960D02*
X2531967Y-12822436D01*
X2770063Y-12641484D02*
X2789110Y-12641484D01*
X2789110Y-12641484D02*
X2808158Y-12651008D01*
X2808158Y-12651008D02*
X2817682Y-12660531D01*
X2817682Y-12660531D02*
X2827205Y-12679579D01*
X2827205Y-12679579D02*
X2836729Y-12717674D01*
X2836729Y-12717674D02*
X2836729Y-12765293D01*
X2836729Y-12765293D02*
X2827205Y-12803388D01*
X2827205Y-12803388D02*
X2817682Y-12822436D01*
X2817682Y-12822436D02*
X2808158Y-12831960D01*
X2808158Y-12831960D02*
X2789110Y-12841484D01*
X2789110Y-12841484D02*
X2770063Y-12841484D01*
X2770063Y-12841484D02*
X2751015Y-12831960D01*
X2751015Y-12831960D02*
X2741491Y-12822436D01*
X2741491Y-12822436D02*
X2731967Y-12803388D01*
X2731967Y-12803388D02*
X2722444Y-12765293D01*
X2722444Y-12765293D02*
X2722444Y-12717674D01*
X2722444Y-12717674D02*
X2731967Y-12679579D01*
X2731967Y-12679579D02*
X2741491Y-12660531D01*
X2741491Y-12660531D02*
X2751015Y-12651008D01*
X2751015Y-12651008D02*
X2770063Y-12641484D01*
X2960539Y-12641484D02*
X2979586Y-12641484D01*
X2979586Y-12641484D02*
X2998634Y-12651008D01*
X2998634Y-12651008D02*
X3008158Y-12660531D01*
X3008158Y-12660531D02*
X3017682Y-12679579D01*
X3017682Y-12679579D02*
X3027205Y-12717674D01*
X3027205Y-12717674D02*
X3027205Y-12765293D01*
X3027205Y-12765293D02*
X3017682Y-12803388D01*
X3017682Y-12803388D02*
X3008158Y-12822436D01*
X3008158Y-12822436D02*
X2998634Y-12831960D01*
X2998634Y-12831960D02*
X2979586Y-12841484D01*
X2979586Y-12841484D02*
X2960539Y-12841484D01*
X2960539Y-12841484D02*
X2941491Y-12831960D01*
X2941491Y-12831960D02*
X2931967Y-12822436D01*
X2931967Y-12822436D02*
X2922443Y-12803388D01*
X2922443Y-12803388D02*
X2912920Y-12765293D01*
X2912920Y-12765293D02*
X2912920Y-12717674D01*
X2912920Y-12717674D02*
X2922443Y-12679579D01*
X2922443Y-12679579D02*
X2931967Y-12660531D01*
X2931967Y-12660531D02*
X2941491Y-12651008D01*
X2941491Y-12651008D02*
X2960539Y-12641484D01*
X3112920Y-12841484D02*
X3112920Y-12708150D01*
X3112920Y-12727198D02*
X3122443Y-12717674D01*
X3122443Y-12717674D02*
X3141491Y-12708150D01*
X3141491Y-12708150D02*
X3170063Y-12708150D01*
X3170063Y-12708150D02*
X3189110Y-12717674D01*
X3189110Y-12717674D02*
X3198634Y-12736722D01*
X3198634Y-12736722D02*
X3198634Y-12841484D01*
X3198634Y-12736722D02*
X3208158Y-12717674D01*
X3208158Y-12717674D02*
X3227205Y-12708150D01*
X3227205Y-12708150D02*
X3255777Y-12708150D01*
X3255777Y-12708150D02*
X3274824Y-12717674D01*
X3274824Y-12717674D02*
X3284348Y-12736722D01*
X3284348Y-12736722D02*
X3284348Y-12841484D01*
X3379586Y-12841484D02*
X3379586Y-12708150D01*
X3379586Y-12727198D02*
X3389110Y-12717674D01*
X3389110Y-12717674D02*
X3408158Y-12708150D01*
X3408158Y-12708150D02*
X3436729Y-12708150D01*
X3436729Y-12708150D02*
X3455777Y-12717674D01*
X3455777Y-12717674D02*
X3465301Y-12736722D01*
X3465301Y-12736722D02*
X3465301Y-12841484D01*
X3465301Y-12736722D02*
X3474824Y-12717674D01*
X3474824Y-12717674D02*
X3493872Y-12708150D01*
X3493872Y-12708150D02*
X3522443Y-12708150D01*
X3522443Y-12708150D02*
X3541491Y-12717674D01*
X3541491Y-12717674D02*
X3551015Y-12736722D01*
X3551015Y-12736722D02*
X3551015Y-12841484D01*
X3941491Y-12631960D02*
X3770063Y-12889103D01*
X4198634Y-12641484D02*
X4217682Y-12641484D01*
X4217682Y-12641484D02*
X4236729Y-12651008D01*
X4236729Y-12651008D02*
X4246253Y-12660531D01*
X4246253Y-12660531D02*
X4255777Y-12679579D01*
X4255777Y-12679579D02*
X4265301Y-12717674D01*
X4265301Y-12717674D02*
X4265301Y-12765293D01*
X4265301Y-12765293D02*
X4255777Y-12803388D01*
X4255777Y-12803388D02*
X4246253Y-12822436D01*
X4246253Y-12822436D02*
X4236729Y-12831960D01*
X4236729Y-12831960D02*
X4217682Y-12841484D01*
X4217682Y-12841484D02*
X4198634Y-12841484D01*
X4198634Y-12841484D02*
X4179586Y-12831960D01*
X4179586Y-12831960D02*
X4170063Y-12822436D01*
X4170063Y-12822436D02*
X4160539Y-12803388D01*
X4160539Y-12803388D02*
X4151015Y-12765293D01*
X4151015Y-12765293D02*
X4151015Y-12717674D01*
X4151015Y-12717674D02*
X4160539Y-12679579D01*
X4160539Y-12679579D02*
X4170063Y-12660531D01*
X4170063Y-12660531D02*
X4179586Y-12651008D01*
X4179586Y-12651008D02*
X4198634Y-12641484D01*
X4351015Y-12822436D02*
X4360539Y-12831960D01*
X4360539Y-12831960D02*
X4351015Y-12841484D01*
X4351015Y-12841484D02*
X4341491Y-12831960D01*
X4341491Y-12831960D02*
X4351015Y-12822436D01*
X4351015Y-12822436D02*
X4351015Y-12841484D01*
X4551015Y-12841484D02*
X4436729Y-12841484D01*
X4493872Y-12841484D02*
X4493872Y-12641484D01*
X4493872Y-12641484D02*
X4474825Y-12670055D01*
X4474825Y-12670055D02*
X4455777Y-12689103D01*
X4455777Y-12689103D02*
X4436729Y-12698627D01*
X4617682Y-12641484D02*
X4751015Y-12641484D01*
X4751015Y-12641484D02*
X4665301Y-12841484D01*
X4808158Y-12641484D02*
X4941491Y-12641484D01*
X4941491Y-12641484D02*
X4855777Y-12841484D01*
X5008158Y-12660531D02*
X5017682Y-12651008D01*
X5017682Y-12651008D02*
X5036729Y-12641484D01*
X5036729Y-12641484D02*
X5084349Y-12641484D01*
X5084349Y-12641484D02*
X5103396Y-12651008D01*
X5103396Y-12651008D02*
X5112920Y-12660531D01*
X5112920Y-12660531D02*
X5122444Y-12679579D01*
X5122444Y-12679579D02*
X5122444Y-12698627D01*
X5122444Y-12698627D02*
X5112920Y-12727198D01*
X5112920Y-12727198D02*
X4998634Y-12841484D01*
X4998634Y-12841484D02*
X5122444Y-12841484D01*
X5198634Y-12641484D02*
X5198634Y-12679579D01*
X5274825Y-12641484D02*
X5274825Y-12679579D01*
X5570063Y-12917674D02*
X5560539Y-12908150D01*
X5560539Y-12908150D02*
X5541491Y-12879579D01*
X5541491Y-12879579D02*
X5531968Y-12860531D01*
X5531968Y-12860531D02*
X5522444Y-12831960D01*
X5522444Y-12831960D02*
X5512920Y-12784341D01*
X5512920Y-12784341D02*
X5512920Y-12746246D01*
X5512920Y-12746246D02*
X5522444Y-12698627D01*
X5522444Y-12698627D02*
X5531968Y-12670055D01*
X5531968Y-12670055D02*
X5541491Y-12651008D01*
X5541491Y-12651008D02*
X5560539Y-12622436D01*
X5560539Y-12622436D02*
X5570063Y-12612912D01*
X5731968Y-12708150D02*
X5731968Y-12841484D01*
X5684348Y-12631960D02*
X5636729Y-12774817D01*
X5636729Y-12774817D02*
X5760539Y-12774817D01*
X5989110Y-12841484D02*
X5989110Y-12641484D01*
X6074825Y-12841484D02*
X6074825Y-12736722D01*
X6074825Y-12736722D02*
X6065301Y-12717674D01*
X6065301Y-12717674D02*
X6046253Y-12708150D01*
X6046253Y-12708150D02*
X6017682Y-12708150D01*
X6017682Y-12708150D02*
X5998634Y-12717674D01*
X5998634Y-12717674D02*
X5989110Y-12727198D01*
X6198634Y-12841484D02*
X6179587Y-12831960D01*
X6179587Y-12831960D02*
X6170063Y-12822436D01*
X6170063Y-12822436D02*
X6160539Y-12803388D01*
X6160539Y-12803388D02*
X6160539Y-12746246D01*
X6160539Y-12746246D02*
X6170063Y-12727198D01*
X6170063Y-12727198D02*
X6179587Y-12717674D01*
X6179587Y-12717674D02*
X6198634Y-12708150D01*
X6198634Y-12708150D02*
X6227206Y-12708150D01*
X6227206Y-12708150D02*
X6246253Y-12717674D01*
X6246253Y-12717674D02*
X6255777Y-12727198D01*
X6255777Y-12727198D02*
X6265301Y-12746246D01*
X6265301Y-12746246D02*
X6265301Y-12803388D01*
X6265301Y-12803388D02*
X6255777Y-12822436D01*
X6255777Y-12822436D02*
X6246253Y-12831960D01*
X6246253Y-12831960D02*
X6227206Y-12841484D01*
X6227206Y-12841484D02*
X6198634Y-12841484D01*
X6379587Y-12841484D02*
X6360539Y-12831960D01*
X6360539Y-12831960D02*
X6351015Y-12812912D01*
X6351015Y-12812912D02*
X6351015Y-12641484D01*
X6531968Y-12831960D02*
X6512920Y-12841484D01*
X6512920Y-12841484D02*
X6474825Y-12841484D01*
X6474825Y-12841484D02*
X6455777Y-12831960D01*
X6455777Y-12831960D02*
X6446253Y-12812912D01*
X6446253Y-12812912D02*
X6446253Y-12736722D01*
X6446253Y-12736722D02*
X6455777Y-12717674D01*
X6455777Y-12717674D02*
X6474825Y-12708150D01*
X6474825Y-12708150D02*
X6512920Y-12708150D01*
X6512920Y-12708150D02*
X6531968Y-12717674D01*
X6531968Y-12717674D02*
X6541491Y-12736722D01*
X6541491Y-12736722D02*
X6541491Y-12755769D01*
X6541491Y-12755769D02*
X6446253Y-12774817D01*
X6617682Y-12831960D02*
X6636730Y-12841484D01*
X6636730Y-12841484D02*
X6674825Y-12841484D01*
X6674825Y-12841484D02*
X6693872Y-12831960D01*
X6693872Y-12831960D02*
X6703396Y-12812912D01*
X6703396Y-12812912D02*
X6703396Y-12803388D01*
X6703396Y-12803388D02*
X6693872Y-12784341D01*
X6693872Y-12784341D02*
X6674825Y-12774817D01*
X6674825Y-12774817D02*
X6646253Y-12774817D01*
X6646253Y-12774817D02*
X6627206Y-12765293D01*
X6627206Y-12765293D02*
X6617682Y-12746246D01*
X6617682Y-12746246D02*
X6617682Y-12736722D01*
X6617682Y-12736722D02*
X6627206Y-12717674D01*
X6627206Y-12717674D02*
X6646253Y-12708150D01*
X6646253Y-12708150D02*
X6674825Y-12708150D01*
X6674825Y-12708150D02*
X6693872Y-12717674D01*
X6770063Y-12917674D02*
X6779587Y-12908150D01*
X6779587Y-12908150D02*
X6798634Y-12879579D01*
X6798634Y-12879579D02*
X6808158Y-12860531D01*
X6808158Y-12860531D02*
X6817682Y-12831960D01*
X6817682Y-12831960D02*
X6827206Y-12784341D01*
X6827206Y-12784341D02*
X6827206Y-12746246D01*
X6827206Y-12746246D02*
X6817682Y-12698627D01*
X6817682Y-12698627D02*
X6808158Y-12670055D01*
X6808158Y-12670055D02*
X6798634Y-12651008D01*
X6798634Y-12651008D02*
X6779587Y-12622436D01*
X6779587Y-12622436D02*
X6770063Y-12612912D01*
M02*
