%TF.GenerationSoftware,KiCad,Pcbnew,7.0.8*%
%TF.CreationDate,2024-01-29T21:48:56+01:00*%
%TF.ProjectId,cube-batteryboard,63756265-2d62-4617-9474-657279626f61,rev?*%
%TF.SameCoordinates,Original*%
%TF.FileFunction,Copper,L1,Top*%
%TF.FilePolarity,Positive*%
%FSLAX46Y46*%
G04 Gerber Fmt 4.6, Leading zero omitted, Abs format (unit mm)*
G04 Created by KiCad (PCBNEW 7.0.8) date 2024-01-29 21:48:56*
%MOMM*%
%LPD*%
G01*
G04 APERTURE LIST*
G04 Aperture macros list*
%AMRoundRect*
0 Rectangle with rounded corners*
0 $1 Rounding radius*
0 $2 $3 $4 $5 $6 $7 $8 $9 X,Y pos of 4 corners*
0 Add a 4 corners polygon primitive as box body*
4,1,4,$2,$3,$4,$5,$6,$7,$8,$9,$2,$3,0*
0 Add four circle primitives for the rounded corners*
1,1,$1+$1,$2,$3*
1,1,$1+$1,$4,$5*
1,1,$1+$1,$6,$7*
1,1,$1+$1,$8,$9*
0 Add four rect primitives between the rounded corners*
20,1,$1+$1,$2,$3,$4,$5,0*
20,1,$1+$1,$4,$5,$6,$7,0*
20,1,$1+$1,$6,$7,$8,$9,0*
20,1,$1+$1,$8,$9,$2,$3,0*%
G04 Aperture macros list end*
%TA.AperFunction,ComponentPad*%
%ADD10C,5.600000*%
%TD*%
%TA.AperFunction,ComponentPad*%
%ADD11RoundRect,1.500000X1.500000X-1.500000X1.500000X1.500000X-1.500000X1.500000X-1.500000X-1.500000X0*%
%TD*%
%TA.AperFunction,ComponentPad*%
%ADD12C,6.000000*%
%TD*%
%TA.AperFunction,ComponentPad*%
%ADD13C,3.000000*%
%TD*%
G04 APERTURE END LIST*
D10*
%TO.P,H2,1*%
%TO.N,N/C*%
X110000000Y-25000000D03*
%TD*%
%TO.P,H1,1*%
%TO.N,N/C*%
X25000000Y-25000000D03*
%TD*%
%TO.P,H3,1*%
%TO.N,N/C*%
X25000000Y-110000000D03*
%TD*%
%TO.P,H4,1*%
%TO.N,N/C*%
X110000000Y-110000000D03*
%TD*%
D11*
%TO.P,J2,1,Pin_1*%
%TO.N,unconnected-(J2-Pin_1-Pad1)*%
X47500000Y-35600000D03*
D12*
%TO.P,J2,2,Pin_2*%
%TO.N,/PWR_OUT*%
X47500000Y-28400000D03*
%TD*%
D13*
%TO.P,SW1,1,1*%
%TO.N,/PWR_OUT*%
X62900000Y-28850000D03*
%TO.P,SW1,2,2*%
%TO.N,/PWR_IN*%
X67500000Y-28850000D03*
%TO.P,SW1,3,3*%
%TO.N,/PWR_OUT*%
X62900000Y-23150000D03*
%TO.P,SW1,4,4*%
%TO.N,/PWR_IN*%
X67500000Y-23150000D03*
%TD*%
D11*
%TO.P,J1,1,Pin_1*%
%TO.N,GND*%
X87500000Y-35600000D03*
D12*
%TO.P,J1,2,Pin_2*%
%TO.N,/PWR_IN*%
X87500000Y-28400000D03*
%TD*%
D13*
%TO.P,SW2,1,1*%
%TO.N,/PWR_OUT*%
X62900000Y-40850000D03*
%TO.P,SW2,2,2*%
%TO.N,/PWR_IN*%
X67500000Y-40850000D03*
%TO.P,SW2,3,3*%
%TO.N,/PWR_OUT*%
X62900000Y-35150000D03*
%TO.P,SW2,4,4*%
%TO.N,/PWR_IN*%
X67500000Y-35150000D03*
%TD*%
%TA.AperFunction,Conductor*%
%TO.N,/PWR_IN*%
G36*
X114442539Y-20520185D02*
G01*
X114488294Y-20572989D01*
X114499500Y-20624500D01*
X114499500Y-44370500D01*
X114479815Y-44437539D01*
X114427011Y-44483294D01*
X114375500Y-44494500D01*
X105592895Y-44494500D01*
X105525856Y-44474815D01*
X105480101Y-44422011D01*
X105470157Y-44352853D01*
X105471489Y-44345272D01*
X105476458Y-44321356D01*
X105486499Y-44273038D01*
X105505175Y-44000000D01*
X105486499Y-43726962D01*
X105450658Y-43554485D01*
X105430821Y-43459020D01*
X105430816Y-43459004D01*
X105339170Y-43201139D01*
X105339171Y-43201139D01*
X105213259Y-42958141D01*
X105213255Y-42958135D01*
X105055439Y-42734560D01*
X104993170Y-42667887D01*
X104868638Y-42534546D01*
X104868636Y-42534545D01*
X104868634Y-42534542D01*
X104656341Y-42361829D01*
X104422509Y-42219633D01*
X104171493Y-42110602D01*
X103907970Y-42036766D01*
X103907966Y-42036765D01*
X103907965Y-42036765D01*
X103772401Y-42018132D01*
X103636839Y-41999500D01*
X103636838Y-41999500D01*
X103535799Y-41999500D01*
X81065892Y-41999500D01*
X81000000Y-41999500D01*
X80863162Y-41999500D01*
X80863161Y-41999500D01*
X80592035Y-42036765D01*
X80592029Y-42036766D01*
X80328506Y-42110602D01*
X80077490Y-42219633D01*
X79843658Y-42361829D01*
X79631365Y-42534542D01*
X79444560Y-42734560D01*
X79286744Y-42958135D01*
X79286740Y-42958141D01*
X79160829Y-43201139D01*
X79069183Y-43459004D01*
X79069178Y-43459020D01*
X79013501Y-43726959D01*
X79013500Y-43726961D01*
X78994825Y-44000000D01*
X79013500Y-44273038D01*
X79013501Y-44273040D01*
X79028511Y-44345272D01*
X79022878Y-44414914D01*
X78980488Y-44470455D01*
X78914799Y-44494261D01*
X78907105Y-44494500D01*
X65524000Y-44494500D01*
X65456961Y-44474815D01*
X65411206Y-44422011D01*
X65400000Y-44370500D01*
X65400000Y-41630014D01*
X65419685Y-41562975D01*
X65472489Y-41517220D01*
X65541647Y-41507276D01*
X65605203Y-41536301D01*
X65640182Y-41586681D01*
X65676089Y-41682953D01*
X65676091Y-41682957D01*
X65813191Y-41934038D01*
X65813196Y-41934046D01*
X65919882Y-42076561D01*
X65919883Y-42076562D01*
X66767258Y-41229187D01*
X66813130Y-41315710D01*
X66929302Y-41452478D01*
X67072160Y-41561076D01*
X67120234Y-41583317D01*
X66273436Y-42430115D01*
X66415960Y-42536807D01*
X66415961Y-42536808D01*
X66667042Y-42673908D01*
X66667041Y-42673908D01*
X66935104Y-42773890D01*
X67214637Y-42834699D01*
X67499999Y-42855109D01*
X67500001Y-42855109D01*
X67785362Y-42834699D01*
X68064895Y-42773890D01*
X68332958Y-42673908D01*
X68584047Y-42536803D01*
X68726561Y-42430116D01*
X68726562Y-42430115D01*
X67880393Y-41583945D01*
X68002213Y-41510650D01*
X68132492Y-41387243D01*
X68233196Y-41238716D01*
X68235781Y-41232228D01*
X69080115Y-42076562D01*
X69080116Y-42076561D01*
X69186803Y-41934047D01*
X69323908Y-41682958D01*
X69423890Y-41414895D01*
X69484699Y-41135362D01*
X69505109Y-40850001D01*
X69505109Y-40849998D01*
X69484699Y-40564637D01*
X69423890Y-40285104D01*
X69323908Y-40017041D01*
X69186808Y-39765961D01*
X69186807Y-39765960D01*
X69080115Y-39623436D01*
X68232740Y-40470811D01*
X68186870Y-40384290D01*
X68070698Y-40247522D01*
X67927840Y-40138924D01*
X67879764Y-40116681D01*
X68726562Y-39269883D01*
X68726561Y-39269882D01*
X68584046Y-39163196D01*
X68584038Y-39163191D01*
X68332957Y-39026091D01*
X68332958Y-39026091D01*
X68064895Y-38926109D01*
X67785362Y-38865300D01*
X67500001Y-38844891D01*
X67499999Y-38844891D01*
X67214637Y-38865300D01*
X66935104Y-38926109D01*
X66667041Y-39026091D01*
X66415961Y-39163191D01*
X66415953Y-39163196D01*
X66273437Y-39269882D01*
X66273436Y-39269883D01*
X67119607Y-40116053D01*
X66997787Y-40189350D01*
X66867508Y-40312757D01*
X66766804Y-40461284D01*
X66764218Y-40467771D01*
X65919883Y-39623436D01*
X65919882Y-39623437D01*
X65813196Y-39765953D01*
X65813191Y-39765961D01*
X65676091Y-40017042D01*
X65640182Y-40113319D01*
X65598310Y-40169252D01*
X65532846Y-40193669D01*
X65464573Y-40178817D01*
X65415168Y-40129412D01*
X65400000Y-40069985D01*
X65400000Y-35930014D01*
X65419685Y-35862975D01*
X65472489Y-35817220D01*
X65541647Y-35807276D01*
X65605203Y-35836301D01*
X65640182Y-35886681D01*
X65676089Y-35982953D01*
X65676091Y-35982957D01*
X65813191Y-36234038D01*
X65813196Y-36234046D01*
X65919882Y-36376561D01*
X65919883Y-36376562D01*
X66767258Y-35529187D01*
X66813130Y-35615710D01*
X66929302Y-35752478D01*
X67072160Y-35861076D01*
X67120234Y-35883317D01*
X66273436Y-36730115D01*
X66415960Y-36836807D01*
X66415961Y-36836808D01*
X66667042Y-36973908D01*
X66667041Y-36973908D01*
X66935104Y-37073890D01*
X67214637Y-37134699D01*
X67499999Y-37155109D01*
X67500001Y-37155109D01*
X67785362Y-37134699D01*
X68064895Y-37073890D01*
X68332958Y-36973908D01*
X68584047Y-36836803D01*
X68726561Y-36730116D01*
X68726562Y-36730115D01*
X67880393Y-35883945D01*
X68002213Y-35810650D01*
X68132492Y-35687243D01*
X68233196Y-35538716D01*
X68235781Y-35532228D01*
X69080115Y-36376562D01*
X69080116Y-36376561D01*
X69186803Y-36234047D01*
X69323908Y-35982958D01*
X69423890Y-35714895D01*
X69484699Y-35435362D01*
X69505109Y-35150001D01*
X69505109Y-35149998D01*
X69484699Y-34864637D01*
X69423890Y-34585104D01*
X69323908Y-34317041D01*
X69186808Y-34065961D01*
X69186807Y-34065960D01*
X69080115Y-33923436D01*
X68232740Y-34770811D01*
X68186870Y-34684290D01*
X68070698Y-34547522D01*
X67927840Y-34438924D01*
X67879764Y-34416681D01*
X68726562Y-33569883D01*
X68726561Y-33569882D01*
X68584046Y-33463196D01*
X68584038Y-33463191D01*
X68332957Y-33326091D01*
X68332958Y-33326091D01*
X68064895Y-33226109D01*
X67785362Y-33165300D01*
X67500001Y-33144891D01*
X67499999Y-33144891D01*
X67214637Y-33165300D01*
X66935104Y-33226109D01*
X66667041Y-33326091D01*
X66415961Y-33463191D01*
X66415953Y-33463196D01*
X66273437Y-33569882D01*
X66273436Y-33569883D01*
X67119607Y-34416053D01*
X66997787Y-34489350D01*
X66867508Y-34612757D01*
X66766804Y-34761284D01*
X66764218Y-34767771D01*
X65919883Y-33923436D01*
X65919882Y-33923437D01*
X65813196Y-34065953D01*
X65813191Y-34065961D01*
X65676091Y-34317042D01*
X65640182Y-34413319D01*
X65598310Y-34469252D01*
X65532846Y-34493669D01*
X65464573Y-34478817D01*
X65415168Y-34429412D01*
X65400000Y-34369985D01*
X65400000Y-29630014D01*
X65419685Y-29562975D01*
X65472489Y-29517220D01*
X65541647Y-29507276D01*
X65605203Y-29536301D01*
X65640182Y-29586681D01*
X65676089Y-29682953D01*
X65676091Y-29682957D01*
X65813191Y-29934038D01*
X65813196Y-29934046D01*
X65919882Y-30076561D01*
X65919883Y-30076562D01*
X66767258Y-29229187D01*
X66813130Y-29315710D01*
X66929302Y-29452478D01*
X67072160Y-29561076D01*
X67120234Y-29583317D01*
X66273436Y-30430115D01*
X66415960Y-30536807D01*
X66415961Y-30536808D01*
X66667042Y-30673908D01*
X66667041Y-30673908D01*
X66935104Y-30773890D01*
X67214637Y-30834699D01*
X67499999Y-30855109D01*
X67500001Y-30855109D01*
X67785362Y-30834699D01*
X68064895Y-30773890D01*
X68332958Y-30673908D01*
X68584047Y-30536803D01*
X68726561Y-30430116D01*
X68726562Y-30430115D01*
X67880393Y-29583945D01*
X68002213Y-29510650D01*
X68132492Y-29387243D01*
X68233196Y-29238716D01*
X68235781Y-29232228D01*
X69080115Y-30076562D01*
X69080116Y-30076561D01*
X69186803Y-29934047D01*
X69323908Y-29682958D01*
X69423890Y-29414895D01*
X69484699Y-29135362D01*
X69505109Y-28850001D01*
X69505109Y-28849998D01*
X69484699Y-28564637D01*
X69448884Y-28400000D01*
X83995197Y-28400000D01*
X84014397Y-28766353D01*
X84071784Y-29128684D01*
X84071784Y-29128686D01*
X84166736Y-29483051D01*
X84298204Y-29825535D01*
X84420409Y-30065375D01*
X85366079Y-29119705D01*
X85454477Y-29349223D01*
X85599248Y-29613395D01*
X85777937Y-29855914D01*
X85987356Y-30072452D01*
X86223769Y-30259145D01*
X86482956Y-30412662D01*
X86760292Y-30530263D01*
X86778863Y-30535350D01*
X85834623Y-31479589D01*
X86074464Y-31601795D01*
X86416948Y-31733263D01*
X86771314Y-31828215D01*
X86927969Y-31853027D01*
X86991103Y-31882956D01*
X87028035Y-31942267D01*
X87027037Y-32012130D01*
X86988427Y-32070363D01*
X86924464Y-32098477D01*
X86908571Y-32099500D01*
X85928552Y-32099500D01*
X85714566Y-32114804D01*
X85434962Y-32175628D01*
X85166833Y-32275635D01*
X84915690Y-32412770D01*
X84915682Y-32412775D01*
X84686612Y-32584254D01*
X84686594Y-32584270D01*
X84484270Y-32786594D01*
X84484254Y-32786612D01*
X84312775Y-33015682D01*
X84312770Y-33015690D01*
X84175635Y-33266833D01*
X84075628Y-33534962D01*
X84014804Y-33814566D01*
X83999500Y-34028552D01*
X83999500Y-37171448D01*
X84014804Y-37385433D01*
X84075628Y-37665037D01*
X84175635Y-37933166D01*
X84312770Y-38184309D01*
X84312775Y-38184317D01*
X84484254Y-38413387D01*
X84484270Y-38413405D01*
X84686594Y-38615729D01*
X84686612Y-38615745D01*
X84915682Y-38787224D01*
X84915690Y-38787229D01*
X85166833Y-38924364D01*
X85166832Y-38924364D01*
X85166836Y-38924365D01*
X85166839Y-38924367D01*
X85434954Y-39024369D01*
X85434960Y-39024370D01*
X85434962Y-39024371D01*
X85714566Y-39085195D01*
X85714568Y-39085195D01*
X85714572Y-39085196D01*
X85928552Y-39100500D01*
X89071448Y-39100500D01*
X89285428Y-39085196D01*
X89565046Y-39024369D01*
X89833161Y-38924367D01*
X90084315Y-38787226D01*
X90313395Y-38615739D01*
X90515739Y-38413395D01*
X90687226Y-38184315D01*
X90824367Y-37933161D01*
X90924369Y-37665046D01*
X90985196Y-37385428D01*
X91000500Y-37171448D01*
X91000500Y-34028552D01*
X90985196Y-33814572D01*
X90931967Y-33569883D01*
X90924371Y-33534962D01*
X90924370Y-33534960D01*
X90924369Y-33534954D01*
X90824367Y-33266839D01*
X90768922Y-33165300D01*
X90687229Y-33015690D01*
X90687224Y-33015682D01*
X90515745Y-32786612D01*
X90515729Y-32786594D01*
X90313405Y-32584270D01*
X90313387Y-32584254D01*
X90084317Y-32412775D01*
X90084309Y-32412770D01*
X89833166Y-32275635D01*
X89833167Y-32275635D01*
X89725915Y-32235632D01*
X89565046Y-32175631D01*
X89565043Y-32175630D01*
X89565037Y-32175628D01*
X89285433Y-32114804D01*
X89071448Y-32099500D01*
X88091429Y-32099500D01*
X88024390Y-32079815D01*
X87978635Y-32027011D01*
X87968691Y-31957853D01*
X87997716Y-31894297D01*
X88056494Y-31856523D01*
X88072031Y-31853027D01*
X88228684Y-31828215D01*
X88228686Y-31828215D01*
X88583051Y-31733263D01*
X88925535Y-31601795D01*
X89165375Y-31479589D01*
X88218190Y-30532404D01*
X88380342Y-30476099D01*
X88649204Y-30340237D01*
X88897558Y-30169751D01*
X89120973Y-29967684D01*
X89315462Y-29737642D01*
X89477554Y-29483729D01*
X89604356Y-29210477D01*
X89632846Y-29118632D01*
X90579589Y-30065375D01*
X90701795Y-29825535D01*
X90833263Y-29483051D01*
X90928215Y-29128686D01*
X90928215Y-29128684D01*
X90985602Y-28766353D01*
X91004803Y-28400000D01*
X91004803Y-28399999D01*
X90985602Y-28033646D01*
X90928215Y-27671315D01*
X90928215Y-27671313D01*
X90833263Y-27316948D01*
X90701795Y-26974464D01*
X90579588Y-26734623D01*
X89633919Y-27680292D01*
X89545523Y-27450777D01*
X89400752Y-27186605D01*
X89222063Y-26944086D01*
X89012644Y-26727548D01*
X88776231Y-26540855D01*
X88517044Y-26387338D01*
X88239708Y-26269737D01*
X88221136Y-26264649D01*
X89165375Y-25320409D01*
X88925535Y-25198204D01*
X88583051Y-25066736D01*
X88333996Y-25000002D01*
X106694652Y-25000002D01*
X106714028Y-25357368D01*
X106714029Y-25357385D01*
X106771926Y-25710539D01*
X106771932Y-25710565D01*
X106867672Y-26055392D01*
X106867674Y-26055399D01*
X107000142Y-26387870D01*
X107000151Y-26387888D01*
X107167784Y-26704077D01*
X107167787Y-26704082D01*
X107167789Y-26704085D01*
X107351110Y-26974464D01*
X107368634Y-27000309D01*
X107368641Y-27000319D01*
X107526874Y-27186605D01*
X107600332Y-27273086D01*
X107860163Y-27519211D01*
X108145081Y-27735800D01*
X108451747Y-27920315D01*
X108451749Y-27920316D01*
X108451751Y-27920317D01*
X108451755Y-27920319D01*
X108761402Y-28063576D01*
X108776565Y-28070591D01*
X109115726Y-28184868D01*
X109465254Y-28261805D01*
X109821052Y-28300500D01*
X109821058Y-28300500D01*
X110178942Y-28300500D01*
X110178948Y-28300500D01*
X110534746Y-28261805D01*
X110884274Y-28184868D01*
X111223435Y-28070591D01*
X111548253Y-27920315D01*
X111854919Y-27735800D01*
X112139837Y-27519211D01*
X112399668Y-27273086D01*
X112631365Y-27000311D01*
X112832211Y-26704085D01*
X112999853Y-26387880D01*
X113132324Y-26055403D01*
X113228071Y-25710552D01*
X113285972Y-25357371D01*
X113305348Y-25000000D01*
X113285972Y-24642629D01*
X113242352Y-24376561D01*
X113228073Y-24289460D01*
X113228072Y-24289459D01*
X113228071Y-24289448D01*
X113142975Y-23982957D01*
X113132327Y-23944607D01*
X113132325Y-23944600D01*
X113129067Y-23936424D01*
X113055777Y-23752478D01*
X112999857Y-23612129D01*
X112999848Y-23612111D01*
X112832215Y-23295922D01*
X112832213Y-23295919D01*
X112832211Y-23295915D01*
X112631365Y-22999689D01*
X112631361Y-22999684D01*
X112631358Y-22999680D01*
X112399668Y-22726914D01*
X112354670Y-22684290D01*
X112139837Y-22480789D01*
X112139830Y-22480783D01*
X112139827Y-22480781D01*
X112029397Y-22396835D01*
X111854919Y-22264200D01*
X111548253Y-22079685D01*
X111548252Y-22079684D01*
X111548248Y-22079682D01*
X111548244Y-22079680D01*
X111223447Y-21929414D01*
X111223441Y-21929411D01*
X111223435Y-21929409D01*
X111053854Y-21872270D01*
X110884273Y-21815131D01*
X110534744Y-21738194D01*
X110178949Y-21699500D01*
X110178948Y-21699500D01*
X109821052Y-21699500D01*
X109821050Y-21699500D01*
X109465255Y-21738194D01*
X109115726Y-21815131D01*
X108859970Y-21901306D01*
X108776565Y-21929409D01*
X108776563Y-21929410D01*
X108776552Y-21929414D01*
X108451755Y-22079680D01*
X108451751Y-22079682D01*
X108223367Y-22217096D01*
X108145081Y-22264200D01*
X108075570Y-22317041D01*
X107860172Y-22480781D01*
X107860163Y-22480789D01*
X107600331Y-22726914D01*
X107368641Y-22999680D01*
X107368634Y-22999690D01*
X107167790Y-23295913D01*
X107167784Y-23295922D01*
X107000151Y-23612111D01*
X107000142Y-23612129D01*
X106867674Y-23944600D01*
X106867672Y-23944607D01*
X106771932Y-24289434D01*
X106771926Y-24289460D01*
X106714029Y-24642614D01*
X106714028Y-24642631D01*
X106694652Y-24999997D01*
X106694652Y-25000002D01*
X88333996Y-25000002D01*
X88228685Y-24971784D01*
X87866353Y-24914397D01*
X87500001Y-24895197D01*
X87499999Y-24895197D01*
X87133646Y-24914397D01*
X86771315Y-24971784D01*
X86771313Y-24971784D01*
X86416948Y-25066736D01*
X86074464Y-25198204D01*
X85834624Y-25320410D01*
X86781809Y-26267595D01*
X86619658Y-26323901D01*
X86350796Y-26459763D01*
X86102442Y-26630249D01*
X85879027Y-26832316D01*
X85684538Y-27062358D01*
X85522446Y-27316271D01*
X85395644Y-27589523D01*
X85367153Y-27681367D01*
X84420410Y-26734624D01*
X84298204Y-26974464D01*
X84166736Y-27316948D01*
X84071784Y-27671313D01*
X84071784Y-27671315D01*
X84014397Y-28033646D01*
X83995197Y-28399999D01*
X83995197Y-28400000D01*
X69448884Y-28400000D01*
X69423890Y-28285104D01*
X69323908Y-28017041D01*
X69186808Y-27765961D01*
X69186807Y-27765960D01*
X69080115Y-27623436D01*
X68232740Y-28470811D01*
X68186870Y-28384290D01*
X68070698Y-28247522D01*
X67927840Y-28138924D01*
X67879764Y-28116681D01*
X68726562Y-27269883D01*
X68726561Y-27269882D01*
X68584046Y-27163196D01*
X68584038Y-27163191D01*
X68332957Y-27026091D01*
X68332958Y-27026091D01*
X68064895Y-26926109D01*
X67785362Y-26865300D01*
X67500001Y-26844891D01*
X67499999Y-26844891D01*
X67214637Y-26865300D01*
X66935104Y-26926109D01*
X66667041Y-27026091D01*
X66415961Y-27163191D01*
X66415953Y-27163196D01*
X66273437Y-27269882D01*
X66273436Y-27269883D01*
X67119607Y-28116053D01*
X66997787Y-28189350D01*
X66867508Y-28312757D01*
X66766804Y-28461284D01*
X66764218Y-28467771D01*
X65919883Y-27623436D01*
X65919882Y-27623437D01*
X65813196Y-27765953D01*
X65813191Y-27765961D01*
X65676091Y-28017042D01*
X65640182Y-28113319D01*
X65598310Y-28169252D01*
X65532846Y-28193669D01*
X65464573Y-28178817D01*
X65415168Y-28129412D01*
X65400000Y-28069985D01*
X65400000Y-23930014D01*
X65419685Y-23862975D01*
X65472489Y-23817220D01*
X65541647Y-23807276D01*
X65605203Y-23836301D01*
X65640182Y-23886681D01*
X65676089Y-23982953D01*
X65676091Y-23982957D01*
X65813191Y-24234038D01*
X65813196Y-24234046D01*
X65919882Y-24376561D01*
X65919883Y-24376562D01*
X66767258Y-23529187D01*
X66813130Y-23615710D01*
X66929302Y-23752478D01*
X67072160Y-23861076D01*
X67120234Y-23883317D01*
X66273436Y-24730115D01*
X66415960Y-24836807D01*
X66415961Y-24836808D01*
X66667042Y-24973908D01*
X66667041Y-24973908D01*
X66935104Y-25073890D01*
X67214637Y-25134699D01*
X67499999Y-25155109D01*
X67500001Y-25155109D01*
X67785362Y-25134699D01*
X68064895Y-25073890D01*
X68332958Y-24973908D01*
X68584047Y-24836803D01*
X68726561Y-24730116D01*
X68726562Y-24730115D01*
X67880393Y-23883945D01*
X68002213Y-23810650D01*
X68132492Y-23687243D01*
X68233196Y-23538716D01*
X68235781Y-23532228D01*
X69080115Y-24376562D01*
X69080116Y-24376561D01*
X69186803Y-24234047D01*
X69323908Y-23982958D01*
X69423890Y-23714895D01*
X69484699Y-23435362D01*
X69505109Y-23150001D01*
X69505109Y-23149998D01*
X69484699Y-22864637D01*
X69423890Y-22585104D01*
X69323908Y-22317041D01*
X69186808Y-22065961D01*
X69186807Y-22065960D01*
X69080115Y-21923436D01*
X68232740Y-22770811D01*
X68186870Y-22684290D01*
X68070698Y-22547522D01*
X67927840Y-22438924D01*
X67879764Y-22416681D01*
X68726562Y-21569883D01*
X68726561Y-21569882D01*
X68584046Y-21463196D01*
X68584038Y-21463191D01*
X68332957Y-21326091D01*
X68332958Y-21326091D01*
X68064895Y-21226109D01*
X67785362Y-21165300D01*
X67500001Y-21144891D01*
X67499999Y-21144891D01*
X67214637Y-21165300D01*
X66935104Y-21226109D01*
X66667041Y-21326091D01*
X66415961Y-21463191D01*
X66415953Y-21463196D01*
X66273437Y-21569882D01*
X66273436Y-21569883D01*
X67119607Y-22416053D01*
X66997787Y-22489350D01*
X66867508Y-22612757D01*
X66766804Y-22761284D01*
X66764218Y-22767771D01*
X65919883Y-21923436D01*
X65919882Y-21923437D01*
X65813196Y-22065953D01*
X65813191Y-22065961D01*
X65676091Y-22317042D01*
X65640182Y-22413319D01*
X65598310Y-22469252D01*
X65532846Y-22493669D01*
X65464573Y-22478817D01*
X65415168Y-22429412D01*
X65400000Y-22369985D01*
X65400000Y-20624500D01*
X65419685Y-20557461D01*
X65472489Y-20511706D01*
X65524000Y-20500500D01*
X114375500Y-20500500D01*
X114442539Y-20520185D01*
G37*
%TD.AperFunction*%
%TD*%
%TA.AperFunction,NonConductor*%
G36*
X29759981Y-45019685D02*
G01*
X29794246Y-45052492D01*
X29944560Y-45265439D01*
X30131365Y-45465457D01*
X30250102Y-45562056D01*
X30343655Y-45638168D01*
X30343657Y-45638169D01*
X30343658Y-45638170D01*
X30577490Y-45780366D01*
X30781222Y-45868858D01*
X30828508Y-45889398D01*
X31092035Y-45963235D01*
X31330399Y-45995996D01*
X31363161Y-46000500D01*
X31363162Y-46000500D01*
X54136839Y-46000500D01*
X54166068Y-45996482D01*
X54407965Y-45963235D01*
X54671492Y-45889398D01*
X54922511Y-45780365D01*
X55156345Y-45638168D01*
X55368638Y-45465454D01*
X55555437Y-45265442D01*
X55571581Y-45242570D01*
X55705754Y-45052492D01*
X55760496Y-45009074D01*
X55807058Y-45000000D01*
X79192942Y-45000000D01*
X79259981Y-45019685D01*
X79294246Y-45052492D01*
X79444560Y-45265439D01*
X79631365Y-45465457D01*
X79750102Y-45562056D01*
X79843655Y-45638168D01*
X79843657Y-45638169D01*
X79843658Y-45638170D01*
X80077490Y-45780366D01*
X80281222Y-45868858D01*
X80328508Y-45889398D01*
X80592035Y-45963235D01*
X80830399Y-45995996D01*
X80863161Y-46000500D01*
X80863162Y-46000500D01*
X103636839Y-46000500D01*
X103666068Y-45996482D01*
X103907965Y-45963235D01*
X104171492Y-45889398D01*
X104422511Y-45780365D01*
X104656345Y-45638168D01*
X104868638Y-45465454D01*
X105055437Y-45265442D01*
X105071581Y-45242570D01*
X105205754Y-45052492D01*
X105260496Y-45009074D01*
X105307058Y-45000000D01*
X114375500Y-45000000D01*
X114442539Y-45019685D01*
X114488294Y-45072489D01*
X114499500Y-45124000D01*
X114499500Y-114375500D01*
X114479815Y-114442539D01*
X114427011Y-114488294D01*
X114375500Y-114499500D01*
X20624500Y-114499500D01*
X20557461Y-114479815D01*
X20511706Y-114427011D01*
X20500500Y-114375500D01*
X20500500Y-110000002D01*
X21694652Y-110000002D01*
X21714028Y-110357368D01*
X21714029Y-110357385D01*
X21771926Y-110710539D01*
X21771932Y-110710565D01*
X21867672Y-111055392D01*
X21867674Y-111055399D01*
X22000142Y-111387870D01*
X22000151Y-111387888D01*
X22167784Y-111704077D01*
X22167790Y-111704086D01*
X22368634Y-112000309D01*
X22368641Y-112000319D01*
X22600331Y-112273085D01*
X22600332Y-112273086D01*
X22860163Y-112519211D01*
X23145081Y-112735800D01*
X23451747Y-112920315D01*
X23451749Y-112920316D01*
X23451751Y-112920317D01*
X23451755Y-112920319D01*
X23776552Y-113070585D01*
X23776565Y-113070591D01*
X24115726Y-113184868D01*
X24465254Y-113261805D01*
X24821052Y-113300500D01*
X24821058Y-113300500D01*
X25178942Y-113300500D01*
X25178948Y-113300500D01*
X25534746Y-113261805D01*
X25884274Y-113184868D01*
X26223435Y-113070591D01*
X26548253Y-112920315D01*
X26854919Y-112735800D01*
X27139837Y-112519211D01*
X27399668Y-112273086D01*
X27631365Y-112000311D01*
X27832211Y-111704085D01*
X27999853Y-111387880D01*
X28132324Y-111055403D01*
X28228071Y-110710552D01*
X28285972Y-110357371D01*
X28305348Y-110000002D01*
X106694652Y-110000002D01*
X106714028Y-110357368D01*
X106714029Y-110357385D01*
X106771926Y-110710539D01*
X106771932Y-110710565D01*
X106867672Y-111055392D01*
X106867674Y-111055399D01*
X107000142Y-111387870D01*
X107000151Y-111387888D01*
X107167784Y-111704077D01*
X107167790Y-111704086D01*
X107368634Y-112000309D01*
X107368641Y-112000319D01*
X107600331Y-112273085D01*
X107600332Y-112273086D01*
X107860163Y-112519211D01*
X108145081Y-112735800D01*
X108451747Y-112920315D01*
X108451749Y-112920316D01*
X108451751Y-112920317D01*
X108451755Y-112920319D01*
X108776552Y-113070585D01*
X108776565Y-113070591D01*
X109115726Y-113184868D01*
X109465254Y-113261805D01*
X109821052Y-113300500D01*
X109821058Y-113300500D01*
X110178942Y-113300500D01*
X110178948Y-113300500D01*
X110534746Y-113261805D01*
X110884274Y-113184868D01*
X111223435Y-113070591D01*
X111548253Y-112920315D01*
X111854919Y-112735800D01*
X112139837Y-112519211D01*
X112399668Y-112273086D01*
X112631365Y-112000311D01*
X112832211Y-111704085D01*
X112999853Y-111387880D01*
X113132324Y-111055403D01*
X113228071Y-110710552D01*
X113285972Y-110357371D01*
X113305348Y-110000000D01*
X113285972Y-109642629D01*
X113228071Y-109289448D01*
X113132324Y-108944597D01*
X112999853Y-108612120D01*
X112832211Y-108295915D01*
X112631365Y-107999689D01*
X112631361Y-107999684D01*
X112631358Y-107999680D01*
X112399668Y-107726914D01*
X112139837Y-107480789D01*
X112139830Y-107480783D01*
X112139827Y-107480781D01*
X112072245Y-107429407D01*
X111854919Y-107264200D01*
X111548253Y-107079685D01*
X111548252Y-107079684D01*
X111548248Y-107079682D01*
X111548244Y-107079680D01*
X111223447Y-106929414D01*
X111223441Y-106929411D01*
X111223435Y-106929409D01*
X111053854Y-106872270D01*
X110884273Y-106815131D01*
X110534744Y-106738194D01*
X110178949Y-106699500D01*
X110178948Y-106699500D01*
X109821052Y-106699500D01*
X109821050Y-106699500D01*
X109465255Y-106738194D01*
X109115726Y-106815131D01*
X108859970Y-106901306D01*
X108776565Y-106929409D01*
X108776563Y-106929410D01*
X108776552Y-106929414D01*
X108451755Y-107079680D01*
X108451751Y-107079682D01*
X108223367Y-107217096D01*
X108145081Y-107264200D01*
X108056768Y-107331333D01*
X107860172Y-107480781D01*
X107860163Y-107480789D01*
X107600331Y-107726914D01*
X107368641Y-107999680D01*
X107368634Y-107999690D01*
X107167790Y-108295913D01*
X107167784Y-108295922D01*
X107000151Y-108612111D01*
X107000142Y-108612129D01*
X106867674Y-108944600D01*
X106867672Y-108944607D01*
X106771932Y-109289434D01*
X106771926Y-109289460D01*
X106714029Y-109642614D01*
X106714028Y-109642631D01*
X106694652Y-109999997D01*
X106694652Y-110000002D01*
X28305348Y-110000002D01*
X28305348Y-110000000D01*
X28285972Y-109642629D01*
X28228071Y-109289448D01*
X28132324Y-108944597D01*
X27999853Y-108612120D01*
X27832211Y-108295915D01*
X27631365Y-107999689D01*
X27631361Y-107999684D01*
X27631358Y-107999680D01*
X27399668Y-107726914D01*
X27139837Y-107480789D01*
X27139830Y-107480783D01*
X27139827Y-107480781D01*
X27072245Y-107429407D01*
X26854919Y-107264200D01*
X26548253Y-107079685D01*
X26548252Y-107079684D01*
X26548248Y-107079682D01*
X26548244Y-107079680D01*
X26223447Y-106929414D01*
X26223441Y-106929411D01*
X26223435Y-106929409D01*
X26053854Y-106872270D01*
X25884273Y-106815131D01*
X25534744Y-106738194D01*
X25178949Y-106699500D01*
X25178948Y-106699500D01*
X24821052Y-106699500D01*
X24821050Y-106699500D01*
X24465255Y-106738194D01*
X24115726Y-106815131D01*
X23859970Y-106901306D01*
X23776565Y-106929409D01*
X23776563Y-106929410D01*
X23776552Y-106929414D01*
X23451755Y-107079680D01*
X23451751Y-107079682D01*
X23223367Y-107217096D01*
X23145081Y-107264200D01*
X23056768Y-107331333D01*
X22860172Y-107480781D01*
X22860163Y-107480789D01*
X22600331Y-107726914D01*
X22368641Y-107999680D01*
X22368634Y-107999690D01*
X22167790Y-108295913D01*
X22167784Y-108295922D01*
X22000151Y-108612111D01*
X22000142Y-108612129D01*
X21867674Y-108944600D01*
X21867672Y-108944607D01*
X21771932Y-109289434D01*
X21771926Y-109289460D01*
X21714029Y-109642614D01*
X21714028Y-109642631D01*
X21694652Y-109999997D01*
X21694652Y-110000002D01*
X20500500Y-110000002D01*
X20500500Y-91000000D01*
X29494825Y-91000000D01*
X29513500Y-91273038D01*
X29513501Y-91273040D01*
X29569178Y-91540979D01*
X29569183Y-91540995D01*
X29660829Y-91798860D01*
X29660828Y-91798860D01*
X29786740Y-92041858D01*
X29786744Y-92041864D01*
X29944560Y-92265439D01*
X30131365Y-92465457D01*
X30250102Y-92562056D01*
X30343655Y-92638168D01*
X30343657Y-92638169D01*
X30343658Y-92638170D01*
X30577490Y-92780366D01*
X30781222Y-92868858D01*
X30828508Y-92889398D01*
X31092035Y-92963235D01*
X31330399Y-92995996D01*
X31363161Y-93000500D01*
X31363162Y-93000500D01*
X54136839Y-93000500D01*
X54166068Y-92996482D01*
X54407965Y-92963235D01*
X54671492Y-92889398D01*
X54922511Y-92780365D01*
X55156345Y-92638168D01*
X55368638Y-92465454D01*
X55555437Y-92265442D01*
X55713260Y-92041857D01*
X55839169Y-91798864D01*
X55930818Y-91540990D01*
X55930818Y-91540985D01*
X55930821Y-91540979D01*
X55961441Y-91393620D01*
X55986499Y-91273038D01*
X56005175Y-91000000D01*
X78994825Y-91000000D01*
X79013500Y-91273038D01*
X79013501Y-91273040D01*
X79069178Y-91540979D01*
X79069183Y-91540995D01*
X79160829Y-91798860D01*
X79160828Y-91798860D01*
X79286740Y-92041858D01*
X79286744Y-92041864D01*
X79444560Y-92265439D01*
X79631365Y-92465457D01*
X79750102Y-92562056D01*
X79843655Y-92638168D01*
X79843657Y-92638169D01*
X79843658Y-92638170D01*
X80077490Y-92780366D01*
X80281222Y-92868858D01*
X80328508Y-92889398D01*
X80592035Y-92963235D01*
X80830399Y-92995996D01*
X80863161Y-93000500D01*
X80863162Y-93000500D01*
X103636839Y-93000500D01*
X103666068Y-92996482D01*
X103907965Y-92963235D01*
X104171492Y-92889398D01*
X104422511Y-92780365D01*
X104656345Y-92638168D01*
X104868638Y-92465454D01*
X105055437Y-92265442D01*
X105213260Y-92041857D01*
X105339169Y-91798864D01*
X105430818Y-91540990D01*
X105430818Y-91540985D01*
X105430821Y-91540979D01*
X105461441Y-91393620D01*
X105486499Y-91273038D01*
X105505175Y-91000000D01*
X105486499Y-90726962D01*
X105450658Y-90554485D01*
X105430821Y-90459020D01*
X105430816Y-90459004D01*
X105339170Y-90201139D01*
X105339171Y-90201139D01*
X105213259Y-89958141D01*
X105213255Y-89958135D01*
X105055439Y-89734560D01*
X104868634Y-89534542D01*
X104656341Y-89361829D01*
X104422509Y-89219633D01*
X104171493Y-89110602D01*
X103907970Y-89036766D01*
X103907966Y-89036765D01*
X103907965Y-89036765D01*
X103772401Y-89018132D01*
X103636839Y-88999500D01*
X103636838Y-88999500D01*
X103535799Y-88999500D01*
X81065892Y-88999500D01*
X81000000Y-88999500D01*
X80863162Y-88999500D01*
X80863161Y-88999500D01*
X80592035Y-89036765D01*
X80592029Y-89036766D01*
X80328506Y-89110602D01*
X80077490Y-89219633D01*
X79843658Y-89361829D01*
X79631365Y-89534542D01*
X79444560Y-89734560D01*
X79286744Y-89958135D01*
X79286740Y-89958141D01*
X79160829Y-90201139D01*
X79069183Y-90459004D01*
X79069178Y-90459020D01*
X79013501Y-90726959D01*
X79013500Y-90726961D01*
X78994825Y-91000000D01*
X56005175Y-91000000D01*
X55986499Y-90726962D01*
X55950658Y-90554485D01*
X55930821Y-90459020D01*
X55930816Y-90459004D01*
X55839170Y-90201139D01*
X55839171Y-90201139D01*
X55713259Y-89958141D01*
X55713255Y-89958135D01*
X55555439Y-89734560D01*
X55368634Y-89534542D01*
X55156341Y-89361829D01*
X54922509Y-89219633D01*
X54671493Y-89110602D01*
X54407970Y-89036766D01*
X54407966Y-89036765D01*
X54407965Y-89036765D01*
X54272401Y-89018132D01*
X54136839Y-88999500D01*
X54136838Y-88999500D01*
X54035799Y-88999500D01*
X31565892Y-88999500D01*
X31500000Y-88999500D01*
X31363162Y-88999500D01*
X31363161Y-88999500D01*
X31092035Y-89036765D01*
X31092029Y-89036766D01*
X30828506Y-89110602D01*
X30577490Y-89219633D01*
X30343658Y-89361829D01*
X30131365Y-89534542D01*
X29944560Y-89734560D01*
X29786744Y-89958135D01*
X29786740Y-89958141D01*
X29660829Y-90201139D01*
X29569183Y-90459004D01*
X29569178Y-90459020D01*
X29513501Y-90726959D01*
X29513500Y-90726961D01*
X29494825Y-91000000D01*
X20500500Y-91000000D01*
X20500500Y-45124000D01*
X20520185Y-45056961D01*
X20572989Y-45011206D01*
X20624500Y-45000000D01*
X29692942Y-45000000D01*
X29759981Y-45019685D01*
G37*
%TD.AperFunction*%
%TA.AperFunction,Conductor*%
%TO.N,/PWR_OUT*%
G36*
X64743039Y-20520185D02*
G01*
X64788794Y-20572989D01*
X64800000Y-20624500D01*
X64800000Y-21978191D01*
X64780315Y-22045230D01*
X64727511Y-22090985D01*
X64658353Y-22100929D01*
X64594797Y-22071904D01*
X64576733Y-22052502D01*
X64480115Y-21923436D01*
X63632740Y-22770811D01*
X63586870Y-22684290D01*
X63470698Y-22547522D01*
X63327840Y-22438924D01*
X63279764Y-22416681D01*
X64126562Y-21569883D01*
X64126561Y-21569882D01*
X63984046Y-21463196D01*
X63984038Y-21463191D01*
X63732957Y-21326091D01*
X63732958Y-21326091D01*
X63464895Y-21226109D01*
X63185362Y-21165300D01*
X62900001Y-21144891D01*
X62899999Y-21144891D01*
X62614637Y-21165300D01*
X62335104Y-21226109D01*
X62067041Y-21326091D01*
X61815961Y-21463191D01*
X61815953Y-21463196D01*
X61673437Y-21569882D01*
X61673436Y-21569883D01*
X62519607Y-22416053D01*
X62397787Y-22489350D01*
X62267508Y-22612757D01*
X62166804Y-22761284D01*
X62164218Y-22767771D01*
X61319883Y-21923436D01*
X61319882Y-21923437D01*
X61213196Y-22065953D01*
X61213191Y-22065961D01*
X61076091Y-22317041D01*
X60976109Y-22585104D01*
X60915300Y-22864637D01*
X60894891Y-23149998D01*
X60894891Y-23150001D01*
X60915300Y-23435362D01*
X60976109Y-23714895D01*
X61076091Y-23982958D01*
X61213191Y-24234038D01*
X61213196Y-24234046D01*
X61319882Y-24376561D01*
X61319883Y-24376562D01*
X62167258Y-23529187D01*
X62213130Y-23615710D01*
X62329302Y-23752478D01*
X62472160Y-23861076D01*
X62520234Y-23883317D01*
X61673436Y-24730115D01*
X61815960Y-24836807D01*
X61815961Y-24836808D01*
X62067042Y-24973908D01*
X62067041Y-24973908D01*
X62335104Y-25073890D01*
X62614637Y-25134699D01*
X62899999Y-25155109D01*
X62900001Y-25155109D01*
X63185362Y-25134699D01*
X63464895Y-25073890D01*
X63732958Y-24973908D01*
X63984047Y-24836803D01*
X64126561Y-24730116D01*
X64126562Y-24730115D01*
X63280393Y-23883945D01*
X63402213Y-23810650D01*
X63532492Y-23687243D01*
X63633196Y-23538716D01*
X63635781Y-23532228D01*
X64480115Y-24376562D01*
X64576733Y-24247498D01*
X64632667Y-24205627D01*
X64702359Y-24200643D01*
X64763682Y-24234128D01*
X64797166Y-24295452D01*
X64800000Y-24321809D01*
X64800000Y-27678191D01*
X64780315Y-27745230D01*
X64727511Y-27790985D01*
X64658353Y-27800929D01*
X64594797Y-27771904D01*
X64576733Y-27752502D01*
X64480115Y-27623436D01*
X63632740Y-28470811D01*
X63586870Y-28384290D01*
X63470698Y-28247522D01*
X63327840Y-28138924D01*
X63279764Y-28116681D01*
X64126562Y-27269883D01*
X64126561Y-27269882D01*
X63984046Y-27163196D01*
X63984038Y-27163191D01*
X63732957Y-27026091D01*
X63732958Y-27026091D01*
X63464895Y-26926109D01*
X63185362Y-26865300D01*
X62900001Y-26844891D01*
X62899999Y-26844891D01*
X62614637Y-26865300D01*
X62335104Y-26926109D01*
X62067041Y-27026091D01*
X61815961Y-27163191D01*
X61815953Y-27163196D01*
X61673437Y-27269882D01*
X61673436Y-27269883D01*
X62519607Y-28116053D01*
X62397787Y-28189350D01*
X62267508Y-28312757D01*
X62166804Y-28461284D01*
X62164218Y-28467771D01*
X61319883Y-27623436D01*
X61319882Y-27623437D01*
X61213196Y-27765953D01*
X61213191Y-27765961D01*
X61076091Y-28017041D01*
X60976109Y-28285104D01*
X60915300Y-28564637D01*
X60894891Y-28849998D01*
X60894891Y-28850001D01*
X60915300Y-29135362D01*
X60976109Y-29414895D01*
X61076091Y-29682958D01*
X61213191Y-29934038D01*
X61213196Y-29934046D01*
X61319882Y-30076561D01*
X61319883Y-30076562D01*
X62167258Y-29229187D01*
X62213130Y-29315710D01*
X62329302Y-29452478D01*
X62472160Y-29561076D01*
X62520234Y-29583317D01*
X61673436Y-30430115D01*
X61815960Y-30536807D01*
X61815961Y-30536808D01*
X62067042Y-30673908D01*
X62067041Y-30673908D01*
X62335104Y-30773890D01*
X62614637Y-30834699D01*
X62899999Y-30855109D01*
X62900001Y-30855109D01*
X63185362Y-30834699D01*
X63464895Y-30773890D01*
X63732958Y-30673908D01*
X63984047Y-30536803D01*
X64126561Y-30430116D01*
X64126562Y-30430115D01*
X63280393Y-29583945D01*
X63402213Y-29510650D01*
X63532492Y-29387243D01*
X63633196Y-29238716D01*
X63635781Y-29232228D01*
X64480115Y-30076562D01*
X64576733Y-29947498D01*
X64632667Y-29905627D01*
X64702359Y-29900643D01*
X64763682Y-29934128D01*
X64797166Y-29995452D01*
X64800000Y-30021809D01*
X64800000Y-33978191D01*
X64780315Y-34045230D01*
X64727511Y-34090985D01*
X64658353Y-34100929D01*
X64594797Y-34071904D01*
X64576733Y-34052502D01*
X64480115Y-33923436D01*
X63632740Y-34770811D01*
X63586870Y-34684290D01*
X63470698Y-34547522D01*
X63327840Y-34438924D01*
X63279764Y-34416681D01*
X64126562Y-33569883D01*
X64126561Y-33569882D01*
X63984046Y-33463196D01*
X63984038Y-33463191D01*
X63732957Y-33326091D01*
X63732958Y-33326091D01*
X63464895Y-33226109D01*
X63185362Y-33165300D01*
X62900001Y-33144891D01*
X62899999Y-33144891D01*
X62614637Y-33165300D01*
X62335104Y-33226109D01*
X62067041Y-33326091D01*
X61815961Y-33463191D01*
X61815953Y-33463196D01*
X61673437Y-33569882D01*
X61673436Y-33569883D01*
X62519607Y-34416053D01*
X62397787Y-34489350D01*
X62267508Y-34612757D01*
X62166804Y-34761284D01*
X62164218Y-34767771D01*
X61319883Y-33923436D01*
X61319882Y-33923437D01*
X61213196Y-34065953D01*
X61213191Y-34065961D01*
X61076091Y-34317041D01*
X60976109Y-34585104D01*
X60915300Y-34864637D01*
X60894891Y-35149998D01*
X60894891Y-35150001D01*
X60915300Y-35435362D01*
X60976109Y-35714895D01*
X61076091Y-35982958D01*
X61213191Y-36234038D01*
X61213196Y-36234046D01*
X61319882Y-36376561D01*
X61319883Y-36376562D01*
X62167258Y-35529187D01*
X62213130Y-35615710D01*
X62329302Y-35752478D01*
X62472160Y-35861076D01*
X62520234Y-35883317D01*
X61673436Y-36730115D01*
X61815960Y-36836807D01*
X61815961Y-36836808D01*
X62067042Y-36973908D01*
X62067041Y-36973908D01*
X62335104Y-37073890D01*
X62614637Y-37134699D01*
X62899999Y-37155109D01*
X62900001Y-37155109D01*
X63185362Y-37134699D01*
X63464895Y-37073890D01*
X63732958Y-36973908D01*
X63984047Y-36836803D01*
X64126561Y-36730116D01*
X64126562Y-36730115D01*
X63280393Y-35883945D01*
X63402213Y-35810650D01*
X63532492Y-35687243D01*
X63633196Y-35538716D01*
X63635781Y-35532228D01*
X64480115Y-36376562D01*
X64576733Y-36247498D01*
X64632667Y-36205627D01*
X64702359Y-36200643D01*
X64763682Y-36234128D01*
X64797166Y-36295452D01*
X64800000Y-36321809D01*
X64800000Y-39678191D01*
X64780315Y-39745230D01*
X64727511Y-39790985D01*
X64658353Y-39800929D01*
X64594797Y-39771904D01*
X64576733Y-39752502D01*
X64480115Y-39623436D01*
X63632740Y-40470811D01*
X63586870Y-40384290D01*
X63470698Y-40247522D01*
X63327840Y-40138924D01*
X63279764Y-40116681D01*
X64126562Y-39269883D01*
X64126561Y-39269882D01*
X63984046Y-39163196D01*
X63984038Y-39163191D01*
X63732957Y-39026091D01*
X63732958Y-39026091D01*
X63464895Y-38926109D01*
X63185362Y-38865300D01*
X62900001Y-38844891D01*
X62899999Y-38844891D01*
X62614637Y-38865300D01*
X62335104Y-38926109D01*
X62067041Y-39026091D01*
X61815961Y-39163191D01*
X61815953Y-39163196D01*
X61673437Y-39269882D01*
X61673436Y-39269883D01*
X62519607Y-40116053D01*
X62397787Y-40189350D01*
X62267508Y-40312757D01*
X62166804Y-40461284D01*
X62164218Y-40467771D01*
X61319883Y-39623436D01*
X61319882Y-39623437D01*
X61213196Y-39765953D01*
X61213191Y-39765961D01*
X61076091Y-40017041D01*
X60976109Y-40285104D01*
X60915300Y-40564637D01*
X60894891Y-40849998D01*
X60894891Y-40850001D01*
X60915300Y-41135362D01*
X60976109Y-41414895D01*
X61076091Y-41682958D01*
X61213191Y-41934038D01*
X61213196Y-41934046D01*
X61319882Y-42076561D01*
X61319883Y-42076562D01*
X62167258Y-41229187D01*
X62213130Y-41315710D01*
X62329302Y-41452478D01*
X62472160Y-41561076D01*
X62520234Y-41583317D01*
X61673436Y-42430115D01*
X61815960Y-42536807D01*
X61815961Y-42536808D01*
X62067042Y-42673908D01*
X62067041Y-42673908D01*
X62335104Y-42773890D01*
X62614637Y-42834699D01*
X62899999Y-42855109D01*
X62900001Y-42855109D01*
X63185362Y-42834699D01*
X63464895Y-42773890D01*
X63732958Y-42673908D01*
X63984047Y-42536803D01*
X64126561Y-42430116D01*
X64126562Y-42430115D01*
X63280393Y-41583945D01*
X63402213Y-41510650D01*
X63532492Y-41387243D01*
X63633196Y-41238716D01*
X63635781Y-41232228D01*
X64480115Y-42076562D01*
X64576733Y-41947498D01*
X64632667Y-41905627D01*
X64702359Y-41900643D01*
X64763682Y-41934128D01*
X64797166Y-41995452D01*
X64800000Y-42021809D01*
X64800000Y-44370500D01*
X64780315Y-44437539D01*
X64727511Y-44483294D01*
X64676000Y-44494500D01*
X56092895Y-44494500D01*
X56025856Y-44474815D01*
X55980101Y-44422011D01*
X55970157Y-44352853D01*
X55971489Y-44345272D01*
X55976458Y-44321356D01*
X55986499Y-44273038D01*
X56005175Y-44000000D01*
X55986499Y-43726962D01*
X55950658Y-43554485D01*
X55930821Y-43459020D01*
X55930816Y-43459004D01*
X55839170Y-43201139D01*
X55839171Y-43201139D01*
X55713259Y-42958141D01*
X55713255Y-42958135D01*
X55555439Y-42734560D01*
X55493170Y-42667887D01*
X55368638Y-42534546D01*
X55368636Y-42534545D01*
X55368634Y-42534542D01*
X55156341Y-42361829D01*
X54922509Y-42219633D01*
X54671493Y-42110602D01*
X54407970Y-42036766D01*
X54407966Y-42036765D01*
X54407965Y-42036765D01*
X54272401Y-42018132D01*
X54136839Y-41999500D01*
X54136838Y-41999500D01*
X54035799Y-41999500D01*
X31565892Y-41999500D01*
X31500000Y-41999500D01*
X31363162Y-41999500D01*
X31363161Y-41999500D01*
X31092035Y-42036765D01*
X31092029Y-42036766D01*
X30828506Y-42110602D01*
X30577490Y-42219633D01*
X30343658Y-42361829D01*
X30131365Y-42534542D01*
X29944560Y-42734560D01*
X29786744Y-42958135D01*
X29786740Y-42958141D01*
X29660829Y-43201139D01*
X29569183Y-43459004D01*
X29569178Y-43459020D01*
X29513501Y-43726959D01*
X29513500Y-43726961D01*
X29494825Y-44000000D01*
X29513500Y-44273038D01*
X29513501Y-44273040D01*
X29528511Y-44345272D01*
X29522878Y-44414914D01*
X29480488Y-44470455D01*
X29414799Y-44494261D01*
X29407105Y-44494500D01*
X20624500Y-44494500D01*
X20557461Y-44474815D01*
X20511706Y-44422011D01*
X20500500Y-44370500D01*
X20500500Y-28400000D01*
X43995197Y-28400000D01*
X44014397Y-28766353D01*
X44071784Y-29128684D01*
X44071784Y-29128686D01*
X44166736Y-29483051D01*
X44298204Y-29825535D01*
X44420409Y-30065375D01*
X45366079Y-29119705D01*
X45454477Y-29349223D01*
X45599248Y-29613395D01*
X45777937Y-29855914D01*
X45987356Y-30072452D01*
X46223769Y-30259145D01*
X46482956Y-30412662D01*
X46760292Y-30530263D01*
X46778863Y-30535350D01*
X45834623Y-31479589D01*
X46074464Y-31601795D01*
X46416948Y-31733263D01*
X46771314Y-31828215D01*
X46927969Y-31853027D01*
X46991103Y-31882956D01*
X47028035Y-31942267D01*
X47027037Y-32012130D01*
X46988427Y-32070363D01*
X46924464Y-32098477D01*
X46908571Y-32099500D01*
X45928552Y-32099500D01*
X45714566Y-32114804D01*
X45434962Y-32175628D01*
X45166833Y-32275635D01*
X44915690Y-32412770D01*
X44915682Y-32412775D01*
X44686612Y-32584254D01*
X44686594Y-32584270D01*
X44484270Y-32786594D01*
X44484254Y-32786612D01*
X44312775Y-33015682D01*
X44312770Y-33015690D01*
X44175635Y-33266833D01*
X44075628Y-33534962D01*
X44014804Y-33814566D01*
X43999500Y-34028552D01*
X43999500Y-37171448D01*
X44014804Y-37385433D01*
X44075628Y-37665037D01*
X44175635Y-37933166D01*
X44312770Y-38184309D01*
X44312775Y-38184317D01*
X44484254Y-38413387D01*
X44484270Y-38413405D01*
X44686594Y-38615729D01*
X44686612Y-38615745D01*
X44915682Y-38787224D01*
X44915690Y-38787229D01*
X45166833Y-38924364D01*
X45166832Y-38924364D01*
X45166836Y-38924365D01*
X45166839Y-38924367D01*
X45434954Y-39024369D01*
X45434960Y-39024370D01*
X45434962Y-39024371D01*
X45714566Y-39085195D01*
X45714568Y-39085195D01*
X45714572Y-39085196D01*
X45928552Y-39100500D01*
X49071448Y-39100500D01*
X49285428Y-39085196D01*
X49565046Y-39024369D01*
X49833161Y-38924367D01*
X50084315Y-38787226D01*
X50313395Y-38615739D01*
X50515739Y-38413395D01*
X50687226Y-38184315D01*
X50824367Y-37933161D01*
X50924369Y-37665046D01*
X50985196Y-37385428D01*
X51000500Y-37171448D01*
X51000500Y-34028552D01*
X50985196Y-33814572D01*
X50931967Y-33569883D01*
X50924371Y-33534962D01*
X50924370Y-33534960D01*
X50924369Y-33534954D01*
X50824367Y-33266839D01*
X50768922Y-33165300D01*
X50687229Y-33015690D01*
X50687224Y-33015682D01*
X50515745Y-32786612D01*
X50515729Y-32786594D01*
X50313405Y-32584270D01*
X50313387Y-32584254D01*
X50084317Y-32412775D01*
X50084309Y-32412770D01*
X49833166Y-32275635D01*
X49833167Y-32275635D01*
X49725915Y-32235632D01*
X49565046Y-32175631D01*
X49565043Y-32175630D01*
X49565037Y-32175628D01*
X49285433Y-32114804D01*
X49071448Y-32099500D01*
X48091429Y-32099500D01*
X48024390Y-32079815D01*
X47978635Y-32027011D01*
X47968691Y-31957853D01*
X47997716Y-31894297D01*
X48056494Y-31856523D01*
X48072031Y-31853027D01*
X48228684Y-31828215D01*
X48228686Y-31828215D01*
X48583051Y-31733263D01*
X48925535Y-31601795D01*
X49165375Y-31479589D01*
X48218190Y-30532404D01*
X48380342Y-30476099D01*
X48649204Y-30340237D01*
X48897558Y-30169751D01*
X49120973Y-29967684D01*
X49315462Y-29737642D01*
X49477554Y-29483729D01*
X49604356Y-29210477D01*
X49632846Y-29118632D01*
X50579589Y-30065375D01*
X50701795Y-29825535D01*
X50833263Y-29483051D01*
X50928215Y-29128686D01*
X50928215Y-29128684D01*
X50985602Y-28766353D01*
X51004803Y-28400000D01*
X51004803Y-28399999D01*
X50985602Y-28033646D01*
X50928215Y-27671315D01*
X50928215Y-27671313D01*
X50833263Y-27316948D01*
X50701795Y-26974464D01*
X50579588Y-26734623D01*
X49633919Y-27680292D01*
X49545523Y-27450777D01*
X49400752Y-27186605D01*
X49222063Y-26944086D01*
X49012644Y-26727548D01*
X48776231Y-26540855D01*
X48517044Y-26387338D01*
X48239708Y-26269737D01*
X48221136Y-26264649D01*
X49165375Y-25320409D01*
X48925535Y-25198204D01*
X48583051Y-25066736D01*
X48228685Y-24971784D01*
X47866353Y-24914397D01*
X47500001Y-24895197D01*
X47499999Y-24895197D01*
X47133646Y-24914397D01*
X46771315Y-24971784D01*
X46771313Y-24971784D01*
X46416948Y-25066736D01*
X46074464Y-25198204D01*
X45834624Y-25320410D01*
X46781809Y-26267595D01*
X46619658Y-26323901D01*
X46350796Y-26459763D01*
X46102442Y-26630249D01*
X45879027Y-26832316D01*
X45684538Y-27062358D01*
X45522446Y-27316271D01*
X45395644Y-27589523D01*
X45367153Y-27681367D01*
X44420410Y-26734624D01*
X44298204Y-26974464D01*
X44166736Y-27316948D01*
X44071784Y-27671313D01*
X44071784Y-27671315D01*
X44014397Y-28033646D01*
X43995197Y-28399999D01*
X43995197Y-28400000D01*
X20500500Y-28400000D01*
X20500500Y-25000002D01*
X21694652Y-25000002D01*
X21714028Y-25357368D01*
X21714029Y-25357385D01*
X21771926Y-25710539D01*
X21771932Y-25710565D01*
X21867672Y-26055392D01*
X21867674Y-26055399D01*
X22000142Y-26387870D01*
X22000151Y-26387888D01*
X22167784Y-26704077D01*
X22167787Y-26704082D01*
X22167789Y-26704085D01*
X22351110Y-26974464D01*
X22368634Y-27000309D01*
X22368641Y-27000319D01*
X22526874Y-27186605D01*
X22600332Y-27273086D01*
X22860163Y-27519211D01*
X23145081Y-27735800D01*
X23451747Y-27920315D01*
X23451749Y-27920316D01*
X23451751Y-27920317D01*
X23451755Y-27920319D01*
X23761402Y-28063576D01*
X23776565Y-28070591D01*
X24115726Y-28184868D01*
X24465254Y-28261805D01*
X24821052Y-28300500D01*
X24821058Y-28300500D01*
X25178942Y-28300500D01*
X25178948Y-28300500D01*
X25534746Y-28261805D01*
X25884274Y-28184868D01*
X26223435Y-28070591D01*
X26548253Y-27920315D01*
X26854919Y-27735800D01*
X27139837Y-27519211D01*
X27399668Y-27273086D01*
X27631365Y-27000311D01*
X27832211Y-26704085D01*
X27999853Y-26387880D01*
X28132324Y-26055403D01*
X28228071Y-25710552D01*
X28285972Y-25357371D01*
X28305348Y-25000000D01*
X28285972Y-24642629D01*
X28242352Y-24376561D01*
X28228073Y-24289460D01*
X28228072Y-24289459D01*
X28228071Y-24289448D01*
X28142975Y-23982958D01*
X28132327Y-23944607D01*
X28132325Y-23944600D01*
X28129067Y-23936424D01*
X28055777Y-23752478D01*
X27999857Y-23612129D01*
X27999848Y-23612111D01*
X27832215Y-23295922D01*
X27832213Y-23295919D01*
X27832211Y-23295915D01*
X27631365Y-22999689D01*
X27631361Y-22999684D01*
X27631358Y-22999680D01*
X27399668Y-22726914D01*
X27354670Y-22684290D01*
X27139837Y-22480789D01*
X27139830Y-22480783D01*
X27139827Y-22480781D01*
X27029397Y-22396835D01*
X26854919Y-22264200D01*
X26548253Y-22079685D01*
X26548252Y-22079684D01*
X26548248Y-22079682D01*
X26548244Y-22079680D01*
X26223447Y-21929414D01*
X26223441Y-21929411D01*
X26223435Y-21929409D01*
X26053854Y-21872270D01*
X25884273Y-21815131D01*
X25534744Y-21738194D01*
X25178949Y-21699500D01*
X25178948Y-21699500D01*
X24821052Y-21699500D01*
X24821050Y-21699500D01*
X24465255Y-21738194D01*
X24115726Y-21815131D01*
X23859970Y-21901306D01*
X23776565Y-21929409D01*
X23776563Y-21929410D01*
X23776552Y-21929414D01*
X23451755Y-22079680D01*
X23451751Y-22079682D01*
X23223367Y-22217096D01*
X23145081Y-22264200D01*
X23075570Y-22317041D01*
X22860172Y-22480781D01*
X22860163Y-22480789D01*
X22600331Y-22726914D01*
X22368641Y-22999680D01*
X22368634Y-22999690D01*
X22167790Y-23295913D01*
X22167784Y-23295922D01*
X22000151Y-23612111D01*
X22000142Y-23612129D01*
X21867674Y-23944600D01*
X21867672Y-23944607D01*
X21771932Y-24289434D01*
X21771926Y-24289460D01*
X21714029Y-24642614D01*
X21714028Y-24642631D01*
X21694652Y-24999997D01*
X21694652Y-25000002D01*
X20500500Y-25000002D01*
X20500500Y-20624500D01*
X20520185Y-20557461D01*
X20572989Y-20511706D01*
X20624500Y-20500500D01*
X64676000Y-20500500D01*
X64743039Y-20520185D01*
G37*
%TD.AperFunction*%
%TD*%
M02*
