%TF.GenerationSoftware,KiCad,Pcbnew,7.0.8*%
%TF.CreationDate,2024-01-29T21:33:27+01:00*%
%TF.ProjectId,cube-motherboard,63756265-2d6d-46f7-9468-6572626f6172,rev?*%
%TF.SameCoordinates,Original*%
%TF.FileFunction,Drillmap*%
%TF.FilePolarity,Positive*%
%FSLAX45Y45*%
G04 Gerber Fmt 4.5, Leading zero omitted, Abs format (unit mm)*
G04 Created by KiCad (PCBNEW 7.0.8) date 2024-01-29 21:33:27*
%MOMM*%
%LPD*%
G01*
G04 APERTURE LIST*
%ADD10C,0.100000*%
%ADD11C,0.200000*%
G04 APERTURE END LIST*
D10*
X2000000Y-2000000D02*
X11500000Y-2000000D01*
X11500000Y-11500000D01*
X2000000Y-11500000D01*
X2000000Y-2000000D01*
D11*
X2255777Y-11816484D02*
X2255777Y-11616484D01*
X2255777Y-11616484D02*
X2303396Y-11616484D01*
X2303396Y-11616484D02*
X2331967Y-11626008D01*
X2331967Y-11626008D02*
X2351015Y-11645055D01*
X2351015Y-11645055D02*
X2360539Y-11664103D01*
X2360539Y-11664103D02*
X2370063Y-11702198D01*
X2370063Y-11702198D02*
X2370063Y-11730769D01*
X2370063Y-11730769D02*
X2360539Y-11768865D01*
X2360539Y-11768865D02*
X2351015Y-11787912D01*
X2351015Y-11787912D02*
X2331967Y-11806960D01*
X2331967Y-11806960D02*
X2303396Y-11816484D01*
X2303396Y-11816484D02*
X2255777Y-11816484D01*
X2455777Y-11816484D02*
X2455777Y-11683150D01*
X2455777Y-11721246D02*
X2465301Y-11702198D01*
X2465301Y-11702198D02*
X2474824Y-11692674D01*
X2474824Y-11692674D02*
X2493872Y-11683150D01*
X2493872Y-11683150D02*
X2512920Y-11683150D01*
X2579586Y-11816484D02*
X2579586Y-11683150D01*
X2579586Y-11616484D02*
X2570063Y-11626008D01*
X2570063Y-11626008D02*
X2579586Y-11635531D01*
X2579586Y-11635531D02*
X2589110Y-11626008D01*
X2589110Y-11626008D02*
X2579586Y-11616484D01*
X2579586Y-11616484D02*
X2579586Y-11635531D01*
X2703396Y-11816484D02*
X2684348Y-11806960D01*
X2684348Y-11806960D02*
X2674824Y-11787912D01*
X2674824Y-11787912D02*
X2674824Y-11616484D01*
X2808158Y-11816484D02*
X2789110Y-11806960D01*
X2789110Y-11806960D02*
X2779586Y-11787912D01*
X2779586Y-11787912D02*
X2779586Y-11616484D01*
X3036729Y-11816484D02*
X3036729Y-11616484D01*
X3036729Y-11616484D02*
X3103396Y-11759341D01*
X3103396Y-11759341D02*
X3170062Y-11616484D01*
X3170062Y-11616484D02*
X3170062Y-11816484D01*
X3351015Y-11816484D02*
X3351015Y-11711722D01*
X3351015Y-11711722D02*
X3341491Y-11692674D01*
X3341491Y-11692674D02*
X3322443Y-11683150D01*
X3322443Y-11683150D02*
X3284348Y-11683150D01*
X3284348Y-11683150D02*
X3265301Y-11692674D01*
X3351015Y-11806960D02*
X3331967Y-11816484D01*
X3331967Y-11816484D02*
X3284348Y-11816484D01*
X3284348Y-11816484D02*
X3265301Y-11806960D01*
X3265301Y-11806960D02*
X3255777Y-11787912D01*
X3255777Y-11787912D02*
X3255777Y-11768865D01*
X3255777Y-11768865D02*
X3265301Y-11749817D01*
X3265301Y-11749817D02*
X3284348Y-11740293D01*
X3284348Y-11740293D02*
X3331967Y-11740293D01*
X3331967Y-11740293D02*
X3351015Y-11730769D01*
X3446253Y-11683150D02*
X3446253Y-11883150D01*
X3446253Y-11692674D02*
X3465301Y-11683150D01*
X3465301Y-11683150D02*
X3503396Y-11683150D01*
X3503396Y-11683150D02*
X3522443Y-11692674D01*
X3522443Y-11692674D02*
X3531967Y-11702198D01*
X3531967Y-11702198D02*
X3541491Y-11721246D01*
X3541491Y-11721246D02*
X3541491Y-11778388D01*
X3541491Y-11778388D02*
X3531967Y-11797436D01*
X3531967Y-11797436D02*
X3522443Y-11806960D01*
X3522443Y-11806960D02*
X3503396Y-11816484D01*
X3503396Y-11816484D02*
X3465301Y-11816484D01*
X3465301Y-11816484D02*
X3446253Y-11806960D01*
X3627205Y-11797436D02*
X3636729Y-11806960D01*
X3636729Y-11806960D02*
X3627205Y-11816484D01*
X3627205Y-11816484D02*
X3617682Y-11806960D01*
X3617682Y-11806960D02*
X3627205Y-11797436D01*
X3627205Y-11797436D02*
X3627205Y-11816484D01*
X3627205Y-11692674D02*
X3636729Y-11702198D01*
X3636729Y-11702198D02*
X3627205Y-11711722D01*
X3627205Y-11711722D02*
X3617682Y-11702198D01*
X3617682Y-11702198D02*
X3627205Y-11692674D01*
X3627205Y-11692674D02*
X3627205Y-11711722D01*
M02*
