M48
; DRILL file {KiCad 7.0.8} date Mon Jan 29 21:33:26 2024
; FORMAT={-:-/ absolute / metric / decimal}
; #@! TF.CreationDate,2024-01-29T21:33:26+01:00
; #@! TF.GenerationSoftware,Kicad,Pcbnew,7.0.8
; #@! TF.FileFunction,Plated,1,4,PTH
FMAT,2
METRIC
; #@! TA.AperFunction,Plated,PTH,ViaDrill
T1C0.400
; #@! TA.AperFunction,Plated,PTH,ComponentDrill
T2C1.000
; #@! TA.AperFunction,Plated,PTH,ComponentDrill
T3C1.200
; #@! TA.AperFunction,Plated,PTH,ComponentDrill
T4C1.400
; #@! TA.AperFunction,Plated,PTH,ComponentDrill
T5C3.200
; #@! TA.AperFunction,Plated,PTH,ComponentDrill
T6C4.500
%
G90
G05
T1
X21.0Y-81.0
X21.0Y-82.0
X21.0Y-83.0
X21.0Y-84.0
X21.0Y-85.0
X22.0Y-31.5
X22.0Y-81.0
X22.0Y-82.0
X22.0Y-83.0
X22.0Y-84.0
X22.0Y-85.0
X23.0Y-31.5
X23.0Y-81.0
X23.0Y-82.0
X24.0Y-31.5
X24.0Y-81.0
X24.0Y-82.0
X25.0Y-81.0
X25.0Y-82.0
X26.0Y-81.0
X26.0Y-82.0
X33.5Y-41.0
X33.5Y-42.0
X33.5Y-60.0
X33.5Y-61.0
X34.5Y-41.0
X34.5Y-42.0
X34.5Y-60.0
X34.5Y-61.0
X35.5Y-41.0
X35.5Y-42.0
X35.5Y-60.0
X35.5Y-61.0
X36.5Y-41.0
X36.5Y-42.0
X36.5Y-60.0
X36.5Y-61.0
X37.5Y-41.0
X37.5Y-42.0
X37.5Y-60.0
X37.5Y-61.0
X37.5Y-80.0
X37.5Y-81.0
X37.5Y-82.0
X38.5Y-41.0
X38.5Y-42.0
X38.5Y-60.0
X38.5Y-61.0
X38.5Y-80.0
X38.5Y-81.0
X38.5Y-82.0
X39.5Y-41.0
X39.5Y-42.0
X39.5Y-60.0
X39.5Y-61.0
X39.5Y-80.0
X39.5Y-81.0
X39.5Y-82.0
X40.5Y-41.0
X40.5Y-42.0
X40.5Y-60.0
X40.5Y-61.0
X41.5Y-41.0
X41.5Y-42.0
X41.5Y-60.0
X41.5Y-61.0
X44.5Y-99.0
X48.865Y-102.959
X51.5Y-79.5
X51.5Y-80.5
X51.5Y-81.5
X52.0Y-97.5
X52.5Y-79.5
X52.5Y-80.5
X52.5Y-81.5
X53.5Y-79.5
X53.5Y-80.5
X53.5Y-81.5
X55.768Y-95.0
X56.1Y-99.897
X58.308Y-95.0
X61.102Y-95.0
X63.5Y-41.0
X63.5Y-42.0
X63.5Y-60.0
X63.5Y-61.0
X64.5Y-41.0
X64.5Y-42.0
X64.5Y-60.0
X64.5Y-61.0
X65.0Y-73.5
X65.5Y-41.0
X65.5Y-42.0
X65.5Y-60.0
X65.5Y-61.0
X65.5Y-78.5
X66.0Y-72.5
X66.0Y-73.5
X66.5Y-41.0
X66.5Y-42.0
X66.5Y-60.0
X66.5Y-61.0
X66.5Y-78.5
X67.0Y-71.5
X67.0Y-72.5
X67.5Y-41.0
X67.5Y-42.0
X67.5Y-60.0
X67.5Y-61.0
X68.0Y-70.5
X68.0Y-71.5
X68.5Y-41.0
X68.5Y-42.0
X68.5Y-60.0
X68.5Y-61.0
X68.722Y-95.0
X69.0Y-70.5
X69.0Y-71.5
X69.5Y-41.0
X69.5Y-42.0
X69.5Y-60.0
X69.5Y-61.0
X70.0Y-70.5
X70.0Y-71.5
X70.5Y-41.0
X70.5Y-42.0
X70.5Y-60.0
X70.5Y-61.0
X71.0Y-70.5
X71.0Y-71.5
X71.5Y-41.0
X71.5Y-42.0
X71.5Y-60.0
X71.5Y-61.0
X72.0Y-70.5
X72.0Y-71.5
X78.628Y-95.0
X81.422Y-95.0
X84.7Y-72.025
X84.7Y-73.025
X84.7Y-74.025
X84.7Y-75.025
X86.6Y-80.725
X86.6Y-81.725
X86.6Y-82.725
X86.6Y-83.725
X86.6Y-84.725
X87.6Y-80.725
X87.6Y-81.725
X87.6Y-82.725
X87.6Y-83.725
X87.6Y-84.725
X88.6Y-80.725
X88.6Y-81.725
X88.6Y-82.725
X88.6Y-83.725
X88.6Y-84.725
X89.6Y-80.725
X89.6Y-81.725
X89.6Y-82.725
X89.6Y-83.725
X89.6Y-84.725
X90.6Y-80.725
X90.6Y-81.725
X90.6Y-82.725
X90.6Y-83.725
X90.6Y-84.725
X91.6Y-80.725
X91.6Y-81.725
X91.6Y-82.725
X91.6Y-83.725
X91.6Y-84.725
X92.6Y-80.725
X92.6Y-81.725
X92.6Y-82.725
X92.6Y-83.725
X92.6Y-84.725
X93.5Y-41.0
X93.5Y-42.0
X93.5Y-60.0
X93.5Y-61.0
X94.2Y-66.525
X94.5Y-41.0
X94.5Y-42.0
X94.5Y-60.0
X94.5Y-61.0
X95.2Y-66.525
X95.2Y-67.525
X95.5Y-41.0
X95.5Y-42.0
X95.5Y-60.0
X95.5Y-61.0
X96.2Y-66.525
X96.2Y-67.525
X96.5Y-41.0
X96.5Y-42.0
X96.5Y-60.0
X96.5Y-61.0
X97.5Y-41.0
X97.5Y-42.0
X97.5Y-60.0
X97.5Y-61.0
X98.5Y-41.0
X98.5Y-42.0
X98.5Y-60.0
X98.5Y-61.0
X99.2Y-68.525
X99.2Y-69.525
X99.5Y-41.0
X99.5Y-42.0
X99.5Y-60.0
X99.5Y-61.0
X100.2Y-68.525
X100.2Y-69.525
X100.5Y-41.0
X100.5Y-42.0
X100.5Y-60.0
X100.5Y-61.0
X101.5Y-41.0
X101.5Y-42.0
X101.5Y-60.0
X101.5Y-61.0
X103.7Y-70.525
X103.7Y-71.525
X103.7Y-72.525
X104.7Y-70.525
X104.7Y-71.525
X104.7Y-72.525
X105.7Y-70.525
X105.7Y-71.525
X105.7Y-72.525
X106.7Y-70.525
X106.7Y-71.525
X106.7Y-72.525
X107.7Y-70.525
X107.7Y-71.525
X107.7Y-72.525
X107.7Y-73.525
X107.7Y-74.525
X107.7Y-75.525
X107.7Y-76.525
X108.7Y-70.525
X108.7Y-71.525
X108.7Y-72.525
X108.7Y-73.525
X108.7Y-74.525
X108.7Y-75.525
X108.7Y-76.525
X109.7Y-70.525
X109.7Y-71.525
X109.7Y-72.525
X109.7Y-73.525
X109.7Y-74.525
X109.7Y-75.525
X109.7Y-76.525
T2
X26.07Y-34.76
X26.07Y-37.3
X26.07Y-39.84
X26.07Y-42.38
X26.07Y-44.92
X26.07Y-47.46
X26.07Y-50.0
X26.07Y-52.54
X26.07Y-55.08
X26.07Y-57.62
X26.07Y-60.16
X26.07Y-62.7
X26.07Y-65.24
X42.052Y-112.93
X42.055Y-90.066
X44.592Y-112.93
X44.595Y-90.066
X47.132Y-112.93
X47.135Y-90.066
X48.93Y-34.76
X48.93Y-37.3
X48.93Y-39.84
X48.93Y-42.38
X48.93Y-44.92
X48.93Y-47.46
X48.93Y-50.0
X48.93Y-52.54
X48.93Y-55.08
X48.93Y-57.62
X48.93Y-60.16
X49.672Y-90.07
X49.672Y-112.93
X52.212Y-90.07
X52.212Y-112.93
X54.752Y-90.07
X54.752Y-112.93
X56.07Y-34.76
X56.07Y-37.3
X56.07Y-39.84
X56.07Y-42.38
X56.07Y-44.92
X56.07Y-47.46
X56.07Y-50.0
X56.07Y-52.54
X56.07Y-55.08
X56.07Y-57.62
X56.07Y-60.16
X56.07Y-62.7
X56.07Y-65.24
X57.292Y-90.07
X57.292Y-112.93
X59.832Y-90.07
X59.832Y-112.93
X62.372Y-90.07
X62.372Y-112.93
X64.868Y-76.0
X64.912Y-90.07
X64.912Y-112.93
X67.452Y-90.07
X67.452Y-112.93
X69.868Y-76.0
X69.992Y-90.07
X69.992Y-112.93
X72.532Y-90.07
X72.532Y-112.93
X75.072Y-90.07
X75.072Y-112.93
X77.612Y-90.07
X77.612Y-112.93
X78.93Y-34.76
X78.93Y-37.3
X78.93Y-39.84
X78.93Y-42.38
X78.93Y-44.92
X78.93Y-47.46
X78.93Y-50.0
X78.93Y-52.54
X78.93Y-55.08
X78.93Y-57.62
X78.93Y-60.16
X80.152Y-90.07
X80.152Y-112.93
X82.692Y-90.07
X82.692Y-112.93
X85.232Y-90.07
X85.232Y-112.93
X86.07Y-34.76
X86.07Y-37.3
X86.07Y-39.84
X86.07Y-42.38
X86.07Y-44.92
X86.07Y-47.46
X86.07Y-50.0
X86.07Y-52.54
X86.07Y-55.08
X86.07Y-57.62
X86.07Y-60.16
X86.07Y-62.7
X86.07Y-65.24
X87.772Y-90.07
X87.772Y-112.93
X90.312Y-90.07
X90.312Y-112.93
X92.852Y-90.07
X92.852Y-112.93
X95.392Y-90.07
X95.392Y-112.93
X107.46Y-90.15
X107.46Y-92.69
X107.46Y-95.23
X107.46Y-97.77
X107.46Y-100.31
X107.46Y-102.85
X108.93Y-34.76
X108.93Y-37.3
X108.93Y-39.84
X108.93Y-42.38
X108.93Y-44.92
X108.93Y-47.46
X108.93Y-50.0
X108.93Y-52.54
X108.93Y-55.08
X108.93Y-57.62
X108.93Y-60.16
X110.0Y-90.15
X110.0Y-92.69
X110.0Y-95.23
X110.0Y-97.77
X110.0Y-100.31
X110.0Y-102.85
X112.54Y-90.15
X112.54Y-92.69
X112.54Y-95.23
X112.54Y-97.77
X112.54Y-100.31
X112.54Y-102.85
T3
X24.324Y-76.0
X29.324Y-76.0
X38.324Y-76.0
X43.324Y-76.0
X52.324Y-76.0
X57.324Y-76.0
X105.0Y-75.203
X105.0Y-82.703
T4
X35.2Y-24.25
X35.2Y-29.75
X39.4Y-24.25
X39.4Y-29.75
X43.6Y-24.25
X43.6Y-29.75
X47.8Y-24.25
X47.8Y-29.75
X61.2Y-24.25
X61.2Y-29.75
X65.4Y-24.25
X65.4Y-29.75
X69.6Y-24.25
X69.6Y-29.75
X73.8Y-24.25
X73.8Y-29.75
X87.2Y-24.25
X87.2Y-29.75
X91.4Y-24.25
X91.4Y-29.75
X95.6Y-24.25
X95.6Y-29.75
X99.8Y-24.25
X99.8Y-29.75
T5
X25.0Y-25.0
X25.0Y-110.0
X110.0Y-25.0
X110.0Y-110.0
T6
X26.0Y-92.7
X26.0Y-99.9
T0
M30
