%TF.GenerationSoftware,KiCad,Pcbnew,7.0.8*%
%TF.CreationDate,2024-01-29T21:33:25+01:00*%
%TF.ProjectId,cube-motherboard,63756265-2d6d-46f7-9468-6572626f6172,rev?*%
%TF.SameCoordinates,Original*%
%TF.FileFunction,Soldermask,Top*%
%TF.FilePolarity,Negative*%
%FSLAX46Y46*%
G04 Gerber Fmt 4.6, Leading zero omitted, Abs format (unit mm)*
G04 Created by KiCad (PCBNEW 7.0.8) date 2024-01-29 21:33:25*
%MOMM*%
%LPD*%
G01*
G04 APERTURE LIST*
G04 Aperture macros list*
%AMRoundRect*
0 Rectangle with rounded corners*
0 $1 Rounding radius*
0 $2 $3 $4 $5 $6 $7 $8 $9 X,Y pos of 4 corners*
0 Add a 4 corners polygon primitive as box body*
4,1,4,$2,$3,$4,$5,$6,$7,$8,$9,$2,$3,0*
0 Add four circle primitives for the rounded corners*
1,1,$1+$1,$2,$3*
1,1,$1+$1,$4,$5*
1,1,$1+$1,$6,$7*
1,1,$1+$1,$8,$9*
0 Add four rect primitives between the rounded corners*
20,1,$1+$1,$2,$3,$4,$5,0*
20,1,$1+$1,$4,$5,$6,$7,0*
20,1,$1+$1,$6,$7,$8,$9,0*
20,1,$1+$1,$8,$9,$2,$3,0*%
G04 Aperture macros list end*
%ADD10C,2.000000*%
%ADD11R,5.000000X3.400000*%
%ADD12C,1.600000*%
%ADD13R,3.000000X2.400000*%
%ADD14RoundRect,0.147500X0.172500X-0.147500X0.172500X0.147500X-0.172500X0.147500X-0.172500X-0.147500X0*%
%ADD15RoundRect,0.225000X0.250000X-0.225000X0.250000X0.225000X-0.250000X0.225000X-0.250000X-0.225000X0*%
%ADD16RoundRect,0.150000X-0.150000X0.512500X-0.150000X-0.512500X0.150000X-0.512500X0.150000X0.512500X0*%
%ADD17RoundRect,0.250000X-1.000000X-0.900000X1.000000X-0.900000X1.000000X0.900000X-1.000000X0.900000X0*%
%ADD18R,1.500000X2.000000*%
%ADD19O,1.500000X2.000000*%
%ADD20RoundRect,0.225000X-0.225000X-0.250000X0.225000X-0.250000X0.225000X0.250000X-0.225000X0.250000X0*%
%ADD21C,5.600000*%
%ADD22RoundRect,0.150000X0.587500X0.150000X-0.587500X0.150000X-0.587500X-0.150000X0.587500X-0.150000X0*%
%ADD23RoundRect,1.500000X1.500000X-1.500000X1.500000X1.500000X-1.500000X1.500000X-1.500000X-1.500000X0*%
%ADD24C,6.000000*%
%ADD25R,2.000000X2.000000*%
%ADD26RoundRect,0.050000X0.225000X0.050000X-0.225000X0.050000X-0.225000X-0.050000X0.225000X-0.050000X0*%
%ADD27RoundRect,0.050000X-0.050000X0.225000X-0.050000X-0.225000X0.050000X-0.225000X0.050000X0.225000X0*%
%ADD28RoundRect,0.200000X-0.200000X-0.275000X0.200000X-0.275000X0.200000X0.275000X-0.200000X0.275000X0*%
%ADD29RoundRect,0.250001X1.099999X1.399999X-1.099999X1.399999X-1.099999X-1.399999X1.099999X-1.399999X0*%
%ADD30O,2.700000X3.300000*%
%ADD31RoundRect,0.250000X-0.300000X-0.300000X0.300000X-0.300000X0.300000X0.300000X-0.300000X0.300000X0*%
%ADD32R,2.400000X2.400000*%
%ADD33C,2.400000*%
%ADD34RoundRect,0.200000X0.200000X0.275000X-0.200000X0.275000X-0.200000X-0.275000X0.200000X-0.275000X0*%
%ADD35RoundRect,0.200000X0.275000X-0.200000X0.275000X0.200000X-0.275000X0.200000X-0.275000X-0.200000X0*%
%ADD36RoundRect,0.225000X0.225000X0.250000X-0.225000X0.250000X-0.225000X-0.250000X0.225000X-0.250000X0*%
%ADD37RoundRect,0.150000X-0.587500X-0.150000X0.587500X-0.150000X0.587500X0.150000X-0.587500X0.150000X0*%
%ADD38RoundRect,0.250000X-0.300000X2.050000X-0.300000X-2.050000X0.300000X-2.050000X0.300000X2.050000X0*%
%ADD39RoundRect,0.250002X-5.149998X4.449998X-5.149998X-4.449998X5.149998X-4.449998X5.149998X4.449998X0*%
G04 APERTURE END LIST*
D10*
%TO.C,U3*%
X86070000Y-34760000D03*
X86070000Y-37300000D03*
X86070000Y-39840000D03*
X86070000Y-42380000D03*
X86070000Y-44920000D03*
X86070000Y-47460000D03*
X86070000Y-50000000D03*
X86070000Y-52540000D03*
X86070000Y-55080000D03*
X86070000Y-57620000D03*
X86070000Y-60160000D03*
X86070000Y-62700000D03*
X86070000Y-65240000D03*
X108930000Y-60160000D03*
X108930000Y-57620000D03*
X108930000Y-55080000D03*
X108930000Y-52540000D03*
X108930000Y-50000000D03*
X108930000Y-47460000D03*
X108930000Y-44920000D03*
X108930000Y-42380000D03*
X108930000Y-39840000D03*
X108930000Y-37300000D03*
X108930000Y-34760000D03*
%TD*%
%TO.C,U2*%
X56070000Y-34760000D03*
X56070000Y-37300000D03*
X56070000Y-39840000D03*
X56070000Y-42380000D03*
X56070000Y-44920000D03*
X56070000Y-47460000D03*
X56070000Y-50000000D03*
X56070000Y-52540000D03*
X56070000Y-55080000D03*
X56070000Y-57620000D03*
X56070000Y-60160000D03*
X56070000Y-62700000D03*
X56070000Y-65240000D03*
X78930000Y-60160000D03*
X78930000Y-57620000D03*
X78930000Y-55080000D03*
X78930000Y-52540000D03*
X78930000Y-50000000D03*
X78930000Y-47460000D03*
X78930000Y-44920000D03*
X78930000Y-42380000D03*
X78930000Y-39840000D03*
X78930000Y-37300000D03*
X78930000Y-34760000D03*
%TD*%
%TO.C,U1*%
X26070000Y-34760000D03*
X26070000Y-37300000D03*
X26070000Y-39840000D03*
X26070000Y-42380000D03*
X26070000Y-44920000D03*
X26070000Y-47460000D03*
X26070000Y-50000000D03*
X26070000Y-52540000D03*
X26070000Y-55080000D03*
X26070000Y-57620000D03*
X26070000Y-60160000D03*
X26070000Y-62700000D03*
X26070000Y-65240000D03*
X48930000Y-60160000D03*
X48930000Y-57620000D03*
X48930000Y-55080000D03*
X48930000Y-52540000D03*
X48930000Y-50000000D03*
X48930000Y-47460000D03*
X48930000Y-44920000D03*
X48930000Y-42380000D03*
X48930000Y-39840000D03*
X48930000Y-37300000D03*
X48930000Y-34760000D03*
%TD*%
D11*
%TO.C,L1*%
X78500000Y-76550000D03*
X78500000Y-85450000D03*
%TD*%
D12*
%TO.C,J5*%
X107460000Y-102850000D03*
X107460000Y-100310000D03*
X107460000Y-97770000D03*
X107460000Y-95230000D03*
X107460000Y-92690000D03*
X107460000Y-90150000D03*
X110000000Y-102850000D03*
X110000000Y-100310000D03*
X110000000Y-97770000D03*
X110000000Y-95230000D03*
X110000000Y-92690000D03*
X110000000Y-90150000D03*
X112540000Y-102850000D03*
X112540000Y-100310000D03*
X112540000Y-97770000D03*
X112540000Y-95230000D03*
X112540000Y-92690000D03*
X112540000Y-90150000D03*
%TD*%
D13*
%TO.C,F3*%
X62000000Y-86430000D03*
X62000000Y-81570000D03*
%TD*%
%TO.C,F2*%
X48000000Y-86430000D03*
X48000000Y-81570000D03*
%TD*%
%TO.C,F1*%
X34000000Y-86430000D03*
X34000000Y-81570000D03*
%TD*%
D14*
%TO.C,D9*%
X77612080Y-94365000D03*
X77612080Y-93395000D03*
%TD*%
D15*
%TO.C,C10*%
X77612080Y-97195000D03*
X77612080Y-95645000D03*
%TD*%
D16*
%TO.C,U6*%
X47925000Y-100662500D03*
X46975000Y-100662500D03*
X46025000Y-100662500D03*
X46025000Y-102937500D03*
X47925000Y-102937500D03*
%TD*%
D14*
%TO.C,D7*%
X59832080Y-94365000D03*
X59832080Y-93395000D03*
%TD*%
D17*
%TO.C,D3*%
X52850000Y-85000000D03*
X57150000Y-85000000D03*
%TD*%
D14*
%TO.C,D6*%
X54752080Y-94365000D03*
X54752080Y-93395000D03*
%TD*%
D18*
%TO.C,U4*%
X95392080Y-90070000D03*
D19*
X92852080Y-90070000D03*
X90312080Y-90070000D03*
X87772080Y-90070000D03*
X85232080Y-90070000D03*
X82692080Y-90070000D03*
X80152080Y-90070000D03*
X77612080Y-90070000D03*
X75072080Y-90070000D03*
X72532080Y-90070000D03*
X69992080Y-90070000D03*
X67452080Y-90070000D03*
X64912080Y-90070000D03*
X62372080Y-90070000D03*
X59832080Y-90070000D03*
X57292080Y-90070000D03*
X54752080Y-90070000D03*
X52212080Y-90070000D03*
X49672080Y-90070000D03*
X47134800Y-90066320D03*
X44594800Y-90066320D03*
X42054800Y-90066320D03*
X42052080Y-112930000D03*
X44592080Y-112930000D03*
X47132080Y-112930000D03*
X49672080Y-112930000D03*
X52212080Y-112930000D03*
X54752080Y-112930000D03*
X57292080Y-112930000D03*
X59832080Y-112930000D03*
X62372080Y-112930000D03*
X64912080Y-112930000D03*
X67452080Y-112930000D03*
X69992080Y-112930000D03*
X72532080Y-112930000D03*
X75072080Y-112930000D03*
X77612080Y-112930000D03*
X80152080Y-112930000D03*
X82692080Y-112930000D03*
X85232080Y-112930000D03*
X87772080Y-112930000D03*
X90312080Y-112930000D03*
X92852080Y-112930000D03*
X95392080Y-112930000D03*
%TD*%
D20*
%TO.C,C14*%
X52200000Y-98800000D03*
X53750000Y-98800000D03*
%TD*%
D15*
%TO.C,C7*%
X54752080Y-97195000D03*
X54752080Y-95645000D03*
%TD*%
D21*
%TO.C,H4*%
X110000000Y-110000000D03*
%TD*%
D22*
%TO.C,Q2*%
X50412500Y-107250000D03*
X50412500Y-105350000D03*
X48537500Y-106300000D03*
%TD*%
D23*
%TO.C,J1*%
X26000000Y-99900000D03*
D24*
X26000000Y-92700000D03*
%TD*%
D25*
%TO.C,C5*%
X69867677Y-76000000D03*
D10*
X64867677Y-76000000D03*
%TD*%
D21*
%TO.C,H1*%
X25000000Y-25000000D03*
%TD*%
D15*
%TO.C,C8*%
X59832080Y-97195000D03*
X59832080Y-95645000D03*
%TD*%
D14*
%TO.C,D5*%
X57292080Y-94365000D03*
X57292080Y-93395000D03*
%TD*%
D15*
%TO.C,C6*%
X57292080Y-97195000D03*
X57292080Y-95645000D03*
%TD*%
%TO.C,C13*%
X43975000Y-102575000D03*
X43975000Y-101025000D03*
%TD*%
D14*
%TO.C,D8*%
X67452080Y-94365000D03*
X67452080Y-93395000D03*
%TD*%
D26*
%TO.C,U7*%
X52975000Y-103300000D03*
X52975000Y-102900000D03*
X52975000Y-102500000D03*
X52975000Y-102100000D03*
X52975000Y-101700000D03*
X52975000Y-101300000D03*
D27*
X52475000Y-100800000D03*
X52075000Y-100800000D03*
X51675000Y-100800000D03*
X51275000Y-100800000D03*
X50875000Y-100800000D03*
X50475000Y-100800000D03*
D26*
X49975000Y-101300000D03*
X49975000Y-101700000D03*
X49975000Y-102100000D03*
X49975000Y-102500000D03*
X49975000Y-102900000D03*
X49975000Y-103300000D03*
D27*
X50475000Y-103800000D03*
X50875000Y-103800000D03*
X51275000Y-103800000D03*
X51675000Y-103800000D03*
X52075000Y-103800000D03*
X52475000Y-103800000D03*
%TD*%
D28*
%TO.C,R3*%
X52650000Y-106300000D03*
X54300000Y-106300000D03*
%TD*%
D15*
%TO.C,C11*%
X80152080Y-97195000D03*
X80152080Y-95645000D03*
%TD*%
D17*
%TO.C,D1*%
X24850000Y-85000000D03*
X29150000Y-85000000D03*
%TD*%
%TO.C,D2*%
X38850000Y-85000000D03*
X43150000Y-85000000D03*
%TD*%
D29*
%TO.C,J2*%
X47800000Y-29750000D03*
D30*
X43600000Y-29750000D03*
X39400000Y-29750000D03*
X35200000Y-29750000D03*
X47800000Y-24250000D03*
X43600000Y-24250000D03*
X39400000Y-24250000D03*
X35200000Y-24250000D03*
%TD*%
D31*
%TO.C,D4*%
X90600000Y-68725000D03*
X93400000Y-68725000D03*
%TD*%
D32*
%TO.C,C2*%
X43323959Y-76000000D03*
D33*
X38323959Y-76000000D03*
%TD*%
D29*
%TO.C,J3*%
X73800000Y-29750000D03*
D30*
X69600000Y-29750000D03*
X65400000Y-29750000D03*
X61200000Y-29750000D03*
X73800000Y-24250000D03*
X69600000Y-24250000D03*
X65400000Y-24250000D03*
X61200000Y-24250000D03*
%TD*%
D32*
%TO.C,C1*%
X29323959Y-76000000D03*
D33*
X24323959Y-76000000D03*
%TD*%
D32*
%TO.C,C4*%
X105000000Y-82702780D03*
D33*
X105000000Y-75202780D03*
%TD*%
D34*
%TO.C,R4*%
X53325000Y-108800000D03*
X51675000Y-108800000D03*
%TD*%
D32*
%TO.C,C3*%
X57323959Y-76000000D03*
D33*
X52323959Y-76000000D03*
%TD*%
D15*
%TO.C,C9*%
X67452080Y-97195000D03*
X67452080Y-95645000D03*
%TD*%
%TO.C,C16*%
X97300000Y-71275000D03*
X97300000Y-69725000D03*
%TD*%
D21*
%TO.C,H3*%
X25000000Y-110000000D03*
%TD*%
D28*
%TO.C,R1*%
X56150000Y-105800000D03*
X57800000Y-105800000D03*
%TD*%
D15*
%TO.C,C15*%
X49975000Y-99075000D03*
X49975000Y-97525000D03*
%TD*%
D35*
%TO.C,R2*%
X46475000Y-107125000D03*
X46475000Y-105475000D03*
%TD*%
D36*
%TO.C,C12*%
X47750000Y-98800000D03*
X46200000Y-98800000D03*
%TD*%
D37*
%TO.C,Q1*%
X55037500Y-101850000D03*
X55037500Y-103750000D03*
X56912500Y-102800000D03*
%TD*%
D38*
%TO.C,U5*%
X93000000Y-73725000D03*
X91300000Y-73725000D03*
X89600000Y-73725000D03*
D39*
X89600000Y-82875000D03*
D38*
X87900000Y-73725000D03*
X86200000Y-73725000D03*
%TD*%
D29*
%TO.C,J4*%
X99800000Y-29750000D03*
D30*
X95600000Y-29750000D03*
X91400000Y-29750000D03*
X87200000Y-29750000D03*
X99800000Y-24250000D03*
X95600000Y-24250000D03*
X91400000Y-24250000D03*
X87200000Y-24250000D03*
%TD*%
D21*
%TO.C,H2*%
X110000000Y-25000000D03*
%TD*%
D14*
%TO.C,D10*%
X80152080Y-94365000D03*
X80152080Y-93395000D03*
%TD*%
M02*
