%TF.GenerationSoftware,KiCad,Pcbnew,7.0.8*%
%TF.CreationDate,2024-01-29T21:33:25+01:00*%
%TF.ProjectId,cube-motherboard,63756265-2d6d-46f7-9468-6572626f6172,rev?*%
%TF.SameCoordinates,Original*%
%TF.FileFunction,Legend,Bot*%
%TF.FilePolarity,Positive*%
%FSLAX46Y46*%
G04 Gerber Fmt 4.6, Leading zero omitted, Abs format (unit mm)*
G04 Created by KiCad (PCBNEW 7.0.8) date 2024-01-29 21:33:25*
%MOMM*%
%LPD*%
G01*
G04 APERTURE LIST*
G04 Aperture macros list*
%AMRoundRect*
0 Rectangle with rounded corners*
0 $1 Rounding radius*
0 $2 $3 $4 $5 $6 $7 $8 $9 X,Y pos of 4 corners*
0 Add a 4 corners polygon primitive as box body*
4,1,4,$2,$3,$4,$5,$6,$7,$8,$9,$2,$3,0*
0 Add four circle primitives for the rounded corners*
1,1,$1+$1,$2,$3*
1,1,$1+$1,$4,$5*
1,1,$1+$1,$6,$7*
1,1,$1+$1,$8,$9*
0 Add four rect primitives between the rounded corners*
20,1,$1+$1,$2,$3,$4,$5,0*
20,1,$1+$1,$4,$5,$6,$7,0*
20,1,$1+$1,$6,$7,$8,$9,0*
20,1,$1+$1,$8,$9,$2,$3,0*%
G04 Aperture macros list end*
%ADD10C,0.150000*%
%ADD11C,2.000000*%
%ADD12C,1.600000*%
%ADD13R,1.500000X2.000000*%
%ADD14O,1.500000X2.000000*%
%ADD15C,5.600000*%
%ADD16RoundRect,1.500000X1.500000X-1.500000X1.500000X1.500000X-1.500000X1.500000X-1.500000X-1.500000X0*%
%ADD17C,6.000000*%
%ADD18R,2.000000X2.000000*%
%ADD19RoundRect,0.250001X1.099999X1.399999X-1.099999X1.399999X-1.099999X-1.399999X1.099999X-1.399999X0*%
%ADD20O,2.700000X3.300000*%
%ADD21R,2.400000X2.400000*%
%ADD22C,2.400000*%
G04 APERTURE END LIST*
D10*
X37057714Y-112500000D02*
X41387841Y-110000000D01*
X28397460Y-72500000D02*
X32727587Y-70000000D01*
X89019238Y-62500000D02*
X89019238Y-67500000D01*
X110669873Y-110000000D02*
X106339746Y-107500000D01*
X110669873Y-45000000D02*
X115000000Y-47500000D01*
X110669873Y-90000000D02*
X115000000Y-92500000D01*
X58708349Y-40000000D02*
X63038476Y-42500000D01*
X58708349Y-90000000D02*
X58708349Y-95000000D01*
X28397460Y-97500000D02*
X24067333Y-100000000D01*
X110669873Y-90000000D02*
X110669873Y-95000000D01*
X110669873Y-55000000D02*
X115000000Y-57500000D01*
X41387841Y-25000000D02*
X45717968Y-27500000D01*
X80358984Y-27500000D02*
X76028857Y-30000000D01*
X97679492Y-22500000D02*
X102009619Y-20000000D01*
X84689111Y-60000000D02*
X89019238Y-62500000D01*
X89019238Y-27500000D02*
X84689111Y-30000000D01*
X58708349Y-70000000D02*
X58708349Y-75000000D01*
X37057714Y-72500000D02*
X41387841Y-70000000D01*
X76028857Y-110000000D02*
X76028857Y-115000000D01*
X110669873Y-45000000D02*
X106339746Y-47500000D01*
X76028857Y-85000000D02*
X80358984Y-87500000D01*
X41387841Y-80000000D02*
X45717968Y-82500000D01*
X50048095Y-85000000D02*
X54378222Y-87500000D01*
X106339746Y-82500000D02*
X106339746Y-87500000D01*
X24067333Y-45000000D02*
X19737206Y-47500000D01*
X24067333Y-45000000D02*
X28397460Y-47500000D01*
X54378222Y-52500000D02*
X58708349Y-50000000D01*
X67368603Y-40000000D02*
X67368603Y-45000000D01*
X76028857Y-40000000D02*
X76028857Y-45000000D01*
X24067333Y-35000000D02*
X19737206Y-37500000D01*
X24067333Y-40000000D02*
X28397460Y-42500000D01*
X93349365Y-35000000D02*
X97679492Y-37500000D01*
X32727587Y-45000000D02*
X28397460Y-47500000D01*
X76028857Y-40000000D02*
X80358984Y-42500000D01*
X106339746Y-107500000D02*
X102009619Y-110000000D01*
X80358984Y-52500000D02*
X84689111Y-50000000D01*
X58708349Y-35000000D02*
X63038476Y-37500000D01*
X37057714Y-67500000D02*
X32727587Y-70000000D01*
X67368603Y-40000000D02*
X63038476Y-37500000D01*
X110669873Y-50000000D02*
X110669873Y-55000000D01*
X93349365Y-80000000D02*
X89019238Y-77500000D01*
X58708349Y-40000000D02*
X58708349Y-45000000D01*
X19737206Y-112500000D02*
X24067333Y-110000000D01*
X102009619Y-35000000D02*
X106339746Y-37500000D01*
X93349365Y-110000000D02*
X93349365Y-115000000D01*
X28397460Y-107500000D02*
X24067333Y-110000000D01*
X32727587Y-50000000D02*
X28397460Y-47500000D01*
X24067333Y-65000000D02*
X28397460Y-67500000D01*
X110669873Y-50000000D02*
X106339746Y-47500000D01*
X97679492Y-47500000D02*
X97679492Y-42500000D01*
X41387841Y-60000000D02*
X41387841Y-65000000D01*
X84689111Y-70000000D02*
X84689111Y-75000000D01*
X24067333Y-60000000D02*
X24067333Y-65000000D01*
X93349365Y-70000000D02*
X97679492Y-72500000D01*
X76028857Y-30000000D02*
X76028857Y-35000000D01*
X58708349Y-25000000D02*
X63038476Y-27500000D01*
X45717968Y-72500000D02*
X45717968Y-77500000D01*
X80358984Y-62500000D02*
X80358984Y-67500000D01*
X71698730Y-92500000D02*
X76028857Y-90000000D01*
X110669873Y-70000000D02*
X110669873Y-75000000D01*
X84689111Y-60000000D02*
X84689111Y-65000000D01*
X84689111Y-95000000D02*
X80358984Y-97500000D01*
X89019238Y-72500000D02*
X93349365Y-70000000D01*
X24067333Y-100000000D02*
X19737206Y-97500000D01*
X106339746Y-77500000D02*
X106339746Y-72500000D01*
X32727587Y-90000000D02*
X32727587Y-95000000D01*
X89019238Y-72500000D02*
X89019238Y-77500000D01*
X24067333Y-75000000D02*
X19737206Y-77500000D01*
X80358984Y-57500000D02*
X80358984Y-52500000D01*
X115000000Y-57500000D02*
X110669873Y-60000000D01*
X50048095Y-30000000D02*
X50048095Y-35000000D01*
X45717968Y-27500000D02*
X45717968Y-22500000D01*
X71698730Y-52500000D02*
X76028857Y-50000000D01*
X71698730Y-22500000D02*
X71698730Y-27500000D01*
X102009619Y-45000000D02*
X106339746Y-47500000D01*
X89019238Y-87500000D02*
X89019238Y-82500000D01*
X50048095Y-45000000D02*
X45717968Y-47500000D01*
X110669873Y-20000000D02*
X115000000Y-22500000D01*
X24067333Y-100000000D02*
X28397460Y-102500000D01*
X89019238Y-92500000D02*
X93349365Y-90000000D01*
X93349365Y-110000000D02*
X89019238Y-107500000D01*
X76028857Y-65000000D02*
X80358984Y-67500000D01*
X41387841Y-75000000D02*
X45717968Y-77500000D01*
X63038476Y-82500000D02*
X63038476Y-87500000D01*
X19737206Y-32500000D02*
X24067333Y-30000000D01*
X50048095Y-90000000D02*
X45717968Y-87500000D01*
X54378222Y-57500000D02*
X54378222Y-52500000D01*
X110669873Y-110000000D02*
X115000000Y-112500000D01*
X50048095Y-40000000D02*
X45717968Y-37500000D01*
X110669873Y-100000000D02*
X115000000Y-102500000D01*
X67368603Y-50000000D02*
X63038476Y-47500000D01*
X32727587Y-95000000D02*
X28397460Y-97500000D01*
X76028857Y-80000000D02*
X80358984Y-82500000D01*
X63038476Y-62500000D02*
X67368603Y-60000000D01*
X54378222Y-107500000D02*
X50048095Y-110000000D01*
X50048095Y-100000000D02*
X50048095Y-105000000D01*
X37057714Y-115000000D02*
X37057714Y-112500000D01*
X89019238Y-37500000D02*
X89019238Y-32500000D01*
X89019238Y-82500000D02*
X89019238Y-87500000D01*
X37057714Y-82500000D02*
X41387841Y-80000000D01*
X41387841Y-110000000D02*
X45717968Y-112500000D01*
X63038476Y-115000000D02*
X63038476Y-112500000D01*
X45717968Y-107500000D02*
X45717968Y-102500000D01*
X106339746Y-107500000D02*
X106339746Y-102500000D01*
X28397460Y-67500000D02*
X24067333Y-70000000D01*
X32727587Y-95000000D02*
X37057714Y-97500000D01*
X58708349Y-85000000D02*
X63038476Y-87500000D01*
X93349365Y-90000000D02*
X93349365Y-95000000D01*
X80358984Y-32500000D02*
X84689111Y-30000000D01*
X41387841Y-60000000D02*
X37057714Y-57500000D01*
X110669873Y-30000000D02*
X110669873Y-35000000D01*
X45717968Y-57500000D02*
X45717968Y-52500000D01*
X97679492Y-87500000D02*
X97679492Y-82500000D01*
X67368603Y-95000000D02*
X71698730Y-97500000D01*
X102009619Y-75000000D02*
X97679492Y-77500000D01*
X106339746Y-32500000D02*
X110669873Y-30000000D01*
X54378222Y-27500000D02*
X50048095Y-30000000D01*
X93349365Y-50000000D02*
X89019238Y-47500000D01*
X106339746Y-72500000D02*
X110669873Y-70000000D01*
X63038476Y-32500000D02*
X63038476Y-37500000D01*
X84689111Y-25000000D02*
X80358984Y-27500000D01*
X41387841Y-110000000D02*
X41387841Y-115000000D01*
X84689111Y-50000000D02*
X80358984Y-47500000D01*
X97679492Y-22500000D02*
X97679492Y-27500000D01*
X28397460Y-32500000D02*
X32727587Y-30000000D01*
X76028857Y-20000000D02*
X76028857Y-25000000D01*
X24067333Y-60000000D02*
X28397460Y-62500000D01*
X41387841Y-90000000D02*
X41387841Y-95000000D01*
X76028857Y-50000000D02*
X76028857Y-55000000D01*
X28397460Y-77500000D02*
X24067333Y-80000000D01*
X84689111Y-55000000D02*
X80358984Y-57500000D01*
X28397460Y-112500000D02*
X32727587Y-110000000D01*
X106339746Y-62500000D02*
X106339746Y-67500000D01*
X37057714Y-72500000D02*
X37057714Y-77500000D01*
X80358984Y-32500000D02*
X80358984Y-37500000D01*
X50048095Y-25000000D02*
X45717968Y-27500000D01*
X84689111Y-25000000D02*
X89019238Y-27500000D01*
X89019238Y-52500000D02*
X89019238Y-57500000D01*
X80358984Y-87500000D02*
X76028857Y-90000000D01*
X28397460Y-42500000D02*
X32727587Y-40000000D01*
X97679492Y-67500000D02*
X93349365Y-70000000D01*
X93349365Y-85000000D02*
X97679492Y-87500000D01*
X24067333Y-90000000D02*
X19737206Y-87500000D01*
X106339746Y-22500000D02*
X110669873Y-20000000D01*
X58708349Y-110000000D02*
X63038476Y-112500000D01*
X37057714Y-27500000D02*
X37057714Y-22500000D01*
X58708349Y-25000000D02*
X54378222Y-27500000D01*
X84689111Y-95000000D02*
X89019238Y-97500000D01*
X28397460Y-87500000D02*
X28397460Y-82500000D01*
X24067333Y-70000000D02*
X28397460Y-72500000D01*
X71698730Y-52500000D02*
X71698730Y-57500000D01*
X67368603Y-35000000D02*
X63038476Y-37500000D01*
X45717968Y-62500000D02*
X45717968Y-67500000D01*
X63038476Y-97500000D02*
X63038476Y-92500000D01*
X80358984Y-92500000D02*
X84689111Y-90000000D01*
X54378222Y-82500000D02*
X58708349Y-80000000D01*
X41387841Y-35000000D02*
X45717968Y-37500000D01*
X37057714Y-47500000D02*
X32727587Y-50000000D01*
X93349365Y-85000000D02*
X89019238Y-87500000D01*
X50048095Y-70000000D02*
X50048095Y-75000000D01*
X89019238Y-47500000D02*
X89019238Y-42500000D01*
X106339746Y-67500000D02*
X106339746Y-62500000D01*
X63038476Y-52500000D02*
X63038476Y-57500000D01*
X89019238Y-32500000D02*
X93349365Y-30000000D01*
X80358984Y-72500000D02*
X84689111Y-70000000D01*
X32727587Y-20000000D02*
X37057714Y-22500000D01*
X80358984Y-22500000D02*
X80358984Y-27500000D01*
X110669873Y-65000000D02*
X106339746Y-67500000D01*
X45717968Y-52500000D02*
X45717968Y-57500000D01*
X54378222Y-82500000D02*
X54378222Y-87500000D01*
X106339746Y-42500000D02*
X106339746Y-47500000D01*
X102009619Y-80000000D02*
X106339746Y-82500000D01*
X102009619Y-60000000D02*
X97679492Y-57500000D01*
X67368603Y-85000000D02*
X63038476Y-87500000D01*
X110669873Y-105000000D02*
X106339746Y-107500000D01*
X106339746Y-37500000D02*
X102009619Y-40000000D01*
X24067333Y-105000000D02*
X19737206Y-107500000D01*
X24067333Y-60000000D02*
X19737206Y-57500000D01*
X110669873Y-35000000D02*
X106339746Y-37500000D01*
X28397460Y-82500000D02*
X28397460Y-87500000D01*
X41387841Y-45000000D02*
X45717968Y-47500000D01*
X37057714Y-97500000D02*
X37057714Y-92500000D01*
X97679492Y-67500000D02*
X97679492Y-62500000D01*
X93349365Y-25000000D02*
X89019238Y-27500000D01*
X71698730Y-82500000D02*
X76028857Y-80000000D01*
X37057714Y-92500000D02*
X41387841Y-90000000D01*
X37057714Y-52500000D02*
X41387841Y-50000000D01*
X63038476Y-87500000D02*
X63038476Y-82500000D01*
X80358984Y-92500000D02*
X80358984Y-97500000D01*
X93349365Y-20000000D02*
X97679492Y-22500000D01*
X110669873Y-60000000D02*
X110669873Y-65000000D01*
X71698730Y-32500000D02*
X76028857Y-30000000D01*
X106339746Y-42500000D02*
X110669873Y-40000000D01*
X115000000Y-107500000D02*
X110669873Y-110000000D01*
X97679492Y-82500000D02*
X102009619Y-80000000D01*
X71698730Y-77500000D02*
X71698730Y-72500000D01*
X93349365Y-60000000D02*
X97679492Y-62500000D01*
X41387841Y-50000000D02*
X45717968Y-52500000D01*
X110669873Y-85000000D02*
X106339746Y-87500000D01*
X24067333Y-80000000D02*
X19737206Y-77500000D01*
X50048095Y-50000000D02*
X50048095Y-55000000D01*
X32727587Y-40000000D02*
X28397460Y-37500000D01*
X102009619Y-85000000D02*
X106339746Y-87500000D01*
X110669873Y-60000000D02*
X115000000Y-62500000D01*
X97679492Y-62500000D02*
X102009619Y-60000000D01*
X58708349Y-60000000D02*
X54378222Y-57500000D01*
X63038476Y-92500000D02*
X67368603Y-90000000D01*
X50048095Y-55000000D02*
X54378222Y-57500000D01*
X97679492Y-72500000D02*
X97679492Y-77500000D01*
X110669873Y-25000000D02*
X115000000Y-27500000D01*
X37057714Y-107500000D02*
X32727587Y-110000000D01*
X54378222Y-37500000D02*
X50048095Y-40000000D01*
X80358984Y-52500000D02*
X80358984Y-57500000D01*
X110669873Y-55000000D02*
X106339746Y-57500000D01*
X67368603Y-30000000D02*
X71698730Y-32500000D01*
X45717968Y-42500000D02*
X45717968Y-47500000D01*
X50048095Y-105000000D02*
X45717968Y-107500000D01*
X19737206Y-62500000D02*
X24067333Y-60000000D01*
X80358984Y-82500000D02*
X84689111Y-80000000D01*
X76028857Y-75000000D02*
X71698730Y-77500000D01*
X37057714Y-57500000D02*
X32727587Y-60000000D01*
X32727587Y-85000000D02*
X28397460Y-87500000D01*
X63038476Y-77500000D02*
X58708349Y-80000000D01*
X71698730Y-62500000D02*
X71698730Y-67500000D01*
X32727587Y-45000000D02*
X37057714Y-47500000D01*
X93349365Y-50000000D02*
X97679492Y-52500000D01*
X84689111Y-20000000D02*
X89019238Y-22500000D01*
X28397460Y-115000000D02*
X28397460Y-112500000D01*
X102009619Y-95000000D02*
X106339746Y-97500000D01*
X71698730Y-27500000D02*
X67368603Y-30000000D01*
X84689111Y-30000000D02*
X89019238Y-32500000D01*
X54378222Y-77500000D02*
X50048095Y-80000000D01*
X106339746Y-47500000D02*
X102009619Y-50000000D01*
X24067333Y-110000000D02*
X19737206Y-107500000D01*
X84689111Y-85000000D02*
X89019238Y-87500000D01*
X50048095Y-70000000D02*
X54378222Y-72500000D01*
X63038476Y-27500000D02*
X63038476Y-22500000D01*
X84689111Y-30000000D02*
X84689111Y-35000000D01*
X41387841Y-95000000D02*
X45717968Y-97500000D01*
X80358984Y-47500000D02*
X80358984Y-42500000D01*
X110669873Y-40000000D02*
X106339746Y-37500000D01*
X67368603Y-70000000D02*
X67368603Y-75000000D01*
X93349365Y-40000000D02*
X97679492Y-42500000D01*
X24067333Y-85000000D02*
X19737206Y-87500000D01*
X54378222Y-72500000D02*
X54378222Y-77500000D01*
X24067333Y-90000000D02*
X24067333Y-95000000D01*
X50048095Y-110000000D02*
X50048095Y-115000000D01*
X50048095Y-80000000D02*
X54378222Y-82500000D01*
X93349365Y-75000000D02*
X89019238Y-77500000D01*
X54378222Y-22500000D02*
X58708349Y-20000000D01*
X45717968Y-67500000D02*
X45717968Y-62500000D01*
X58708349Y-55000000D02*
X54378222Y-57500000D01*
X80358984Y-67500000D02*
X76028857Y-70000000D01*
X54378222Y-32500000D02*
X54378222Y-37500000D01*
X41387841Y-80000000D02*
X37057714Y-77500000D01*
X84689111Y-35000000D02*
X80358984Y-37500000D01*
X45717968Y-22500000D02*
X45717968Y-27500000D01*
X102009619Y-25000000D02*
X97679492Y-27500000D01*
X71698730Y-87500000D02*
X71698730Y-82500000D01*
X106339746Y-62500000D02*
X110669873Y-60000000D01*
X58708349Y-35000000D02*
X54378222Y-37500000D01*
X102009619Y-95000000D02*
X97679492Y-97500000D01*
X32727587Y-60000000D02*
X28397460Y-57500000D01*
X71698730Y-92500000D02*
X71698730Y-97500000D01*
X67368603Y-80000000D02*
X63038476Y-77500000D01*
X71698730Y-82500000D02*
X71698730Y-87500000D01*
X80358984Y-82500000D02*
X80358984Y-87500000D01*
X32727587Y-105000000D02*
X37057714Y-107500000D01*
X84689111Y-35000000D02*
X89019238Y-37500000D01*
X97679492Y-112500000D02*
X97679492Y-115000000D01*
X76028857Y-35000000D02*
X71698730Y-37500000D01*
X58708349Y-40000000D02*
X54378222Y-37500000D01*
X28397460Y-22500000D02*
X32727587Y-20000000D01*
X106339746Y-87500000D02*
X106339746Y-82500000D01*
X67368603Y-95000000D02*
X63038476Y-97500000D01*
X45717968Y-67500000D02*
X41387841Y-70000000D01*
X71698730Y-97500000D02*
X71698730Y-92500000D01*
X76028857Y-60000000D02*
X76028857Y-65000000D01*
X32727587Y-75000000D02*
X28397460Y-77500000D01*
X58708349Y-20000000D02*
X63038476Y-22500000D01*
X106339746Y-92500000D02*
X110669873Y-90000000D01*
X102009619Y-60000000D02*
X106339746Y-62500000D01*
X76028857Y-55000000D02*
X71698730Y-57500000D01*
X45717968Y-97500000D02*
X45717968Y-92500000D01*
X54378222Y-62500000D02*
X54378222Y-67500000D01*
X28397460Y-72500000D02*
X28397460Y-77500000D01*
X71698730Y-22500000D02*
X76028857Y-20000000D01*
X63038476Y-47500000D02*
X63038476Y-42500000D01*
X63038476Y-72500000D02*
X67368603Y-70000000D01*
X50048095Y-50000000D02*
X54378222Y-52500000D01*
X37057714Y-52500000D02*
X37057714Y-57500000D01*
X67368603Y-25000000D02*
X71698730Y-27500000D01*
X76028857Y-30000000D02*
X80358984Y-32500000D01*
X28397460Y-62500000D02*
X32727587Y-60000000D01*
X76028857Y-110000000D02*
X71698730Y-107500000D01*
X97679492Y-112500000D02*
X102009619Y-110000000D01*
X115000000Y-87500000D02*
X110669873Y-90000000D01*
X54378222Y-92500000D02*
X58708349Y-90000000D01*
X58708349Y-80000000D02*
X54378222Y-77500000D01*
X24067333Y-95000000D02*
X19737206Y-97500000D01*
X32727587Y-110000000D02*
X37057714Y-112500000D01*
X58708349Y-110000000D02*
X58708349Y-115000000D01*
X106339746Y-102500000D02*
X106339746Y-107500000D01*
X84689111Y-40000000D02*
X80358984Y-37500000D01*
X93349365Y-80000000D02*
X93349365Y-85000000D01*
X63038476Y-32500000D02*
X67368603Y-30000000D01*
X32727587Y-90000000D02*
X28397460Y-87500000D01*
X50048095Y-40000000D02*
X54378222Y-42500000D01*
X41387841Y-105000000D02*
X37057714Y-107500000D01*
X19737206Y-22500000D02*
X24067333Y-20000000D01*
X89019238Y-42500000D02*
X89019238Y-47500000D01*
X80358984Y-42500000D02*
X80358984Y-47500000D01*
X45717968Y-57500000D02*
X41387841Y-60000000D01*
X93349365Y-45000000D02*
X97679492Y-47500000D01*
X37057714Y-67500000D02*
X37057714Y-62500000D01*
X28397460Y-67500000D02*
X28397460Y-62500000D01*
X24067333Y-75000000D02*
X28397460Y-77500000D01*
X45717968Y-77500000D02*
X41387841Y-80000000D01*
X24067333Y-80000000D02*
X28397460Y-82500000D01*
X89019238Y-92500000D02*
X89019238Y-97500000D01*
X37057714Y-102500000D02*
X41387841Y-100000000D01*
X97679492Y-27500000D02*
X93349365Y-30000000D01*
X58708349Y-50000000D02*
X63038476Y-52500000D01*
X102009619Y-65000000D02*
X97679492Y-67500000D01*
X76028857Y-40000000D02*
X71698730Y-37500000D01*
X45717968Y-112500000D02*
X45717968Y-115000000D01*
X37057714Y-87500000D02*
X32727587Y-90000000D01*
X84689111Y-40000000D02*
X89019238Y-42500000D01*
X32727587Y-25000000D02*
X28397460Y-27500000D01*
X45717968Y-102500000D02*
X45717968Y-107500000D01*
X50048095Y-95000000D02*
X45717968Y-97500000D01*
X106339746Y-102500000D02*
X110669873Y-100000000D01*
X50048095Y-110000000D02*
X54378222Y-112500000D01*
X71698730Y-27500000D02*
X71698730Y-22500000D01*
X54378222Y-42500000D02*
X58708349Y-40000000D01*
X89019238Y-77500000D02*
X84689111Y-80000000D01*
X89019238Y-87500000D02*
X84689111Y-90000000D01*
X19737206Y-52500000D02*
X24067333Y-50000000D01*
X80358984Y-67500000D02*
X80358984Y-62500000D01*
X67368603Y-85000000D02*
X71698730Y-87500000D01*
X63038476Y-22500000D02*
X67368603Y-20000000D01*
X50048095Y-60000000D02*
X50048095Y-65000000D01*
X41387841Y-30000000D02*
X45717968Y-32500000D01*
X24067333Y-25000000D02*
X28397460Y-27500000D01*
X41387841Y-55000000D02*
X45717968Y-57500000D01*
X45717968Y-82500000D02*
X50048095Y-80000000D01*
X110669873Y-100000000D02*
X106339746Y-97500000D01*
X32727587Y-85000000D02*
X37057714Y-87500000D01*
X54378222Y-107500000D02*
X54378222Y-102500000D01*
X63038476Y-62500000D02*
X63038476Y-67500000D01*
X54378222Y-97500000D02*
X54378222Y-92500000D01*
X67368603Y-70000000D02*
X63038476Y-67500000D01*
X93349365Y-65000000D02*
X97679492Y-67500000D01*
X71698730Y-115000000D02*
X71698730Y-112500000D01*
X93349365Y-95000000D02*
X97679492Y-97500000D01*
X24067333Y-90000000D02*
X28397460Y-92500000D01*
X67368603Y-90000000D02*
X63038476Y-87500000D01*
X97679492Y-72500000D02*
X102009619Y-70000000D01*
X45717968Y-87500000D02*
X45717968Y-82500000D01*
X89019238Y-115000000D02*
X89019238Y-112500000D01*
X71698730Y-67500000D02*
X71698730Y-62500000D01*
X110669873Y-85000000D02*
X115000000Y-87500000D01*
X24067333Y-110000000D02*
X24067333Y-115000000D01*
X106339746Y-52500000D02*
X106339746Y-57500000D01*
X45717968Y-32500000D02*
X45717968Y-37500000D01*
X93349365Y-60000000D02*
X89019238Y-57500000D01*
X84689111Y-70000000D02*
X89019238Y-72500000D01*
X110669873Y-80000000D02*
X110669873Y-85000000D01*
X58708349Y-90000000D02*
X54378222Y-87500000D01*
X80358984Y-72500000D02*
X80358984Y-77500000D01*
X115000000Y-67500000D02*
X110669873Y-70000000D01*
X24067333Y-70000000D02*
X24067333Y-75000000D01*
X76028857Y-60000000D02*
X80358984Y-62500000D01*
X102009619Y-60000000D02*
X102009619Y-65000000D01*
X32727587Y-90000000D02*
X37057714Y-92500000D01*
X58708349Y-55000000D02*
X63038476Y-57500000D01*
X37057714Y-92500000D02*
X37057714Y-97500000D01*
X24067333Y-30000000D02*
X19737206Y-27500000D01*
X50048095Y-95000000D02*
X54378222Y-97500000D01*
X67368603Y-30000000D02*
X67368603Y-35000000D01*
X41387841Y-65000000D02*
X45717968Y-67500000D01*
X32727587Y-50000000D02*
X32727587Y-55000000D01*
X93349365Y-70000000D02*
X89019238Y-67500000D01*
X67368603Y-90000000D02*
X71698730Y-92500000D01*
X67368603Y-65000000D02*
X71698730Y-67500000D01*
X89019238Y-47500000D02*
X84689111Y-50000000D01*
X32727587Y-65000000D02*
X28397460Y-67500000D01*
X84689111Y-50000000D02*
X89019238Y-52500000D01*
X50048095Y-105000000D02*
X54378222Y-107500000D01*
X63038476Y-37500000D02*
X63038476Y-32500000D01*
X37057714Y-77500000D02*
X37057714Y-72500000D01*
X24067333Y-80000000D02*
X24067333Y-85000000D01*
X58708349Y-65000000D02*
X63038476Y-67500000D01*
X45717968Y-107500000D02*
X41387841Y-110000000D01*
X102009619Y-20000000D02*
X106339746Y-22500000D01*
X97679492Y-32500000D02*
X102009619Y-30000000D01*
X110669873Y-30000000D02*
X106339746Y-27500000D01*
X63038476Y-107500000D02*
X58708349Y-110000000D01*
X50048095Y-80000000D02*
X45717968Y-77500000D01*
X110669873Y-90000000D02*
X106339746Y-87500000D01*
X102009619Y-110000000D02*
X106339746Y-112500000D01*
X63038476Y-52500000D02*
X67368603Y-50000000D01*
X41387841Y-100000000D02*
X37057714Y-97500000D01*
X106339746Y-77500000D02*
X102009619Y-80000000D01*
X58708349Y-45000000D02*
X54378222Y-47500000D01*
X97679492Y-62500000D02*
X97679492Y-67500000D01*
X37057714Y-37500000D02*
X32727587Y-40000000D01*
X32727587Y-55000000D02*
X28397460Y-57500000D01*
X19737206Y-72500000D02*
X24067333Y-70000000D01*
X89019238Y-62500000D02*
X93349365Y-60000000D01*
X80358984Y-77500000D02*
X76028857Y-80000000D01*
X71698730Y-107500000D02*
X67368603Y-110000000D01*
X102009619Y-55000000D02*
X106339746Y-57500000D01*
X84689111Y-65000000D02*
X89019238Y-67500000D01*
X58708349Y-85000000D02*
X54378222Y-87500000D01*
X63038476Y-72500000D02*
X63038476Y-77500000D01*
X102009619Y-90000000D02*
X106339746Y-92500000D01*
X54378222Y-97500000D02*
X50048095Y-100000000D01*
X58708349Y-90000000D02*
X63038476Y-92500000D01*
X54378222Y-57500000D02*
X50048095Y-60000000D01*
X84689111Y-75000000D02*
X89019238Y-77500000D01*
X37057714Y-27500000D02*
X32727587Y-30000000D01*
X97679492Y-87500000D02*
X93349365Y-90000000D01*
X63038476Y-112500000D02*
X67368603Y-110000000D01*
X84689111Y-80000000D02*
X89019238Y-82500000D01*
X71698730Y-47500000D02*
X67368603Y-50000000D01*
X54378222Y-72500000D02*
X58708349Y-70000000D01*
X50048095Y-50000000D02*
X45717968Y-47500000D01*
X76028857Y-60000000D02*
X71698730Y-57500000D01*
X84689111Y-90000000D02*
X89019238Y-92500000D01*
X45717968Y-92500000D02*
X50048095Y-90000000D01*
X45717968Y-72500000D02*
X50048095Y-70000000D01*
X71698730Y-42500000D02*
X71698730Y-47500000D01*
X110669873Y-40000000D02*
X115000000Y-42500000D01*
X58708349Y-60000000D02*
X63038476Y-62500000D01*
X110669873Y-105000000D02*
X115000000Y-107500000D01*
X32727587Y-100000000D02*
X37057714Y-102500000D01*
X58708349Y-80000000D02*
X58708349Y-85000000D01*
X89019238Y-82500000D02*
X93349365Y-80000000D01*
X67368603Y-110000000D02*
X67368603Y-115000000D01*
X93349365Y-75000000D02*
X97679492Y-77500000D01*
X106339746Y-57500000D02*
X102009619Y-60000000D01*
X50048095Y-65000000D02*
X54378222Y-67500000D01*
X28397460Y-22500000D02*
X28397460Y-27500000D01*
X28397460Y-77500000D02*
X28397460Y-72500000D01*
X45717968Y-47500000D02*
X45717968Y-42500000D01*
X93349365Y-80000000D02*
X97679492Y-82500000D01*
X93349365Y-45000000D02*
X89019238Y-47500000D01*
X37057714Y-87500000D02*
X37057714Y-82500000D01*
X102009619Y-85000000D02*
X97679492Y-87500000D01*
X45717968Y-22500000D02*
X50048095Y-20000000D01*
X110669873Y-110000000D02*
X110669873Y-115000000D01*
X97679492Y-57500000D02*
X93349365Y-60000000D01*
X37057714Y-32500000D02*
X37057714Y-37500000D01*
X106339746Y-112500000D02*
X110669873Y-110000000D01*
X41387841Y-70000000D02*
X41387841Y-75000000D01*
X24067333Y-55000000D02*
X19737206Y-57500000D01*
X24067333Y-50000000D02*
X24067333Y-55000000D01*
X32727587Y-55000000D02*
X37057714Y-57500000D01*
X50048095Y-75000000D02*
X45717968Y-77500000D01*
X19737206Y-92500000D02*
X24067333Y-90000000D01*
X80358984Y-57500000D02*
X76028857Y-60000000D01*
X80358984Y-47500000D02*
X76028857Y-50000000D01*
X54378222Y-77500000D02*
X54378222Y-72500000D01*
X102009619Y-40000000D02*
X97679492Y-37500000D01*
X80358984Y-62500000D02*
X84689111Y-60000000D01*
X32727587Y-70000000D02*
X37057714Y-72500000D01*
X32727587Y-60000000D02*
X37057714Y-62500000D01*
X93349365Y-40000000D02*
X93349365Y-45000000D01*
X71698730Y-72500000D02*
X76028857Y-70000000D01*
X41387841Y-70000000D02*
X45717968Y-72500000D01*
X63038476Y-92500000D02*
X63038476Y-97500000D01*
X50048095Y-20000000D02*
X50048095Y-25000000D01*
X89019238Y-67500000D02*
X84689111Y-70000000D01*
X80358984Y-107500000D02*
X76028857Y-110000000D01*
X63038476Y-47500000D02*
X58708349Y-50000000D01*
X41387841Y-45000000D02*
X37057714Y-47500000D01*
X102009619Y-75000000D02*
X106339746Y-77500000D01*
X41387841Y-50000000D02*
X37057714Y-47500000D01*
X54378222Y-47500000D02*
X50048095Y-50000000D01*
X54378222Y-37500000D02*
X54378222Y-32500000D01*
X89019238Y-67500000D02*
X89019238Y-62500000D01*
X67368603Y-70000000D02*
X71698730Y-72500000D01*
X84689111Y-20000000D02*
X84689111Y-25000000D01*
X41387841Y-35000000D02*
X37057714Y-37500000D01*
X67368603Y-55000000D02*
X63038476Y-57500000D01*
X41387841Y-80000000D02*
X41387841Y-85000000D01*
X89019238Y-22500000D02*
X89019238Y-27500000D01*
X50048095Y-80000000D02*
X50048095Y-85000000D01*
X76028857Y-25000000D02*
X71698730Y-27500000D01*
X63038476Y-67500000D02*
X63038476Y-62500000D01*
X54378222Y-62500000D02*
X58708349Y-60000000D01*
X84689111Y-110000000D02*
X89019238Y-112500000D01*
X76028857Y-25000000D02*
X80358984Y-27500000D01*
X76028857Y-110000000D02*
X80358984Y-112500000D01*
X32727587Y-75000000D02*
X37057714Y-77500000D01*
X19737206Y-102500000D02*
X24067333Y-100000000D01*
X28397460Y-47500000D02*
X24067333Y-50000000D01*
X115000000Y-77500000D02*
X110669873Y-80000000D01*
X89019238Y-27500000D02*
X89019238Y-22500000D01*
X97679492Y-57500000D02*
X97679492Y-52500000D01*
X76028857Y-95000000D02*
X80358984Y-97500000D01*
X41387841Y-70000000D02*
X37057714Y-67500000D01*
X97679492Y-77500000D02*
X97679492Y-72500000D01*
X93349365Y-60000000D02*
X93349365Y-65000000D01*
X93349365Y-35000000D02*
X89019238Y-37500000D01*
X24067333Y-30000000D02*
X28397460Y-32500000D01*
X24067333Y-100000000D02*
X24067333Y-105000000D01*
X32727587Y-65000000D02*
X37057714Y-67500000D01*
X37057714Y-32500000D02*
X41387841Y-30000000D01*
X106339746Y-82500000D02*
X110669873Y-80000000D01*
X37057714Y-22500000D02*
X41387841Y-20000000D01*
X93349365Y-95000000D02*
X89019238Y-97500000D01*
X50048095Y-55000000D02*
X45717968Y-57500000D01*
X84689111Y-110000000D02*
X80358984Y-107500000D01*
X89019238Y-37500000D02*
X84689111Y-40000000D01*
X80358984Y-42500000D02*
X84689111Y-40000000D01*
X102009619Y-30000000D02*
X102009619Y-35000000D01*
X32727587Y-50000000D02*
X37057714Y-52500000D01*
X41387841Y-100000000D02*
X45717968Y-102500000D01*
X84689111Y-60000000D02*
X80358984Y-57500000D01*
X41387841Y-40000000D02*
X45717968Y-42500000D01*
X41387841Y-30000000D02*
X41387841Y-35000000D01*
X50048095Y-35000000D02*
X54378222Y-37500000D01*
X67368603Y-65000000D02*
X63038476Y-67500000D01*
X93349365Y-55000000D02*
X89019238Y-57500000D01*
X97679492Y-47500000D02*
X93349365Y-50000000D01*
X71698730Y-37500000D02*
X67368603Y-40000000D01*
X110669873Y-70000000D02*
X106339746Y-67500000D01*
X63038476Y-42500000D02*
X63038476Y-47500000D01*
X67368603Y-30000000D02*
X63038476Y-27500000D01*
X76028857Y-95000000D02*
X71698730Y-97500000D01*
X76028857Y-80000000D02*
X71698730Y-77500000D01*
X32727587Y-30000000D02*
X32727587Y-35000000D01*
X89019238Y-52500000D02*
X93349365Y-50000000D01*
X37057714Y-42500000D02*
X41387841Y-40000000D01*
X84689111Y-45000000D02*
X89019238Y-47500000D01*
X106339746Y-47500000D02*
X106339746Y-42500000D01*
X102009619Y-35000000D02*
X97679492Y-37500000D01*
X110669873Y-95000000D02*
X106339746Y-97500000D01*
X28397460Y-32500000D02*
X28397460Y-37500000D01*
X97679492Y-37500000D02*
X97679492Y-32500000D01*
X71698730Y-72500000D02*
X71698730Y-77500000D01*
X106339746Y-22500000D02*
X106339746Y-27500000D01*
X41387841Y-40000000D02*
X41387841Y-45000000D01*
X63038476Y-87500000D02*
X58708349Y-90000000D01*
X28397460Y-57500000D02*
X24067333Y-60000000D01*
X19737206Y-82500000D02*
X24067333Y-80000000D01*
X106339746Y-72500000D02*
X106339746Y-77500000D01*
X37057714Y-102500000D02*
X37057714Y-107500000D01*
X24067333Y-40000000D02*
X19737206Y-37500000D01*
X45717968Y-37500000D02*
X45717968Y-32500000D01*
X41387841Y-85000000D02*
X37057714Y-87500000D01*
X28397460Y-37500000D02*
X24067333Y-40000000D01*
X97679492Y-37500000D02*
X93349365Y-40000000D01*
X32727587Y-70000000D02*
X32727587Y-75000000D01*
X67368603Y-80000000D02*
X67368603Y-85000000D01*
X106339746Y-27500000D02*
X102009619Y-30000000D01*
X24067333Y-85000000D02*
X28397460Y-87500000D01*
X102009619Y-90000000D02*
X97679492Y-87500000D01*
X50048095Y-35000000D02*
X45717968Y-37500000D01*
X93349365Y-70000000D02*
X93349365Y-75000000D01*
X58708349Y-20000000D02*
X58708349Y-25000000D01*
X37057714Y-62500000D02*
X37057714Y-67500000D01*
X110669873Y-70000000D02*
X115000000Y-72500000D01*
X41387841Y-55000000D02*
X37057714Y-57500000D01*
X58708349Y-80000000D02*
X63038476Y-82500000D01*
X54378222Y-67500000D02*
X50048095Y-70000000D01*
X28397460Y-37500000D02*
X28397460Y-32500000D01*
X76028857Y-30000000D02*
X71698730Y-27500000D01*
X58708349Y-65000000D02*
X54378222Y-67500000D01*
X28397460Y-102500000D02*
X32727587Y-100000000D01*
X102009619Y-25000000D02*
X106339746Y-27500000D01*
X84689111Y-55000000D02*
X89019238Y-57500000D01*
X41387841Y-20000000D02*
X41387841Y-25000000D01*
X97679492Y-42500000D02*
X97679492Y-47500000D01*
X97679492Y-27500000D02*
X97679492Y-22500000D01*
X76028857Y-45000000D02*
X80358984Y-47500000D01*
X84689111Y-80000000D02*
X84689111Y-85000000D01*
X76028857Y-90000000D02*
X80358984Y-92500000D01*
X50048095Y-90000000D02*
X50048095Y-95000000D01*
X93349365Y-90000000D02*
X89019238Y-87500000D01*
X58708349Y-75000000D02*
X54378222Y-77500000D01*
X102009619Y-70000000D02*
X106339746Y-72500000D01*
X93349365Y-30000000D02*
X89019238Y-27500000D01*
X76028857Y-70000000D02*
X80358984Y-72500000D01*
X63038476Y-67500000D02*
X58708349Y-70000000D01*
X102009619Y-70000000D02*
X102009619Y-75000000D01*
X97679492Y-82500000D02*
X97679492Y-87500000D01*
X106339746Y-92500000D02*
X106339746Y-97500000D01*
X97679492Y-92500000D02*
X97679492Y-97500000D01*
X71698730Y-67500000D02*
X67368603Y-70000000D01*
X89019238Y-22500000D02*
X93349365Y-20000000D01*
X76028857Y-20000000D02*
X80358984Y-22500000D01*
X45717968Y-87500000D02*
X41387841Y-90000000D01*
X76028857Y-55000000D02*
X80358984Y-57500000D01*
X28397460Y-27500000D02*
X28397460Y-22500000D01*
X32727587Y-40000000D02*
X37057714Y-42500000D01*
X115000000Y-27500000D02*
X110669873Y-30000000D01*
X50048095Y-45000000D02*
X54378222Y-47500000D01*
X80358984Y-37500000D02*
X80358984Y-32500000D01*
X41387841Y-95000000D02*
X37057714Y-97500000D01*
X37057714Y-22500000D02*
X37057714Y-27500000D01*
X63038476Y-22500000D02*
X63038476Y-27500000D01*
X24067333Y-25000000D02*
X19737206Y-27500000D01*
X45717968Y-37500000D02*
X41387841Y-40000000D01*
X45717968Y-97500000D02*
X41387841Y-100000000D01*
X93349365Y-20000000D02*
X93349365Y-25000000D01*
X71698730Y-57500000D02*
X67368603Y-60000000D01*
X110669873Y-80000000D02*
X115000000Y-82500000D01*
X115000000Y-47500000D02*
X110669873Y-50000000D01*
X106339746Y-97500000D02*
X106339746Y-92500000D01*
X71698730Y-77500000D02*
X67368603Y-80000000D01*
X102009619Y-110000000D02*
X97679492Y-107500000D01*
X24067333Y-70000000D02*
X19737206Y-67500000D01*
X71698730Y-57500000D02*
X71698730Y-52500000D01*
X67368603Y-50000000D02*
X67368603Y-55000000D01*
X63038476Y-27500000D02*
X58708349Y-30000000D01*
X24067333Y-20000000D02*
X28397460Y-22500000D01*
X54378222Y-67500000D02*
X54378222Y-62500000D01*
X84689111Y-90000000D02*
X80358984Y-87500000D01*
X58708349Y-50000000D02*
X58708349Y-55000000D01*
X71698730Y-42500000D02*
X76028857Y-40000000D01*
X45717968Y-77500000D02*
X45717968Y-72500000D01*
X28397460Y-47500000D02*
X28397460Y-42500000D01*
X45717968Y-62500000D02*
X50048095Y-60000000D01*
X110669873Y-35000000D02*
X115000000Y-37500000D01*
X110669873Y-50000000D02*
X115000000Y-52500000D01*
X93349365Y-40000000D02*
X89019238Y-37500000D01*
X41387841Y-25000000D02*
X37057714Y-27500000D01*
X28397460Y-87500000D02*
X24067333Y-90000000D01*
X32727587Y-110000000D02*
X28397460Y-107500000D01*
X102009619Y-80000000D02*
X102009619Y-85000000D01*
X45717968Y-27500000D02*
X41387841Y-30000000D01*
X67368603Y-110000000D02*
X71698730Y-112500000D01*
X67368603Y-40000000D02*
X71698730Y-42500000D01*
X89019238Y-42500000D02*
X93349365Y-40000000D01*
X76028857Y-50000000D02*
X71698730Y-47500000D01*
X58708349Y-110000000D02*
X54378222Y-107500000D01*
X76028857Y-90000000D02*
X76028857Y-95000000D01*
X50048095Y-30000000D02*
X45717968Y-27500000D01*
X54378222Y-115000000D02*
X54378222Y-112500000D01*
X84689111Y-50000000D02*
X84689111Y-55000000D01*
X84689111Y-40000000D02*
X84689111Y-45000000D01*
X54378222Y-22500000D02*
X54378222Y-27500000D01*
X58708349Y-95000000D02*
X63038476Y-97500000D01*
X106339746Y-87500000D02*
X102009619Y-90000000D01*
X115000000Y-37500000D02*
X110669873Y-40000000D01*
X63038476Y-37500000D02*
X58708349Y-40000000D01*
X80358984Y-112500000D02*
X84689111Y-110000000D01*
X67368603Y-75000000D02*
X63038476Y-77500000D01*
X28397460Y-107500000D02*
X28397460Y-102500000D01*
X24067333Y-65000000D02*
X19737206Y-67500000D01*
X80358984Y-37500000D02*
X76028857Y-40000000D01*
X41387841Y-60000000D02*
X45717968Y-62500000D01*
X54378222Y-52500000D02*
X54378222Y-57500000D01*
X102009619Y-55000000D02*
X97679492Y-57500000D01*
X110669873Y-25000000D02*
X106339746Y-27500000D01*
X67368603Y-60000000D02*
X67368603Y-65000000D01*
X102009619Y-80000000D02*
X97679492Y-77500000D01*
X28397460Y-52500000D02*
X32727587Y-50000000D01*
X84689111Y-70000000D02*
X80358984Y-67500000D01*
X32727587Y-35000000D02*
X37057714Y-37500000D01*
X67368603Y-20000000D02*
X67368603Y-25000000D01*
X37057714Y-107500000D02*
X37057714Y-102500000D01*
X76028857Y-65000000D02*
X71698730Y-67500000D01*
X54378222Y-102500000D02*
X54378222Y-107500000D01*
X63038476Y-57500000D02*
X58708349Y-60000000D01*
X110669873Y-20000000D02*
X110669873Y-25000000D01*
X50048095Y-70000000D02*
X45717968Y-67500000D01*
X63038476Y-57500000D02*
X63038476Y-52500000D01*
X67368603Y-80000000D02*
X71698730Y-82500000D01*
X110669873Y-80000000D02*
X106339746Y-77500000D01*
X54378222Y-92500000D02*
X54378222Y-97500000D01*
X50048095Y-25000000D02*
X54378222Y-27500000D01*
X89019238Y-77500000D02*
X89019238Y-72500000D01*
X93349365Y-110000000D02*
X97679492Y-112500000D01*
X84689111Y-80000000D02*
X80358984Y-77500000D01*
X102009619Y-20000000D02*
X102009619Y-25000000D01*
X84689111Y-75000000D02*
X80358984Y-77500000D01*
X24067333Y-50000000D02*
X28397460Y-52500000D01*
X80358984Y-22500000D02*
X84689111Y-20000000D01*
X24067333Y-110000000D02*
X28397460Y-112500000D01*
X102009619Y-70000000D02*
X97679492Y-67500000D01*
X58708349Y-30000000D02*
X58708349Y-35000000D01*
X28397460Y-52500000D02*
X28397460Y-57500000D01*
X110669873Y-100000000D02*
X110669873Y-105000000D01*
X80358984Y-115000000D02*
X80358984Y-112500000D01*
X110669873Y-30000000D02*
X115000000Y-32500000D01*
X28397460Y-62500000D02*
X28397460Y-67500000D01*
X102009619Y-65000000D02*
X106339746Y-67500000D01*
X28397460Y-92500000D02*
X28397460Y-97500000D01*
X93349365Y-90000000D02*
X97679492Y-92500000D01*
X41387841Y-110000000D02*
X37057714Y-107500000D01*
X32727587Y-80000000D02*
X32727587Y-85000000D01*
X76028857Y-80000000D02*
X76028857Y-85000000D01*
X54378222Y-32500000D02*
X58708349Y-30000000D01*
X93349365Y-30000000D02*
X97679492Y-32500000D01*
X37057714Y-62500000D02*
X41387841Y-60000000D01*
X80358984Y-87500000D02*
X80358984Y-82500000D01*
X50048095Y-110000000D02*
X45717968Y-107500000D01*
X41387841Y-100000000D02*
X41387841Y-105000000D01*
X97679492Y-32500000D02*
X97679492Y-37500000D01*
X32727587Y-40000000D02*
X32727587Y-45000000D01*
X37057714Y-97500000D02*
X32727587Y-100000000D01*
X41387841Y-85000000D02*
X45717968Y-87500000D01*
X58708349Y-70000000D02*
X54378222Y-67500000D01*
X28397460Y-102500000D02*
X28397460Y-107500000D01*
X76028857Y-50000000D02*
X80358984Y-52500000D01*
X24067333Y-55000000D02*
X28397460Y-57500000D01*
X89019238Y-107500000D02*
X84689111Y-110000000D01*
X58708349Y-30000000D02*
X54378222Y-27500000D01*
X67368603Y-50000000D02*
X71698730Y-52500000D01*
X50048095Y-75000000D02*
X54378222Y-77500000D01*
X63038476Y-42500000D02*
X67368603Y-40000000D01*
X45717968Y-47500000D02*
X41387841Y-50000000D01*
X76028857Y-90000000D02*
X71698730Y-87500000D01*
X28397460Y-57500000D02*
X28397460Y-52500000D01*
X76028857Y-85000000D02*
X71698730Y-87500000D01*
X63038476Y-82500000D02*
X67368603Y-80000000D01*
X102009619Y-30000000D02*
X97679492Y-27500000D01*
X54378222Y-87500000D02*
X50048095Y-90000000D01*
X71698730Y-47500000D02*
X71698730Y-42500000D01*
X97679492Y-52500000D02*
X97679492Y-57500000D01*
X84689111Y-45000000D02*
X80358984Y-47500000D01*
X32727587Y-60000000D02*
X32727587Y-65000000D01*
X54378222Y-27500000D02*
X54378222Y-22500000D01*
X45717968Y-102500000D02*
X50048095Y-100000000D01*
X97679492Y-42500000D02*
X102009619Y-40000000D01*
X67368603Y-90000000D02*
X67368603Y-95000000D01*
X89019238Y-112500000D02*
X93349365Y-110000000D01*
X37057714Y-47500000D02*
X37057714Y-42500000D01*
X80358984Y-77500000D02*
X80358984Y-72500000D01*
X102009619Y-40000000D02*
X106339746Y-42500000D01*
X32727587Y-80000000D02*
X28397460Y-77500000D01*
X58708349Y-50000000D02*
X54378222Y-47500000D01*
X93349365Y-25000000D02*
X97679492Y-27500000D01*
X106339746Y-37500000D02*
X106339746Y-32500000D01*
X32727587Y-100000000D02*
X28397460Y-97500000D01*
X50048095Y-60000000D02*
X45717968Y-57500000D01*
X28397460Y-92500000D02*
X32727587Y-90000000D01*
X45717968Y-112500000D02*
X50048095Y-110000000D01*
X41387841Y-20000000D02*
X45717968Y-22500000D01*
X24067333Y-50000000D02*
X19737206Y-47500000D01*
X67368603Y-75000000D02*
X71698730Y-77500000D01*
X41387841Y-50000000D02*
X41387841Y-55000000D01*
X89019238Y-32500000D02*
X89019238Y-37500000D01*
X45717968Y-92500000D02*
X45717968Y-97500000D01*
X37057714Y-37500000D02*
X37057714Y-32500000D01*
X32727587Y-20000000D02*
X32727587Y-25000000D01*
X67368603Y-60000000D02*
X63038476Y-57500000D01*
X76028857Y-70000000D02*
X76028857Y-75000000D01*
X102009619Y-40000000D02*
X102009619Y-45000000D01*
X71698730Y-62500000D02*
X76028857Y-60000000D01*
X80358984Y-27500000D02*
X80358984Y-22500000D01*
X41387841Y-40000000D02*
X37057714Y-37500000D01*
X32727587Y-105000000D02*
X28397460Y-107500000D01*
X50048095Y-100000000D02*
X45717968Y-97500000D01*
X89019238Y-57500000D02*
X89019238Y-52500000D01*
X58708349Y-75000000D02*
X63038476Y-77500000D01*
X24067333Y-95000000D02*
X28397460Y-97500000D01*
X71698730Y-37500000D02*
X71698730Y-32500000D01*
X50048095Y-40000000D02*
X50048095Y-45000000D01*
X76028857Y-75000000D02*
X80358984Y-77500000D01*
X58708349Y-45000000D02*
X63038476Y-47500000D01*
X58708349Y-60000000D02*
X58708349Y-65000000D01*
X67368603Y-45000000D02*
X63038476Y-47500000D01*
X32727587Y-110000000D02*
X32727587Y-115000000D01*
X84689111Y-30000000D02*
X80358984Y-27500000D01*
X110669873Y-75000000D02*
X115000000Y-77500000D01*
X106339746Y-67500000D02*
X102009619Y-70000000D01*
X102009619Y-110000000D02*
X102009619Y-115000000D01*
X32727587Y-70000000D02*
X28397460Y-67500000D01*
X28397460Y-42500000D02*
X28397460Y-47500000D01*
X89019238Y-97500000D02*
X89019238Y-92500000D01*
X76028857Y-35000000D02*
X80358984Y-37500000D01*
X50048095Y-65000000D02*
X45717968Y-67500000D01*
X84689111Y-65000000D02*
X80358984Y-67500000D01*
X106339746Y-52500000D02*
X110669873Y-50000000D01*
X102009619Y-30000000D02*
X106339746Y-32500000D01*
X102009619Y-50000000D02*
X106339746Y-52500000D01*
X84689111Y-110000000D02*
X84689111Y-115000000D01*
X54378222Y-112500000D02*
X58708349Y-110000000D01*
X76028857Y-45000000D02*
X71698730Y-47500000D01*
X45717968Y-32500000D02*
X50048095Y-30000000D01*
X54378222Y-42500000D02*
X54378222Y-47500000D01*
X67368603Y-35000000D02*
X71698730Y-37500000D01*
X67368603Y-20000000D02*
X71698730Y-22500000D01*
X84689111Y-90000000D02*
X84689111Y-95000000D01*
X67368603Y-25000000D02*
X63038476Y-27500000D01*
X71698730Y-87500000D02*
X67368603Y-90000000D01*
X32727587Y-35000000D02*
X28397460Y-37500000D01*
X102009619Y-45000000D02*
X97679492Y-47500000D01*
X50048095Y-30000000D02*
X54378222Y-32500000D01*
X58708349Y-70000000D02*
X63038476Y-72500000D01*
X110669873Y-65000000D02*
X115000000Y-67500000D01*
X115000000Y-97500000D02*
X110669873Y-100000000D01*
X71698730Y-112500000D02*
X76028857Y-110000000D01*
X93349365Y-55000000D02*
X97679492Y-57500000D01*
X93349365Y-30000000D02*
X93349365Y-35000000D01*
X41387841Y-30000000D02*
X37057714Y-27500000D01*
X50048095Y-90000000D02*
X54378222Y-92500000D01*
X32727587Y-100000000D02*
X32727587Y-105000000D01*
X67368603Y-55000000D02*
X71698730Y-57500000D01*
X106339746Y-32500000D02*
X106339746Y-37500000D01*
X24067333Y-40000000D02*
X24067333Y-45000000D01*
X102009619Y-50000000D02*
X102009619Y-55000000D01*
X106339746Y-27500000D02*
X106339746Y-22500000D01*
X41387841Y-105000000D02*
X45717968Y-107500000D01*
X67368603Y-110000000D02*
X63038476Y-107500000D01*
X41387841Y-75000000D02*
X37057714Y-77500000D01*
X41387841Y-90000000D02*
X37057714Y-87500000D01*
X37057714Y-57500000D02*
X37057714Y-52500000D01*
X67368603Y-45000000D02*
X71698730Y-47500000D01*
X28397460Y-82500000D02*
X32727587Y-80000000D01*
X50048095Y-100000000D02*
X54378222Y-102500000D01*
X32727587Y-30000000D02*
X37057714Y-32500000D01*
X19737206Y-42500000D02*
X24067333Y-40000000D01*
X58708349Y-95000000D02*
X54378222Y-97500000D01*
X37057714Y-77500000D02*
X32727587Y-80000000D01*
X93349365Y-65000000D02*
X89019238Y-67500000D01*
X80358984Y-97500000D02*
X80358984Y-92500000D01*
X45717968Y-52500000D02*
X50048095Y-50000000D01*
X41387841Y-65000000D02*
X37057714Y-67500000D01*
X89019238Y-57500000D02*
X84689111Y-60000000D01*
X37057714Y-82500000D02*
X37057714Y-87500000D01*
X106339746Y-112500000D02*
X106339746Y-115000000D01*
X106339746Y-57500000D02*
X106339746Y-52500000D01*
X97679492Y-107500000D02*
X93349365Y-110000000D01*
X110669873Y-95000000D02*
X115000000Y-97500000D01*
X32727587Y-80000000D02*
X37057714Y-82500000D01*
X97679492Y-97500000D02*
X97679492Y-92500000D01*
X24067333Y-30000000D02*
X24067333Y-35000000D01*
X28397460Y-27500000D02*
X24067333Y-30000000D01*
X97679492Y-92500000D02*
X102009619Y-90000000D01*
X54378222Y-87500000D02*
X54378222Y-82500000D01*
X110669873Y-60000000D02*
X106339746Y-57500000D01*
X67368603Y-60000000D02*
X71698730Y-62500000D01*
X41387841Y-90000000D02*
X45717968Y-92500000D01*
X37057714Y-42500000D02*
X37057714Y-47500000D01*
X54378222Y-47500000D02*
X54378222Y-42500000D01*
X71698730Y-32500000D02*
X71698730Y-37500000D01*
X102009619Y-50000000D02*
X97679492Y-47500000D01*
X32727587Y-30000000D02*
X28397460Y-27500000D01*
X93349365Y-50000000D02*
X93349365Y-55000000D01*
X24067333Y-105000000D02*
X28397460Y-107500000D01*
X24067333Y-35000000D02*
X28397460Y-37500000D01*
X97679492Y-52500000D02*
X102009619Y-50000000D01*
X97679492Y-77500000D02*
X93349365Y-80000000D01*
X63038476Y-77500000D02*
X63038476Y-72500000D01*
X32727587Y-25000000D02*
X37057714Y-27500000D01*
X102009619Y-90000000D02*
X102009619Y-95000000D01*
X58708349Y-30000000D02*
X63038476Y-32500000D01*
X50048095Y-85000000D02*
X45717968Y-87500000D01*
X28397460Y-97500000D02*
X28397460Y-92500000D01*
X84689111Y-85000000D02*
X80358984Y-87500000D01*
X76028857Y-70000000D02*
X71698730Y-67500000D01*
X50048095Y-20000000D02*
X54378222Y-22500000D01*
X24067333Y-20000000D02*
X24067333Y-25000000D01*
X45717968Y-82500000D02*
X45717968Y-87500000D01*
X110669873Y-40000000D02*
X110669873Y-45000000D01*
X45717968Y-42500000D02*
X50048095Y-40000000D01*
X50048095Y-60000000D02*
X54378222Y-62500000D01*
X110669873Y-75000000D02*
X106339746Y-77500000D01*
%TO.C,kibuzzard-656267AE*%
G36*
X112420625Y-79855513D02*
G01*
X112520638Y-79906313D01*
X112592075Y-79995213D01*
X112619063Y-80128563D01*
X112593663Y-80260325D01*
X112523812Y-80352400D01*
X112422213Y-80409550D01*
X112304737Y-80436538D01*
X112304737Y-79839638D01*
X112420625Y-79855513D01*
G37*
G36*
X112420625Y-68743013D02*
G01*
X112520638Y-68793813D01*
X112592075Y-68882713D01*
X112619063Y-69016063D01*
X112593663Y-69147825D01*
X112523812Y-69239900D01*
X112422213Y-69297050D01*
X112304737Y-69324038D01*
X112304737Y-68727138D01*
X112420625Y-68743013D01*
G37*
G36*
X112420625Y-63980513D02*
G01*
X112520638Y-64031313D01*
X112592075Y-64120213D01*
X112619063Y-64253563D01*
X112593663Y-64385325D01*
X112523812Y-64477400D01*
X112422213Y-64534550D01*
X112304737Y-64561538D01*
X112304737Y-63964638D01*
X112420625Y-63980513D01*
G37*
G36*
X112420625Y-59218013D02*
G01*
X112520638Y-59268813D01*
X112592075Y-59357713D01*
X112619063Y-59491063D01*
X112593663Y-59622825D01*
X112523812Y-59714900D01*
X112422213Y-59772050D01*
X112304737Y-59799038D01*
X112304737Y-59202138D01*
X112420625Y-59218013D01*
G37*
G36*
X112058675Y-83179738D02*
G01*
X112063438Y-83278163D01*
X112055500Y-83395638D01*
X112028512Y-83495650D01*
X111974537Y-83563913D01*
X111882462Y-83589313D01*
X111738000Y-83513113D01*
X111695138Y-83316263D01*
X111696725Y-83192438D01*
X111704663Y-83087663D01*
X112047562Y-83087663D01*
X112058675Y-83179738D01*
G37*
G36*
X112058675Y-54604738D02*
G01*
X112063438Y-54703163D01*
X112055500Y-54820638D01*
X112028512Y-54920650D01*
X111974537Y-54988913D01*
X111882462Y-55014313D01*
X111738000Y-54938113D01*
X111695138Y-54741263D01*
X111696725Y-54617438D01*
X111704663Y-54512663D01*
X112047562Y-54512663D01*
X112058675Y-54604738D01*
G37*
G36*
X112585725Y-81652563D02*
G01*
X112603188Y-81773213D01*
X112575406Y-81893863D01*
X112492063Y-81976413D01*
X112356331Y-82024038D01*
X112171387Y-82039913D01*
X111989619Y-82021259D01*
X111844363Y-81965300D01*
X111749113Y-81868066D01*
X111717363Y-81725588D01*
X111720538Y-81636688D01*
X111730063Y-81550963D01*
X112542862Y-81550963D01*
X112585725Y-81652563D01*
G37*
G36*
X112585725Y-51490063D02*
G01*
X112603188Y-51610713D01*
X112575406Y-51731363D01*
X112492063Y-51813913D01*
X112356331Y-51861538D01*
X112171387Y-51877413D01*
X111989619Y-51858759D01*
X111844363Y-51802800D01*
X111749113Y-51705566D01*
X111717363Y-51563088D01*
X111720538Y-51474188D01*
X111730063Y-51388463D01*
X112542862Y-51388463D01*
X112585725Y-51490063D01*
G37*
G36*
X112674534Y-46938808D02*
G01*
X112847387Y-46964448D01*
X113016894Y-47006907D01*
X113181424Y-47065777D01*
X113339391Y-47140490D01*
X113489274Y-47230326D01*
X113629630Y-47334421D01*
X113759107Y-47451772D01*
X113876458Y-47581249D01*
X113980553Y-47721605D01*
X114070389Y-47871489D01*
X114145102Y-48029456D01*
X114203972Y-48193985D01*
X114246431Y-48363492D01*
X114272072Y-48536345D01*
X114280646Y-48710879D01*
X114280646Y-49372338D01*
X114280646Y-85627663D01*
X114280646Y-86289121D01*
X114272072Y-86463655D01*
X114246431Y-86636508D01*
X114203972Y-86806015D01*
X114145102Y-86970545D01*
X114070389Y-87128511D01*
X113980553Y-87278395D01*
X113876458Y-87418751D01*
X113759107Y-87548228D01*
X113629630Y-87665579D01*
X113489274Y-87769674D01*
X113339391Y-87859510D01*
X113181424Y-87934223D01*
X113016894Y-87993093D01*
X112847387Y-88035552D01*
X112674534Y-88061192D01*
X112500000Y-88069767D01*
X112325466Y-88061192D01*
X112152613Y-88035552D01*
X111983106Y-87993093D01*
X111818576Y-87934223D01*
X111660609Y-87859510D01*
X111510726Y-87769674D01*
X111370370Y-87665579D01*
X111240893Y-87548228D01*
X111123542Y-87418751D01*
X111019447Y-87278395D01*
X110929611Y-87128511D01*
X110854898Y-86970545D01*
X110796028Y-86806015D01*
X110753569Y-86636508D01*
X110727928Y-86463655D01*
X110719354Y-86289121D01*
X110719354Y-85627663D01*
X110719354Y-84186213D01*
X111415737Y-84186213D01*
X111415737Y-84544988D01*
X112942913Y-84525938D01*
X112111063Y-84767238D01*
X112111063Y-85052988D01*
X112942913Y-85284763D01*
X111415737Y-85268888D01*
X111415737Y-85627663D01*
X111661800Y-85617741D01*
X111917388Y-85607025D01*
X112176944Y-85595516D01*
X112434913Y-85583213D01*
X112688119Y-85569322D01*
X112933388Y-85553050D01*
X113165956Y-85534397D01*
X113381063Y-85513363D01*
X113381063Y-85189513D01*
X113209613Y-85133950D01*
X112984188Y-85062513D01*
X112739713Y-84986313D01*
X112511112Y-84913288D01*
X112754000Y-84833913D01*
X112995300Y-84754538D01*
X113212788Y-84684688D01*
X113381063Y-84627538D01*
X113381063Y-84303688D01*
X113127063Y-84281859D01*
X112879413Y-84260825D01*
X112636128Y-84241775D01*
X112395225Y-84225900D01*
X112154719Y-84212803D01*
X111912625Y-84202088D01*
X111666959Y-84193356D01*
X111415737Y-84186213D01*
X110719354Y-84186213D01*
X110719354Y-83344838D01*
X111380812Y-83344838D01*
X111406212Y-83603600D01*
X111490350Y-83802038D01*
X111642750Y-83929038D01*
X111872937Y-83973488D01*
X112092013Y-83922688D01*
X112234887Y-83786163D01*
X112312675Y-83589313D01*
X112336488Y-83357538D01*
X112330137Y-83213869D01*
X112311088Y-83087663D01*
X112358713Y-83087663D01*
X112544450Y-83157513D01*
X112600409Y-83252763D01*
X112619063Y-83398813D01*
X112603188Y-83613125D01*
X112565088Y-83779813D01*
X112879413Y-83833788D01*
X112925450Y-83627413D01*
X112940928Y-83491681D01*
X112946087Y-83351188D01*
X112935372Y-83182516D01*
X112903225Y-83044800D01*
X112782575Y-82849538D01*
X112592075Y-82744763D01*
X112339663Y-82713013D01*
X111450662Y-82713013D01*
X111406212Y-82967013D01*
X111387162Y-83145606D01*
X111380812Y-83344838D01*
X110719354Y-83344838D01*
X110719354Y-81728763D01*
X111380812Y-81728763D01*
X111403743Y-81942722D01*
X111472535Y-82118935D01*
X111587187Y-82257400D01*
X111741704Y-82357060D01*
X111930088Y-82416856D01*
X112152338Y-82436788D01*
X112378644Y-82420031D01*
X112570732Y-82369760D01*
X112728600Y-82285975D01*
X112845899Y-82169382D01*
X112916278Y-82020686D01*
X112939738Y-81839888D01*
X112922275Y-81684313D01*
X112873063Y-81550963D01*
X113552513Y-81550963D01*
X113619188Y-81160438D01*
X111460187Y-81160438D01*
X111428437Y-81280294D01*
X111403037Y-81423963D01*
X111386369Y-81577950D01*
X111380812Y-81728763D01*
X110719354Y-81728763D01*
X110719354Y-80020613D01*
X111380812Y-80020613D01*
X111393116Y-80201191D01*
X111430025Y-80361925D01*
X111491144Y-80501625D01*
X111576075Y-80619100D01*
X111684422Y-80713159D01*
X111815788Y-80782613D01*
X111970569Y-80825475D01*
X112149163Y-80839763D01*
X112334106Y-80824681D01*
X112495238Y-80779438D01*
X112632159Y-80709588D01*
X112744475Y-80620688D01*
X112832184Y-80515119D01*
X112895288Y-80395263D01*
X112933388Y-80266675D01*
X112946087Y-80134913D01*
X112924392Y-79932418D01*
X112859304Y-79765201D01*
X112750825Y-79633263D01*
X112600718Y-79538013D01*
X112410747Y-79480863D01*
X112180912Y-79461813D01*
X112101538Y-79463400D01*
X112034862Y-79468163D01*
X112034862Y-80436538D01*
X111904291Y-80406375D01*
X111804675Y-80315888D01*
X111741572Y-80177775D01*
X111720538Y-80004738D01*
X111745937Y-79780900D01*
X111796737Y-79601513D01*
X111463362Y-79547538D01*
X111404625Y-79763438D01*
X111380812Y-80020613D01*
X110719354Y-80020613D01*
X110719354Y-76702738D01*
X111380812Y-76702738D01*
X111391925Y-76842834D01*
X111425262Y-76958325D01*
X111553850Y-77123425D01*
X111758637Y-77210738D01*
X111888019Y-77229788D01*
X112034862Y-77236138D01*
X112584138Y-77236138D01*
X112584138Y-77648888D01*
X112907987Y-77648888D01*
X112907987Y-77109138D01*
X113088963Y-77109138D01*
X113155638Y-77282175D01*
X113336613Y-77353613D01*
X113520763Y-77282175D01*
X113587438Y-77109138D01*
X113520763Y-76934513D01*
X113336613Y-76861488D01*
X113155638Y-76934513D01*
X113088963Y-77109138D01*
X112907987Y-77109138D01*
X112907987Y-76845613D01*
X111984062Y-76845613D01*
X111785625Y-76796400D01*
X111720538Y-76632888D01*
X111734825Y-76502713D01*
X111793563Y-76331263D01*
X111479237Y-76280463D01*
X111401450Y-76507475D01*
X111380812Y-76702738D01*
X110719354Y-76702738D01*
X110719354Y-74775513D01*
X111415737Y-74775513D01*
X111415737Y-75166038D01*
X112206312Y-75166038D01*
X112386494Y-75177944D01*
X112507938Y-75213663D01*
X112600013Y-75407338D01*
X112596838Y-75494650D01*
X112587313Y-75585138D01*
X111415737Y-75585138D01*
X111415737Y-75975663D01*
X112860363Y-75975663D01*
X112888144Y-75858584D01*
X112914337Y-75716900D01*
X112933388Y-75556166D01*
X112939738Y-75381938D01*
X112927434Y-75219219D01*
X112890525Y-75086663D01*
X112750825Y-74900925D01*
X112534925Y-74804088D01*
X112402766Y-74782656D01*
X112257112Y-74775513D01*
X111415737Y-74775513D01*
X110719354Y-74775513D01*
X110719354Y-72010088D01*
X111415737Y-72010088D01*
X111415737Y-72403788D01*
X113057213Y-72403788D01*
X113057213Y-72921313D01*
X113381063Y-72921313D01*
X113381063Y-71492563D01*
X113057213Y-71492563D01*
X113057213Y-72010088D01*
X111415737Y-72010088D01*
X110719354Y-72010088D01*
X110719354Y-71213163D01*
X111415737Y-71213163D01*
X113552513Y-71213163D01*
X113619188Y-70822638D01*
X112895288Y-70822638D01*
X112925450Y-70708338D01*
X112939738Y-70590863D01*
X112927434Y-70439256D01*
X112890525Y-70314638D01*
X112750825Y-70136838D01*
X112534925Y-70041588D01*
X112402766Y-70020156D01*
X112257112Y-70013013D01*
X111415737Y-70013013D01*
X111415737Y-70403538D01*
X112206312Y-70403538D01*
X112386494Y-70415444D01*
X112507938Y-70451163D01*
X112600013Y-70632138D01*
X112587313Y-70738500D01*
X112565088Y-70822638D01*
X111415737Y-70822638D01*
X111415737Y-71213163D01*
X110719354Y-71213163D01*
X110719354Y-68908113D01*
X111380812Y-68908113D01*
X111393116Y-69088691D01*
X111430025Y-69249425D01*
X111491144Y-69389125D01*
X111576075Y-69506600D01*
X111684422Y-69600659D01*
X111815788Y-69670113D01*
X111970569Y-69712975D01*
X112149163Y-69727263D01*
X112334106Y-69712181D01*
X112495238Y-69666938D01*
X112632159Y-69597088D01*
X112744475Y-69508188D01*
X112832184Y-69402619D01*
X112895288Y-69282763D01*
X112933388Y-69154175D01*
X112946087Y-69022413D01*
X112924392Y-68819918D01*
X112859304Y-68652701D01*
X112750825Y-68520763D01*
X112600718Y-68425513D01*
X112410747Y-68368363D01*
X112180912Y-68349313D01*
X112101538Y-68350900D01*
X112034862Y-68355663D01*
X112034862Y-69324038D01*
X111904291Y-69293875D01*
X111804675Y-69203388D01*
X111741572Y-69065275D01*
X111720538Y-68892238D01*
X111745937Y-68668400D01*
X111796737Y-68489013D01*
X111463362Y-68435038D01*
X111404625Y-68650938D01*
X111380812Y-68908113D01*
X110719354Y-68908113D01*
X110719354Y-65523563D01*
X111415737Y-65523563D01*
X111633578Y-65615108D01*
X111851065Y-65711946D01*
X112068200Y-65814075D01*
X112285335Y-65921496D01*
X112502822Y-66034208D01*
X112720663Y-66152213D01*
X111415737Y-66152213D01*
X111415737Y-66504638D01*
X113381063Y-66504638D01*
X113381063Y-66190313D01*
X113235409Y-66101413D01*
X113077850Y-66012513D01*
X112914734Y-65924803D01*
X112752413Y-65839475D01*
X112592869Y-65758513D01*
X112438088Y-65683900D01*
X112295212Y-65617622D01*
X112171387Y-65561663D01*
X113381063Y-65561663D01*
X113381063Y-65209238D01*
X111415737Y-65209238D01*
X111415737Y-65523563D01*
X110719354Y-65523563D01*
X110719354Y-64145613D01*
X111380812Y-64145613D01*
X111393116Y-64326191D01*
X111430025Y-64486925D01*
X111491144Y-64626625D01*
X111576075Y-64744100D01*
X111684422Y-64838159D01*
X111815788Y-64907613D01*
X111970569Y-64950475D01*
X112149163Y-64964763D01*
X112334106Y-64949681D01*
X112495238Y-64904438D01*
X112632159Y-64834588D01*
X112744475Y-64745688D01*
X112832184Y-64640119D01*
X112895288Y-64520263D01*
X112933388Y-64391675D01*
X112946087Y-64259913D01*
X112924392Y-64057418D01*
X112859304Y-63890201D01*
X112750825Y-63758263D01*
X112600718Y-63663013D01*
X112410747Y-63605863D01*
X112180912Y-63586813D01*
X112101538Y-63588400D01*
X112034862Y-63593163D01*
X112034862Y-64561538D01*
X111904291Y-64531375D01*
X111804675Y-64440888D01*
X111741572Y-64302775D01*
X111720538Y-64129738D01*
X111745937Y-63905900D01*
X111796737Y-63726513D01*
X111463362Y-63672538D01*
X111404625Y-63888438D01*
X111380812Y-64145613D01*
X110719354Y-64145613D01*
X110719354Y-62453338D01*
X111380812Y-62453338D01*
X111403037Y-62694638D01*
X111488762Y-62872438D01*
X111668150Y-62983563D01*
X111801897Y-63012138D01*
X111971362Y-63021663D01*
X112584138Y-63021663D01*
X112584138Y-63361388D01*
X112907987Y-63361388D01*
X112907987Y-63021663D01*
X113282638Y-63021663D01*
X113346138Y-62631138D01*
X112907987Y-62631138D01*
X112907987Y-62005663D01*
X112584138Y-62005663D01*
X112584138Y-62631138D01*
X111980887Y-62631138D01*
X111847537Y-62615263D01*
X111768163Y-62570813D01*
X111730063Y-62500963D01*
X111720538Y-62408888D01*
X111723712Y-62308875D01*
X111734825Y-62219975D01*
X111758637Y-62131075D01*
X111799912Y-62031063D01*
X111463362Y-61977088D01*
X111399862Y-62210450D01*
X111380812Y-62453338D01*
X110719354Y-62453338D01*
X110719354Y-61688163D01*
X111415737Y-61688163D01*
X113552513Y-61688163D01*
X113619188Y-61297638D01*
X112895288Y-61297638D01*
X112925450Y-61183338D01*
X112939738Y-61065863D01*
X112927434Y-60914256D01*
X112890525Y-60789638D01*
X112750825Y-60611838D01*
X112534925Y-60516588D01*
X112402766Y-60495156D01*
X112257112Y-60488013D01*
X111415737Y-60488013D01*
X111415737Y-60878538D01*
X112206312Y-60878538D01*
X112386494Y-60890444D01*
X112507938Y-60926163D01*
X112600013Y-61107138D01*
X112587313Y-61213500D01*
X112565088Y-61297638D01*
X111415737Y-61297638D01*
X111415737Y-61688163D01*
X110719354Y-61688163D01*
X110719354Y-59383113D01*
X111380812Y-59383113D01*
X111393116Y-59563691D01*
X111430025Y-59724425D01*
X111491144Y-59864125D01*
X111576075Y-59981600D01*
X111684422Y-60075659D01*
X111815788Y-60145113D01*
X111970569Y-60187975D01*
X112149163Y-60202263D01*
X112334106Y-60187181D01*
X112495238Y-60141938D01*
X112632159Y-60072088D01*
X112744475Y-59983188D01*
X112832184Y-59877619D01*
X112895288Y-59757763D01*
X112933388Y-59629175D01*
X112946087Y-59497413D01*
X112924392Y-59294918D01*
X112859304Y-59127701D01*
X112750825Y-58995763D01*
X112600718Y-58900513D01*
X112410747Y-58843363D01*
X112180912Y-58824313D01*
X112101538Y-58825900D01*
X112034862Y-58830663D01*
X112034862Y-59799038D01*
X111904291Y-59768875D01*
X111804675Y-59678388D01*
X111741572Y-59540275D01*
X111720538Y-59367238D01*
X111745937Y-59143400D01*
X111796737Y-58964013D01*
X111463362Y-58910038D01*
X111404625Y-59125938D01*
X111380812Y-59383113D01*
X110719354Y-59383113D01*
X110719354Y-58036913D01*
X111415737Y-58036913D01*
X111415737Y-58430613D01*
X112809562Y-58430613D01*
X112861156Y-58273053D01*
X112901638Y-58111525D01*
X112927831Y-57934122D01*
X112936563Y-57728938D01*
X112933388Y-57638450D01*
X112922275Y-57513038D01*
X112903225Y-57378100D01*
X112873063Y-57255863D01*
X112511112Y-57325713D01*
X112530162Y-57416200D01*
X112547625Y-57522563D01*
X112558738Y-57627338D01*
X112561912Y-57713063D01*
X112553975Y-57874988D01*
X112523812Y-58036913D01*
X111415737Y-58036913D01*
X110719354Y-58036913D01*
X110719354Y-56081113D01*
X111380812Y-56081113D01*
X111420897Y-56314475D01*
X111541150Y-56474813D01*
X111738397Y-56567681D01*
X112009462Y-56598638D01*
X113276288Y-56598638D01*
X113276288Y-57011388D01*
X113600138Y-57011388D01*
X113600138Y-56208113D01*
X111980887Y-56208113D01*
X111774512Y-56147788D01*
X111720538Y-55995388D01*
X111752288Y-55798538D01*
X111793563Y-55693763D01*
X111479237Y-55642963D01*
X111457013Y-55685825D01*
X111423675Y-55773138D01*
X111393513Y-55904900D01*
X111380812Y-56081113D01*
X110719354Y-56081113D01*
X110719354Y-54769838D01*
X111380812Y-54769838D01*
X111406212Y-55028600D01*
X111490350Y-55227038D01*
X111642750Y-55354038D01*
X111872937Y-55398488D01*
X112092013Y-55347688D01*
X112234887Y-55211163D01*
X112312675Y-55014313D01*
X112336488Y-54782538D01*
X112330137Y-54638869D01*
X112311088Y-54512663D01*
X112358713Y-54512663D01*
X112544450Y-54582513D01*
X112600409Y-54677763D01*
X112619063Y-54823813D01*
X112603188Y-55038125D01*
X112565088Y-55204813D01*
X112879413Y-55258788D01*
X112925450Y-55052413D01*
X112940928Y-54916681D01*
X112946087Y-54776188D01*
X112935372Y-54607516D01*
X112903225Y-54469800D01*
X112782575Y-54274538D01*
X112592075Y-54169763D01*
X112339663Y-54138013D01*
X111450662Y-54138013D01*
X111406212Y-54392013D01*
X111387162Y-54570606D01*
X111380812Y-54769838D01*
X110719354Y-54769838D01*
X110719354Y-52550513D01*
X111415737Y-52550513D01*
X111415737Y-52941038D01*
X112206312Y-52941038D01*
X112386494Y-52952944D01*
X112507938Y-52988663D01*
X112600013Y-53182338D01*
X112596838Y-53269650D01*
X112587313Y-53360138D01*
X111415737Y-53360138D01*
X111415737Y-53750663D01*
X112860363Y-53750663D01*
X112888144Y-53633584D01*
X112914337Y-53491900D01*
X112933388Y-53331166D01*
X112939738Y-53156938D01*
X112927434Y-52994219D01*
X112890525Y-52861663D01*
X112750825Y-52675925D01*
X112534925Y-52579088D01*
X112402766Y-52557656D01*
X112257112Y-52550513D01*
X111415737Y-52550513D01*
X110719354Y-52550513D01*
X110719354Y-51566263D01*
X111380812Y-51566263D01*
X111403743Y-51780222D01*
X111472535Y-51956435D01*
X111587187Y-52094900D01*
X111741704Y-52194560D01*
X111930088Y-52254356D01*
X112152338Y-52274288D01*
X112378644Y-52257531D01*
X112570732Y-52207260D01*
X112728600Y-52123475D01*
X112845899Y-52006882D01*
X112916278Y-51858186D01*
X112939738Y-51677388D01*
X112922275Y-51521813D01*
X112873063Y-51388463D01*
X113552513Y-51388463D01*
X113619188Y-50997938D01*
X111460187Y-50997938D01*
X111428437Y-51117794D01*
X111403037Y-51261463D01*
X111386369Y-51415450D01*
X111380812Y-51566263D01*
X110719354Y-51566263D01*
X110719354Y-50054963D01*
X111380812Y-50054963D01*
X111391925Y-50234350D01*
X111425262Y-50385163D01*
X111504638Y-50604238D01*
X111831662Y-50543913D01*
X111749112Y-50307375D01*
X111711012Y-50051788D01*
X111731650Y-49832713D01*
X111815788Y-49756513D01*
X111885637Y-49780325D01*
X111934850Y-49847000D01*
X111974537Y-49945425D01*
X112012638Y-50061313D01*
X112071375Y-50235938D01*
X112155512Y-50397863D01*
X112284100Y-50518513D01*
X112479363Y-50566138D01*
X112658750Y-50529625D01*
X112807975Y-50415325D01*
X112909575Y-50216888D01*
X112936959Y-50084331D01*
X112946087Y-49927963D01*
X112940531Y-49787072D01*
X112923863Y-49656500D01*
X112860363Y-49439013D01*
X112530162Y-49499338D01*
X112582550Y-49667613D01*
X112619063Y-49924788D01*
X112582550Y-50126400D01*
X112504762Y-50178788D01*
X112442850Y-50154975D01*
X112393637Y-50091475D01*
X112350775Y-49999400D01*
X112311088Y-49886688D01*
X112247588Y-49708888D01*
X112160275Y-49542200D01*
X112026925Y-49419963D01*
X111828488Y-49372338D01*
X111653863Y-49407263D01*
X111510987Y-49523150D01*
X111415737Y-49734288D01*
X111389544Y-49879544D01*
X111380812Y-50054963D01*
X110719354Y-50054963D01*
X110719354Y-49372338D01*
X110719354Y-48710879D01*
X110727928Y-48536345D01*
X110753569Y-48363492D01*
X110796028Y-48193985D01*
X110854898Y-48029456D01*
X110929611Y-47871489D01*
X111019447Y-47721605D01*
X111123542Y-47581249D01*
X111240893Y-47451772D01*
X111370370Y-47334421D01*
X111510726Y-47230326D01*
X111660609Y-47140490D01*
X111818576Y-47065777D01*
X111983106Y-47006907D01*
X112152613Y-46964448D01*
X112325466Y-46938808D01*
X112500000Y-46930233D01*
X112674534Y-46938808D01*
G37*
%TD*%
%LPC*%
%TO.C,kibuzzard-65625AD1*%
G36*
X88439944Y-101883256D02*
G01*
X88601075Y-102005494D01*
X88701087Y-102183294D01*
X88748316Y-102388875D01*
X87703741Y-102388875D01*
X87731522Y-102186072D01*
X87820422Y-102011050D01*
X87975997Y-101886034D01*
X88209359Y-101838806D01*
X88439944Y-101883256D01*
G37*
G36*
X77327444Y-101883256D02*
G01*
X77488575Y-102005494D01*
X77588588Y-102183294D01*
X77635816Y-102388875D01*
X76591241Y-102388875D01*
X76619022Y-102186072D01*
X76707922Y-102011050D01*
X76863497Y-101886034D01*
X77096859Y-101838806D01*
X77327444Y-101883256D01*
G37*
G36*
X63478491Y-101913507D02*
G01*
X63678516Y-102154278D01*
X63745191Y-102555563D01*
X63716020Y-102839626D01*
X63628509Y-103047291D01*
X63261797Y-103216756D01*
X63053437Y-103188975D01*
X62878416Y-103116744D01*
X62878416Y-101861031D01*
X63017322Y-101838806D01*
X63145116Y-101833250D01*
X63478491Y-101913507D01*
G37*
G36*
X80138906Y-101063709D02*
G01*
X80308372Y-101077600D01*
X80308372Y-102188850D01*
X80030559Y-102188850D01*
X79743023Y-102156207D01*
X79536053Y-102058278D01*
X79411038Y-101881173D01*
X79369366Y-101611000D01*
X79410343Y-101354718D01*
X79533275Y-101185947D01*
X79724271Y-101092185D01*
X79969441Y-101060931D01*
X80138906Y-101063709D01*
G37*
G36*
X101768461Y-106035627D02*
G01*
X100610909Y-106035627D01*
X98282841Y-106035627D01*
X96104791Y-106035627D01*
X93354447Y-106035627D01*
X90576322Y-106035627D01*
X88020447Y-106035627D01*
X84231084Y-106035627D01*
X80308372Y-106035627D01*
X76907947Y-106035627D01*
X73285272Y-106035627D01*
X70507147Y-106035627D01*
X68323541Y-106035627D01*
X64950897Y-106035627D01*
X63489603Y-106035627D01*
X60583684Y-106035627D01*
X59389091Y-106035627D01*
X58231539Y-106035627D01*
X56110162Y-106035627D01*
X56954157Y-103222313D01*
X59389091Y-103222313D01*
X59450209Y-103527906D01*
X59653013Y-103777938D01*
X60022503Y-103944625D01*
X60276702Y-103990464D01*
X60583684Y-104005744D01*
X60897612Y-103986297D01*
X61161534Y-103927956D01*
X61544916Y-103789050D01*
X61515193Y-103627919D01*
X62189441Y-103627919D01*
X62223704Y-104016856D01*
X62326495Y-104331710D01*
X62497812Y-104572481D01*
X62745066Y-104742256D01*
X63075662Y-104844120D01*
X63489603Y-104878075D01*
X63729216Y-104865573D01*
X63959106Y-104828069D01*
X64389716Y-104711388D01*
X64261922Y-104133538D01*
X63922991Y-104247441D01*
X63478491Y-104300225D01*
X63184009Y-104258553D01*
X63000653Y-104144650D01*
X62906197Y-103975184D01*
X62902122Y-103944625D01*
X64950897Y-103944625D01*
X65634316Y-103944625D01*
X65634316Y-102561119D01*
X65655152Y-102245802D01*
X65717659Y-102033275D01*
X66056591Y-101872144D01*
X66209387Y-101877700D01*
X66367741Y-101894369D01*
X66367741Y-103944625D01*
X67051159Y-103944625D01*
X67051159Y-103833500D01*
X67584559Y-103833500D01*
X67981831Y-103969628D01*
X68323541Y-104005744D01*
X68568710Y-103986297D01*
X68713073Y-103944625D01*
X70507147Y-103944625D01*
X71190566Y-103944625D01*
X71190566Y-102561119D01*
X71211402Y-102245802D01*
X71273909Y-102033275D01*
X71612841Y-101872144D01*
X71765637Y-101877700D01*
X71923991Y-101894369D01*
X71923991Y-103944625D01*
X72607409Y-103944625D01*
X73285272Y-103944625D01*
X73968691Y-103944625D01*
X73968691Y-102561119D01*
X73989527Y-102245802D01*
X74052034Y-102033275D01*
X74390966Y-101872144D01*
X74543763Y-101877700D01*
X74702116Y-101894369D01*
X74702116Y-103944625D01*
X75385534Y-103944625D01*
X75385534Y-102605569D01*
X75930047Y-102605569D01*
X75932825Y-102744475D01*
X75941159Y-102861156D01*
X77635816Y-102861156D01*
X77583031Y-103089657D01*
X77424678Y-103263984D01*
X77182981Y-103374415D01*
X76880166Y-103411225D01*
X76488450Y-103366775D01*
X76174522Y-103277875D01*
X76080066Y-103861281D01*
X76457891Y-103964072D01*
X76907947Y-104005744D01*
X77223959Y-103984213D01*
X77505244Y-103919622D01*
X77749719Y-103812664D01*
X77955300Y-103664034D01*
X78119904Y-103474427D01*
X78241447Y-103244538D01*
X78316456Y-102973670D01*
X78341459Y-102661131D01*
X78315067Y-102337480D01*
X78235891Y-102055500D01*
X78113653Y-101815887D01*
X77958078Y-101619334D01*
X77954734Y-101616556D01*
X78669278Y-101616556D01*
X78709715Y-101989751D01*
X78831027Y-102287010D01*
X79033212Y-102508334D01*
X79309482Y-102661131D01*
X79653043Y-102752809D01*
X80063897Y-102783369D01*
X80308372Y-102783369D01*
X80308372Y-103944625D01*
X80991791Y-103944625D01*
X84231084Y-103944625D01*
X84786709Y-103944625D01*
X84786709Y-102349981D01*
X84806156Y-102099950D01*
X84856163Y-101955488D01*
X84928394Y-101888813D01*
X85014516Y-101872144D01*
X85120084Y-101880478D01*
X85220097Y-101911038D01*
X85192316Y-102144400D01*
X85181203Y-102427769D01*
X85181203Y-102950056D01*
X85736828Y-102950056D01*
X85736828Y-102349981D01*
X85789612Y-101977713D01*
X85959078Y-101872144D01*
X86039644Y-101877700D01*
X86131322Y-101894369D01*
X86131322Y-103944625D01*
X86686947Y-103944625D01*
X86686947Y-102605569D01*
X87042547Y-102605569D01*
X87045325Y-102744475D01*
X87053659Y-102861156D01*
X88748316Y-102861156D01*
X88695531Y-103089657D01*
X88537178Y-103263984D01*
X88295481Y-103374415D01*
X87992666Y-103411225D01*
X87600950Y-103366775D01*
X87287022Y-103277875D01*
X87192566Y-103861281D01*
X87570391Y-103964072D01*
X88020447Y-104005744D01*
X88336459Y-103984213D01*
X88617744Y-103919622D01*
X88814594Y-103833500D01*
X89809559Y-103833500D01*
X89884569Y-103872394D01*
X90037366Y-103930734D01*
X90267950Y-103983519D01*
X90576322Y-104005744D01*
X90984706Y-103935596D01*
X91120834Y-103833500D01*
X92587684Y-103833500D01*
X92662694Y-103872394D01*
X92815491Y-103930734D01*
X93046075Y-103983519D01*
X93354447Y-104005744D01*
X93762831Y-103935596D01*
X93898959Y-103833500D01*
X95365809Y-103833500D01*
X95763081Y-103969628D01*
X96104791Y-104005744D01*
X96349960Y-103986297D01*
X96552069Y-103927956D01*
X96840994Y-103702928D01*
X96993791Y-103344550D01*
X97027128Y-103118133D01*
X97038241Y-102861156D01*
X97038241Y-101899925D01*
X97760553Y-101899925D01*
X97760553Y-101333188D01*
X96815991Y-101333188D01*
X96354822Y-101333188D01*
X96354822Y-102950056D01*
X96268700Y-103297322D01*
X95982553Y-103411225D01*
X95754747Y-103386222D01*
X95454709Y-103283431D01*
X95365809Y-103833500D01*
X93898959Y-103833500D01*
X94043422Y-103725153D01*
X94205942Y-103379971D01*
X94260116Y-102905606D01*
X94260116Y-100688663D01*
X94982428Y-100688663D01*
X94982428Y-100583094D01*
X96382603Y-100583094D01*
X96510397Y-100899800D01*
X96815991Y-101016481D01*
X97118806Y-100899800D01*
X97243822Y-100583094D01*
X97213646Y-100505306D01*
X98088372Y-100505306D01*
X98105041Y-100933832D01*
X98121709Y-101374859D01*
X98139767Y-101820748D01*
X98160603Y-102263859D01*
X98184912Y-102702109D01*
X98213388Y-103133413D01*
X98246030Y-103550131D01*
X98282841Y-103944625D01*
X98849578Y-103944625D01*
X98971816Y-103581385D01*
X99094053Y-103191753D01*
X99216291Y-102797954D01*
X99338528Y-102422213D01*
X99463544Y-102787536D01*
X99594116Y-103183419D01*
X99721909Y-103579302D01*
X99838591Y-103944625D01*
X100405328Y-103944625D01*
X100447000Y-103549437D01*
X100483116Y-103130634D01*
X100514370Y-102697247D01*
X100541456Y-102258303D01*
X100564376Y-101815192D01*
X100583128Y-101369303D01*
X100598408Y-100929665D01*
X100610909Y-100505306D01*
X99977497Y-100505306D01*
X99983053Y-100838681D01*
X99988609Y-101183169D01*
X99994166Y-101532518D01*
X99999722Y-101880478D01*
X100005278Y-102223577D01*
X100010834Y-102558341D01*
X100015002Y-102878520D01*
X100016391Y-103177863D01*
X99902488Y-102788925D01*
X99780250Y-102372206D01*
X99671903Y-101994381D01*
X99594116Y-101722125D01*
X99094053Y-101722125D01*
X99027378Y-101983269D01*
X98930144Y-102327756D01*
X98813463Y-102733363D01*
X98688447Y-103177863D01*
X98689836Y-102878520D01*
X98694003Y-102558341D01*
X98699559Y-102224271D01*
X98705116Y-101883256D01*
X98710672Y-101536685D01*
X98716228Y-101185947D01*
X98720395Y-100839376D01*
X98721784Y-100505306D01*
X98088372Y-100505306D01*
X97213646Y-100505306D01*
X97118806Y-100260831D01*
X96815991Y-100144150D01*
X96510397Y-100260831D01*
X96382603Y-100583094D01*
X94982428Y-100583094D01*
X94982428Y-100121925D01*
X93576697Y-100121925D01*
X93576697Y-102955613D01*
X93471128Y-103316769D01*
X93204428Y-103411225D01*
X92859941Y-103355663D01*
X92676584Y-103283431D01*
X92587684Y-103833500D01*
X91120834Y-103833500D01*
X91265297Y-103725153D01*
X91427817Y-103379971D01*
X91481991Y-102905606D01*
X91481991Y-100688663D01*
X92204303Y-100688663D01*
X92204303Y-100121925D01*
X90798572Y-100121925D01*
X90798572Y-102955613D01*
X90693003Y-103316769D01*
X90426303Y-103411225D01*
X90081816Y-103355663D01*
X89898459Y-103283431D01*
X89809559Y-103833500D01*
X88814594Y-103833500D01*
X88862219Y-103812664D01*
X89067800Y-103664034D01*
X89232404Y-103474427D01*
X89353947Y-103244538D01*
X89428956Y-102973670D01*
X89453959Y-102661131D01*
X89427567Y-102337480D01*
X89348391Y-102055500D01*
X89226153Y-101815887D01*
X89070578Y-101619334D01*
X88885833Y-101465843D01*
X88676084Y-101355413D01*
X88451056Y-101288737D01*
X88220472Y-101266513D01*
X87866107Y-101304480D01*
X87573477Y-101418383D01*
X87342584Y-101608222D01*
X87175897Y-101870909D01*
X87075884Y-102203358D01*
X87042547Y-102605569D01*
X86686947Y-102605569D01*
X86686947Y-101433200D01*
X86259116Y-101338744D01*
X85886847Y-101305406D01*
X85628481Y-101341522D01*
X85431234Y-101460981D01*
X85208984Y-101352634D01*
X84942284Y-101305406D01*
X84586684Y-101372081D01*
X84367212Y-101572106D01*
X84258866Y-101908259D01*
X84238030Y-102128426D01*
X84231084Y-102383319D01*
X84231084Y-103944625D01*
X80991791Y-103944625D01*
X80991791Y-100549756D01*
X80766762Y-100510863D01*
X80513953Y-100485859D01*
X80263922Y-100471969D01*
X80047228Y-100466413D01*
X79642857Y-100496355D01*
X79303925Y-100586181D01*
X79030434Y-100735891D01*
X78829792Y-100953510D01*
X78709407Y-101247066D01*
X78669278Y-101616556D01*
X77954734Y-101616556D01*
X77773333Y-101465843D01*
X77563584Y-101355413D01*
X77338556Y-101288737D01*
X77107972Y-101266513D01*
X76753607Y-101304480D01*
X76460977Y-101418383D01*
X76230084Y-101608222D01*
X76063397Y-101870909D01*
X75963384Y-102203358D01*
X75930047Y-102605569D01*
X75385534Y-102605569D01*
X75385534Y-101416531D01*
X75180648Y-101367914D01*
X74932700Y-101322075D01*
X74651415Y-101288738D01*
X74346516Y-101277625D01*
X74061758Y-101299155D01*
X73829784Y-101363747D01*
X73504744Y-101608222D01*
X73335278Y-101986047D01*
X73297773Y-102217326D01*
X73285272Y-102472219D01*
X73285272Y-103944625D01*
X72607409Y-103944625D01*
X72607409Y-101416531D01*
X72402523Y-101367914D01*
X72154575Y-101322075D01*
X71873290Y-101288738D01*
X71568391Y-101277625D01*
X71283633Y-101299155D01*
X71051659Y-101363747D01*
X70726619Y-101608222D01*
X70557153Y-101986047D01*
X70519648Y-102217326D01*
X70507147Y-102472219D01*
X70507147Y-103944625D01*
X68713073Y-103944625D01*
X68770819Y-103927956D01*
X69059744Y-103702928D01*
X69212541Y-103344550D01*
X69245878Y-103118133D01*
X69256991Y-102861156D01*
X69256991Y-101899925D01*
X69979303Y-101899925D01*
X69979303Y-101333188D01*
X69034741Y-101333188D01*
X68573572Y-101333188D01*
X68573572Y-102950056D01*
X68487450Y-103297322D01*
X68201303Y-103411225D01*
X67973497Y-103386222D01*
X67673459Y-103283431D01*
X67584559Y-103833500D01*
X67051159Y-103833500D01*
X67051159Y-101416531D01*
X66846273Y-101367914D01*
X66598325Y-101322075D01*
X66317040Y-101288738D01*
X66012141Y-101277625D01*
X65727383Y-101299155D01*
X65495409Y-101363747D01*
X65170369Y-101608222D01*
X65000903Y-101986047D01*
X64963398Y-102217326D01*
X64950897Y-102472219D01*
X64950897Y-103944625D01*
X62902122Y-103944625D01*
X62878416Y-103766825D01*
X62878416Y-103661256D01*
X63142338Y-103744600D01*
X63400703Y-103772381D01*
X63714014Y-103736574D01*
X63972380Y-103629153D01*
X64175800Y-103450119D01*
X64322423Y-103207496D01*
X64410397Y-102909310D01*
X64439722Y-102555563D01*
X64400211Y-102162303D01*
X64281677Y-101841893D01*
X64084122Y-101594331D01*
X63818657Y-101418383D01*
X63496394Y-101312815D01*
X63117334Y-101277625D01*
X62824088Y-101293059D01*
X62514790Y-101339361D01*
X62189441Y-101416531D01*
X62189441Y-103627919D01*
X61515193Y-103627919D01*
X61439347Y-103216756D01*
X61025406Y-103361219D01*
X60578128Y-103427894D01*
X60194747Y-103391778D01*
X60061397Y-103244538D01*
X60103069Y-103122300D01*
X60219750Y-103036178D01*
X60391994Y-102966725D01*
X60594797Y-102900050D01*
X60900391Y-102797259D01*
X61183759Y-102650019D01*
X61394897Y-102424991D01*
X61478241Y-102083281D01*
X61414344Y-101769353D01*
X61214319Y-101508209D01*
X60867053Y-101330409D01*
X60635080Y-101282487D01*
X60361434Y-101266513D01*
X60114876Y-101276236D01*
X59886375Y-101305406D01*
X59505772Y-101416531D01*
X59611341Y-101994381D01*
X59905822Y-101902703D01*
X60355878Y-101838806D01*
X60708700Y-101902703D01*
X60800378Y-102038831D01*
X60758706Y-102147178D01*
X60647581Y-102233300D01*
X60486450Y-102308309D01*
X60289203Y-102377763D01*
X59978053Y-102488888D01*
X59686350Y-102641684D01*
X59472434Y-102875047D01*
X59389091Y-103222313D01*
X56954157Y-103222313D01*
X57745923Y-100583094D01*
X68601353Y-100583094D01*
X68729147Y-100899800D01*
X69034741Y-101016481D01*
X69337556Y-100899800D01*
X69462572Y-100583094D01*
X69337556Y-100260831D01*
X69034741Y-100144150D01*
X68729147Y-100260831D01*
X68601353Y-100583094D01*
X57745923Y-100583094D01*
X58231539Y-98964373D01*
X59389091Y-98964373D01*
X100610909Y-98964373D01*
X101768461Y-98964373D01*
X103889838Y-98964373D01*
X101768461Y-106035627D01*
G37*
%TD*%
D11*
%TO.C,U3*%
X86070000Y-34760000D03*
X86070000Y-37300000D03*
X86070000Y-39840000D03*
X86070000Y-42380000D03*
X86070000Y-44920000D03*
X86070000Y-47460000D03*
X86070000Y-50000000D03*
X86070000Y-52540000D03*
X86070000Y-55080000D03*
X86070000Y-57620000D03*
X86070000Y-60160000D03*
X86070000Y-62700000D03*
X86070000Y-65240000D03*
X108930000Y-60160000D03*
X108930000Y-57620000D03*
X108930000Y-55080000D03*
X108930000Y-52540000D03*
X108930000Y-50000000D03*
X108930000Y-47460000D03*
X108930000Y-44920000D03*
X108930000Y-42380000D03*
X108930000Y-39840000D03*
X108930000Y-37300000D03*
X108930000Y-34760000D03*
%TD*%
%TO.C,U2*%
X56070000Y-34760000D03*
X56070000Y-37300000D03*
X56070000Y-39840000D03*
X56070000Y-42380000D03*
X56070000Y-44920000D03*
X56070000Y-47460000D03*
X56070000Y-50000000D03*
X56070000Y-52540000D03*
X56070000Y-55080000D03*
X56070000Y-57620000D03*
X56070000Y-60160000D03*
X56070000Y-62700000D03*
X56070000Y-65240000D03*
X78930000Y-60160000D03*
X78930000Y-57620000D03*
X78930000Y-55080000D03*
X78930000Y-52540000D03*
X78930000Y-50000000D03*
X78930000Y-47460000D03*
X78930000Y-44920000D03*
X78930000Y-42380000D03*
X78930000Y-39840000D03*
X78930000Y-37300000D03*
X78930000Y-34760000D03*
%TD*%
%TO.C,U1*%
X26070000Y-34760000D03*
X26070000Y-37300000D03*
X26070000Y-39840000D03*
X26070000Y-42380000D03*
X26070000Y-44920000D03*
X26070000Y-47460000D03*
X26070000Y-50000000D03*
X26070000Y-52540000D03*
X26070000Y-55080000D03*
X26070000Y-57620000D03*
X26070000Y-60160000D03*
X26070000Y-62700000D03*
X26070000Y-65240000D03*
X48930000Y-60160000D03*
X48930000Y-57620000D03*
X48930000Y-55080000D03*
X48930000Y-52540000D03*
X48930000Y-50000000D03*
X48930000Y-47460000D03*
X48930000Y-44920000D03*
X48930000Y-42380000D03*
X48930000Y-39840000D03*
X48930000Y-37300000D03*
X48930000Y-34760000D03*
%TD*%
D12*
%TO.C,J5*%
X107460000Y-102850000D03*
X107460000Y-100310000D03*
X107460000Y-97770000D03*
X107460000Y-95230000D03*
X107460000Y-92690000D03*
X107460000Y-90150000D03*
X110000000Y-102850000D03*
X110000000Y-100310000D03*
X110000000Y-97770000D03*
X110000000Y-95230000D03*
X110000000Y-92690000D03*
X110000000Y-90150000D03*
X112540000Y-102850000D03*
X112540000Y-100310000D03*
X112540000Y-97770000D03*
X112540000Y-95230000D03*
X112540000Y-92690000D03*
X112540000Y-90150000D03*
%TD*%
D13*
%TO.C,U4*%
X95392080Y-90070000D03*
D14*
X92852080Y-90070000D03*
X90312080Y-90070000D03*
X87772080Y-90070000D03*
X85232080Y-90070000D03*
X82692080Y-90070000D03*
X80152080Y-90070000D03*
X77612080Y-90070000D03*
X75072080Y-90070000D03*
X72532080Y-90070000D03*
X69992080Y-90070000D03*
X67452080Y-90070000D03*
X64912080Y-90070000D03*
X62372080Y-90070000D03*
X59832080Y-90070000D03*
X57292080Y-90070000D03*
X54752080Y-90070000D03*
X52212080Y-90070000D03*
X49672080Y-90070000D03*
X47134800Y-90066320D03*
X44594800Y-90066320D03*
X42054800Y-90066320D03*
X42052080Y-112930000D03*
X44592080Y-112930000D03*
X47132080Y-112930000D03*
X49672080Y-112930000D03*
X52212080Y-112930000D03*
X54752080Y-112930000D03*
X57292080Y-112930000D03*
X59832080Y-112930000D03*
X62372080Y-112930000D03*
X64912080Y-112930000D03*
X67452080Y-112930000D03*
X69992080Y-112930000D03*
X72532080Y-112930000D03*
X75072080Y-112930000D03*
X77612080Y-112930000D03*
X80152080Y-112930000D03*
X82692080Y-112930000D03*
X85232080Y-112930000D03*
X87772080Y-112930000D03*
X90312080Y-112930000D03*
X92852080Y-112930000D03*
X95392080Y-112930000D03*
%TD*%
D15*
%TO.C,H4*%
X110000000Y-110000000D03*
%TD*%
D16*
%TO.C,J1*%
X26000000Y-99900000D03*
D17*
X26000000Y-92700000D03*
%TD*%
D18*
%TO.C,C5*%
X69867677Y-76000000D03*
D11*
X64867677Y-76000000D03*
%TD*%
D15*
%TO.C,H1*%
X25000000Y-25000000D03*
%TD*%
D19*
%TO.C,J2*%
X47800000Y-29750000D03*
D20*
X43600000Y-29750000D03*
X39400000Y-29750000D03*
X35200000Y-29750000D03*
X47800000Y-24250000D03*
X43600000Y-24250000D03*
X39400000Y-24250000D03*
X35200000Y-24250000D03*
%TD*%
D21*
%TO.C,C2*%
X43323959Y-76000000D03*
D22*
X38323959Y-76000000D03*
%TD*%
D19*
%TO.C,J3*%
X73800000Y-29750000D03*
D20*
X69600000Y-29750000D03*
X65400000Y-29750000D03*
X61200000Y-29750000D03*
X73800000Y-24250000D03*
X69600000Y-24250000D03*
X65400000Y-24250000D03*
X61200000Y-24250000D03*
%TD*%
D21*
%TO.C,C1*%
X29323959Y-76000000D03*
D22*
X24323959Y-76000000D03*
%TD*%
D21*
%TO.C,C4*%
X105000000Y-82702780D03*
D22*
X105000000Y-75202780D03*
%TD*%
D21*
%TO.C,C3*%
X57323959Y-76000000D03*
D22*
X52323959Y-76000000D03*
%TD*%
D15*
%TO.C,H3*%
X25000000Y-110000000D03*
%TD*%
D19*
%TO.C,J4*%
X99800000Y-29750000D03*
D20*
X95600000Y-29750000D03*
X91400000Y-29750000D03*
X87200000Y-29750000D03*
X99800000Y-24250000D03*
X95600000Y-24250000D03*
X91400000Y-24250000D03*
X87200000Y-24250000D03*
%TD*%
D15*
%TO.C,H2*%
X110000000Y-25000000D03*
%TD*%
%LPD*%
M02*
