%TF.GenerationSoftware,KiCad,Pcbnew,7.0.8*%
%TF.CreationDate,2024-01-29T21:33:25+01:00*%
%TF.ProjectId,cube-motherboard,63756265-2d6d-46f7-9468-6572626f6172,rev?*%
%TF.SameCoordinates,Original*%
%TF.FileFunction,Paste,Top*%
%TF.FilePolarity,Positive*%
%FSLAX46Y46*%
G04 Gerber Fmt 4.6, Leading zero omitted, Abs format (unit mm)*
G04 Created by KiCad (PCBNEW 7.0.8) date 2024-01-29 21:33:25*
%MOMM*%
%LPD*%
G01*
G04 APERTURE LIST*
G04 Aperture macros list*
%AMRoundRect*
0 Rectangle with rounded corners*
0 $1 Rounding radius*
0 $2 $3 $4 $5 $6 $7 $8 $9 X,Y pos of 4 corners*
0 Add a 4 corners polygon primitive as box body*
4,1,4,$2,$3,$4,$5,$6,$7,$8,$9,$2,$3,0*
0 Add four circle primitives for the rounded corners*
1,1,$1+$1,$2,$3*
1,1,$1+$1,$4,$5*
1,1,$1+$1,$6,$7*
1,1,$1+$1,$8,$9*
0 Add four rect primitives between the rounded corners*
20,1,$1+$1,$2,$3,$4,$5,0*
20,1,$1+$1,$4,$5,$6,$7,0*
20,1,$1+$1,$6,$7,$8,$9,0*
20,1,$1+$1,$8,$9,$2,$3,0*%
G04 Aperture macros list end*
%ADD10R,5.000000X3.400000*%
%ADD11R,3.000000X2.400000*%
%ADD12RoundRect,0.147500X0.172500X-0.147500X0.172500X0.147500X-0.172500X0.147500X-0.172500X-0.147500X0*%
%ADD13RoundRect,0.225000X0.250000X-0.225000X0.250000X0.225000X-0.250000X0.225000X-0.250000X-0.225000X0*%
%ADD14RoundRect,0.150000X-0.150000X0.512500X-0.150000X-0.512500X0.150000X-0.512500X0.150000X0.512500X0*%
%ADD15RoundRect,0.250000X-1.000000X-0.900000X1.000000X-0.900000X1.000000X0.900000X-1.000000X0.900000X0*%
%ADD16RoundRect,0.225000X-0.225000X-0.250000X0.225000X-0.250000X0.225000X0.250000X-0.225000X0.250000X0*%
%ADD17RoundRect,0.150000X0.587500X0.150000X-0.587500X0.150000X-0.587500X-0.150000X0.587500X-0.150000X0*%
%ADD18RoundRect,0.050000X0.225000X0.050000X-0.225000X0.050000X-0.225000X-0.050000X0.225000X-0.050000X0*%
%ADD19RoundRect,0.050000X-0.050000X0.225000X-0.050000X-0.225000X0.050000X-0.225000X0.050000X0.225000X0*%
%ADD20RoundRect,0.200000X-0.200000X-0.275000X0.200000X-0.275000X0.200000X0.275000X-0.200000X0.275000X0*%
%ADD21RoundRect,0.250000X-0.300000X-0.300000X0.300000X-0.300000X0.300000X0.300000X-0.300000X0.300000X0*%
%ADD22RoundRect,0.200000X0.200000X0.275000X-0.200000X0.275000X-0.200000X-0.275000X0.200000X-0.275000X0*%
%ADD23RoundRect,0.200000X0.275000X-0.200000X0.275000X0.200000X-0.275000X0.200000X-0.275000X-0.200000X0*%
%ADD24RoundRect,0.225000X0.225000X0.250000X-0.225000X0.250000X-0.225000X-0.250000X0.225000X-0.250000X0*%
%ADD25RoundRect,0.150000X-0.587500X-0.150000X0.587500X-0.150000X0.587500X0.150000X-0.587500X0.150000X0*%
%ADD26RoundRect,0.250000X-0.300000X2.050000X-0.300000X-2.050000X0.300000X-2.050000X0.300000X2.050000X0*%
%ADD27RoundRect,0.250000X-2.375000X2.025000X-2.375000X-2.025000X2.375000X-2.025000X2.375000X2.025000X0*%
G04 APERTURE END LIST*
D10*
%TO.C,L1*%
X78500000Y-76550000D03*
X78500000Y-85450000D03*
%TD*%
D11*
%TO.C,F3*%
X62000000Y-86430000D03*
X62000000Y-81570000D03*
%TD*%
%TO.C,F2*%
X48000000Y-86430000D03*
X48000000Y-81570000D03*
%TD*%
%TO.C,F1*%
X34000000Y-86430000D03*
X34000000Y-81570000D03*
%TD*%
D12*
%TO.C,D9*%
X77612080Y-94365000D03*
X77612080Y-93395000D03*
%TD*%
D13*
%TO.C,C10*%
X77612080Y-97195000D03*
X77612080Y-95645000D03*
%TD*%
D14*
%TO.C,U6*%
X47925000Y-100662500D03*
X46975000Y-100662500D03*
X46025000Y-100662500D03*
X46025000Y-102937500D03*
X47925000Y-102937500D03*
%TD*%
D12*
%TO.C,D7*%
X59832080Y-94365000D03*
X59832080Y-93395000D03*
%TD*%
D15*
%TO.C,D3*%
X52850000Y-85000000D03*
X57150000Y-85000000D03*
%TD*%
D12*
%TO.C,D6*%
X54752080Y-94365000D03*
X54752080Y-93395000D03*
%TD*%
D16*
%TO.C,C14*%
X52200000Y-98800000D03*
X53750000Y-98800000D03*
%TD*%
D13*
%TO.C,C7*%
X54752080Y-97195000D03*
X54752080Y-95645000D03*
%TD*%
D17*
%TO.C,Q2*%
X50412500Y-107250000D03*
X50412500Y-105350000D03*
X48537500Y-106300000D03*
%TD*%
D13*
%TO.C,C8*%
X59832080Y-97195000D03*
X59832080Y-95645000D03*
%TD*%
D12*
%TO.C,D5*%
X57292080Y-94365000D03*
X57292080Y-93395000D03*
%TD*%
D13*
%TO.C,C6*%
X57292080Y-97195000D03*
X57292080Y-95645000D03*
%TD*%
%TO.C,C13*%
X43975000Y-102575000D03*
X43975000Y-101025000D03*
%TD*%
D12*
%TO.C,D8*%
X67452080Y-94365000D03*
X67452080Y-93395000D03*
%TD*%
D18*
%TO.C,U7*%
X52975000Y-103300000D03*
X52975000Y-102900000D03*
X52975000Y-102500000D03*
X52975000Y-102100000D03*
X52975000Y-101700000D03*
X52975000Y-101300000D03*
D19*
X52475000Y-100800000D03*
X52075000Y-100800000D03*
X51675000Y-100800000D03*
X51275000Y-100800000D03*
X50875000Y-100800000D03*
X50475000Y-100800000D03*
D18*
X49975000Y-101300000D03*
X49975000Y-101700000D03*
X49975000Y-102100000D03*
X49975000Y-102500000D03*
X49975000Y-102900000D03*
X49975000Y-103300000D03*
D19*
X50475000Y-103800000D03*
X50875000Y-103800000D03*
X51275000Y-103800000D03*
X51675000Y-103800000D03*
X52075000Y-103800000D03*
X52475000Y-103800000D03*
%TD*%
D20*
%TO.C,R3*%
X52650000Y-106300000D03*
X54300000Y-106300000D03*
%TD*%
D13*
%TO.C,C11*%
X80152080Y-97195000D03*
X80152080Y-95645000D03*
%TD*%
D15*
%TO.C,D1*%
X24850000Y-85000000D03*
X29150000Y-85000000D03*
%TD*%
%TO.C,D2*%
X38850000Y-85000000D03*
X43150000Y-85000000D03*
%TD*%
D21*
%TO.C,D4*%
X90600000Y-68725000D03*
X93400000Y-68725000D03*
%TD*%
D22*
%TO.C,R4*%
X53325000Y-108800000D03*
X51675000Y-108800000D03*
%TD*%
D13*
%TO.C,C9*%
X67452080Y-97195000D03*
X67452080Y-95645000D03*
%TD*%
%TO.C,C16*%
X97300000Y-71275000D03*
X97300000Y-69725000D03*
%TD*%
D20*
%TO.C,R1*%
X56150000Y-105800000D03*
X57800000Y-105800000D03*
%TD*%
D13*
%TO.C,C15*%
X49975000Y-99075000D03*
X49975000Y-97525000D03*
%TD*%
D23*
%TO.C,R2*%
X46475000Y-107125000D03*
X46475000Y-105475000D03*
%TD*%
D24*
%TO.C,C12*%
X47750000Y-98800000D03*
X46200000Y-98800000D03*
%TD*%
D25*
%TO.C,Q1*%
X55037500Y-101850000D03*
X55037500Y-103750000D03*
X56912500Y-102800000D03*
%TD*%
D26*
%TO.C,U5*%
X93000000Y-73725000D03*
X91300000Y-73725000D03*
X89600000Y-73725000D03*
D27*
X92375000Y-80450000D03*
X86825000Y-80450000D03*
X92375000Y-85300000D03*
X86825000Y-85300000D03*
D26*
X87900000Y-73725000D03*
X86200000Y-73725000D03*
%TD*%
D12*
%TO.C,D10*%
X80152080Y-94365000D03*
X80152080Y-93395000D03*
%TD*%
M02*
